G75*
%MOIN*%
%OFA0B0*%
%FSLAX25Y25*%
%IPPOS*%
%LPD*%
%AMOC8*
5,1,8,0,0,1.08239X$1,22.5*
%
%ADD10C,0.13398*%
%ADD11R,0.05000X0.06250*%
%ADD12R,0.05000X0.05000*%
%ADD13C,0.06000*%
%ADD14C,0.05950*%
%ADD15C,0.07178*%
%ADD16C,0.07280*%
%ADD17R,0.07099X0.07887*%
%ADD18R,0.07887X0.07099*%
%ADD19C,0.07100*%
%ADD20C,0.06400*%
%ADD21R,0.06000X0.06000*%
%ADD22C,0.06154*%
%ADD23R,0.07800X0.07800*%
%ADD24R,0.06154X0.06154*%
%ADD25R,0.05485X0.05485*%
%ADD26OC8,0.06154*%
%ADD27OC8,0.07800*%
%ADD28OC8,0.08674*%
%ADD29C,0.07800*%
D10*
X0043629Y0020537D03*
X0407379Y0020537D03*
X0407379Y0381787D03*
X0043629Y0381787D03*
D11*
X0262379Y0212412D03*
D12*
X0262379Y0260537D03*
X0252379Y0260537D03*
X0302379Y0260537D03*
X0312379Y0260537D03*
D13*
X0312379Y0255537D03*
X0322379Y0255537D03*
X0332379Y0255537D03*
X0352379Y0258037D03*
X0352379Y0268037D03*
X0372379Y0268037D03*
X0372379Y0258037D03*
X0332379Y0285537D03*
X0322379Y0285537D03*
X0312379Y0285537D03*
X0302379Y0285537D03*
X0292379Y0285537D03*
X0282379Y0285537D03*
X0272379Y0285537D03*
X0262379Y0285537D03*
X0252379Y0285537D03*
X0241129Y0285537D03*
X0241129Y0265537D03*
X0262379Y0255537D03*
X0272379Y0255537D03*
X0282379Y0255537D03*
X0292379Y0265537D03*
X0283629Y0231787D03*
X0272379Y0231787D03*
X0272379Y0221787D03*
X0272379Y0211787D03*
X0272379Y0201787D03*
X0272379Y0191787D03*
X0272379Y0181787D03*
X0272379Y0171787D03*
X0272379Y0161787D03*
X0272379Y0151787D03*
X0272379Y0141787D03*
X0272379Y0131787D03*
X0272379Y0121787D03*
X0272379Y0111787D03*
X0272379Y0101787D03*
X0272379Y0091787D03*
X0272379Y0081787D03*
X0212379Y0081787D03*
X0212379Y0091787D03*
X0212379Y0101787D03*
X0212379Y0111787D03*
X0212379Y0121787D03*
X0212379Y0131787D03*
X0212379Y0141787D03*
X0212379Y0151787D03*
X0212379Y0161787D03*
X0212379Y0171787D03*
X0212379Y0181787D03*
X0212379Y0191787D03*
X0212379Y0201787D03*
X0212379Y0211787D03*
X0212379Y0221787D03*
X0212379Y0231787D03*
X0162379Y0228037D03*
X0162379Y0238037D03*
X0162379Y0248037D03*
X0162379Y0258037D03*
X0162379Y0268037D03*
X0162379Y0278037D03*
X0102379Y0278037D03*
X0102379Y0268037D03*
X0102379Y0258037D03*
X0102379Y0248037D03*
X0102379Y0238037D03*
X0102379Y0228037D03*
X0102379Y0218037D03*
X0102379Y0208037D03*
X0102379Y0198037D03*
X0102379Y0188037D03*
X0102379Y0178037D03*
X0102379Y0168037D03*
X0102379Y0158037D03*
X0102379Y0148037D03*
X0102379Y0138037D03*
X0102379Y0128037D03*
X0102379Y0118037D03*
X0102379Y0108037D03*
X0102379Y0098037D03*
X0102379Y0088037D03*
X0095529Y0074935D03*
X0097411Y0064927D03*
X0107411Y0064927D03*
X0117411Y0064927D03*
X0127411Y0064927D03*
X0137411Y0064927D03*
X0147411Y0064927D03*
X0157411Y0064927D03*
X0169879Y0063037D03*
X0169879Y0043037D03*
X0157411Y0034927D03*
X0147411Y0034927D03*
X0137411Y0034927D03*
X0127411Y0034927D03*
X0117411Y0034927D03*
X0107411Y0034927D03*
X0097411Y0034927D03*
X0079879Y0035537D03*
X0068630Y0050537D03*
X0058630Y0050537D03*
X0054879Y0065537D03*
X0074879Y0065537D03*
X0079879Y0055537D03*
X0068630Y0080537D03*
X0058630Y0080537D03*
X0068004Y0095537D03*
X0068630Y0108037D03*
X0058630Y0108037D03*
X0068004Y0120537D03*
X0068630Y0135537D03*
X0058630Y0135537D03*
X0048004Y0120537D03*
X0048004Y0095537D03*
X0072379Y0148037D03*
X0072379Y0168037D03*
X0072379Y0178037D03*
X0072379Y0198037D03*
X0071129Y0228037D03*
X0071129Y0238037D03*
X0071129Y0248037D03*
X0071129Y0258037D03*
X0071129Y0268037D03*
X0071129Y0278037D03*
X0071129Y0288037D03*
X0051129Y0288037D03*
X0051129Y0278037D03*
X0051129Y0268037D03*
X0051129Y0258037D03*
X0051129Y0248037D03*
X0051129Y0238037D03*
X0051129Y0228037D03*
X0147379Y0168037D03*
X0162379Y0168037D03*
X0162379Y0158037D03*
X0162379Y0148037D03*
X0162379Y0138037D03*
X0162379Y0128037D03*
X0162379Y0118037D03*
X0162379Y0108037D03*
X0162379Y0098037D03*
X0162379Y0088037D03*
X0115529Y0074935D03*
X0184929Y0143397D03*
X0184929Y0163397D03*
X0162379Y0178037D03*
X0162379Y0188037D03*
X0162379Y0198037D03*
X0162379Y0208037D03*
X0162379Y0218037D03*
X0147379Y0148037D03*
X0303629Y0231787D03*
X0389879Y0308037D03*
X0389879Y0317412D03*
X0389879Y0326787D03*
X0389879Y0336162D03*
X0389879Y0345537D03*
X0409879Y0345537D03*
X0409879Y0336162D03*
X0409879Y0326787D03*
X0409879Y0317412D03*
X0409879Y0308037D03*
X0399879Y0360537D03*
X0389879Y0360537D03*
X0344879Y0365537D03*
X0344879Y0385537D03*
X0311129Y0151787D03*
X0311129Y0131787D03*
X0397379Y0131787D03*
X0397379Y0151787D03*
D14*
X0384879Y0151787D03*
X0384879Y0141787D03*
X0384879Y0131787D03*
X0384879Y0121787D03*
X0384879Y0111787D03*
X0384879Y0101787D03*
X0384879Y0091787D03*
X0384879Y0081787D03*
X0384879Y0071787D03*
X0384879Y0061787D03*
X0384879Y0051787D03*
X0324879Y0051787D03*
X0324879Y0061787D03*
X0324879Y0071787D03*
X0324879Y0081787D03*
X0324879Y0091787D03*
X0324879Y0101787D03*
X0324879Y0111787D03*
X0324879Y0121787D03*
X0324879Y0131787D03*
X0324879Y0141787D03*
X0324879Y0151787D03*
X0324879Y0161787D03*
X0324879Y0171787D03*
X0324879Y0181787D03*
X0324879Y0191787D03*
X0324879Y0201787D03*
X0324879Y0211787D03*
X0324879Y0221787D03*
X0324879Y0231787D03*
X0324879Y0241787D03*
X0384879Y0241787D03*
X0384879Y0231787D03*
X0384879Y0221787D03*
X0384879Y0211787D03*
X0384879Y0201787D03*
X0384879Y0191787D03*
X0384879Y0181787D03*
X0393433Y0177780D03*
X0384879Y0171787D03*
X0384879Y0161787D03*
X0393746Y0165276D03*
X0207379Y0241787D03*
X0172379Y0238037D03*
X0172379Y0228037D03*
X0172379Y0218037D03*
X0172379Y0208037D03*
X0172379Y0198037D03*
X0172379Y0188037D03*
X0172379Y0178037D03*
X0172379Y0168037D03*
X0172379Y0158037D03*
X0172379Y0148037D03*
X0172379Y0138037D03*
X0172379Y0128037D03*
X0172379Y0118037D03*
X0172379Y0108037D03*
X0172379Y0098037D03*
X0172379Y0088037D03*
X0092379Y0088037D03*
X0092379Y0098037D03*
X0092379Y0108037D03*
X0092379Y0118037D03*
X0092379Y0128037D03*
X0092379Y0138037D03*
X0092379Y0148037D03*
X0092379Y0158037D03*
X0092379Y0168037D03*
X0092379Y0178037D03*
X0092379Y0188037D03*
X0092379Y0198037D03*
X0092379Y0208037D03*
X0092379Y0218037D03*
X0092379Y0228037D03*
X0092379Y0238037D03*
X0092379Y0248037D03*
X0092379Y0258037D03*
X0092379Y0268037D03*
X0092379Y0278037D03*
X0172379Y0278037D03*
X0172379Y0268037D03*
X0172379Y0258037D03*
X0172379Y0248037D03*
X0257440Y0360651D03*
X0271832Y0366903D03*
D15*
X0262379Y0378663D03*
X0252379Y0378663D03*
X0242379Y0378663D03*
X0232379Y0378663D03*
X0222379Y0378663D03*
X0354584Y0386896D03*
X0354584Y0369179D03*
X0367379Y0361896D03*
X0380174Y0369179D03*
X0380174Y0386896D03*
X0391021Y0297083D03*
X0383737Y0284287D03*
X0391021Y0271492D03*
X0408737Y0271492D03*
X0408737Y0297083D03*
X0046129Y0160537D03*
X0046129Y0150537D03*
D16*
X0282379Y0378037D03*
X0292379Y0378037D03*
X0302379Y0378037D03*
X0312379Y0378037D03*
X0322379Y0378037D03*
X0332379Y0378037D03*
D17*
X0296328Y0223037D03*
X0285304Y0223037D03*
D18*
X0369988Y0141091D03*
X0369988Y0130067D03*
X0209254Y0066674D03*
X0209254Y0055651D03*
X0131441Y0159401D03*
X0131441Y0170424D03*
X0081129Y0179713D03*
X0081129Y0190737D03*
D19*
X0052385Y0193097D03*
X0042385Y0193097D03*
X0292465Y0210603D03*
X0302465Y0210603D03*
X0400000Y0094316D03*
X0410000Y0094316D03*
D20*
X0201370Y0026794D03*
X0193496Y0026794D03*
D21*
X0252379Y0255537D03*
X0302379Y0255537D03*
D22*
X0277927Y0269746D03*
X0328004Y0269600D03*
X0400754Y0171784D03*
X0147379Y0177725D03*
X0147379Y0158037D03*
X0044879Y0334287D03*
D23*
X0212379Y0329287D03*
X0212379Y0339287D03*
X0212379Y0349287D03*
X0212379Y0359287D03*
X0212379Y0309287D03*
X0212379Y0299287D03*
D24*
X0212379Y0388037D03*
X0177066Y0388037D03*
X0147066Y0388037D03*
X0117379Y0388037D03*
X0087066Y0388037D03*
X0037379Y0347725D03*
X0037691Y0308662D03*
X0057066Y0298975D03*
X0274566Y0388037D03*
X0381129Y0303662D03*
D25*
X0316129Y0269287D03*
X0309879Y0269287D03*
X0267379Y0269287D03*
X0261129Y0269287D03*
D26*
X0227066Y0288037D03*
X0337066Y0339287D03*
D27*
X0202379Y0339287D03*
X0192379Y0339287D03*
X0182379Y0339287D03*
X0172379Y0339287D03*
X0162379Y0339287D03*
X0152379Y0339287D03*
X0142379Y0339287D03*
X0132379Y0339287D03*
X0122379Y0339287D03*
X0112379Y0339287D03*
X0102379Y0339287D03*
X0092379Y0339287D03*
X0082379Y0339287D03*
X0072379Y0339287D03*
X0062379Y0339287D03*
X0052379Y0339287D03*
X0052379Y0349287D03*
X0062379Y0349287D03*
X0072379Y0349287D03*
X0082379Y0349287D03*
X0092379Y0349287D03*
X0102379Y0349287D03*
X0112379Y0349287D03*
X0122379Y0349287D03*
X0132379Y0349287D03*
X0142379Y0349287D03*
X0152379Y0349287D03*
X0162379Y0349287D03*
X0172379Y0349287D03*
X0182379Y0349287D03*
X0192379Y0349287D03*
X0202379Y0349287D03*
X0062379Y0359287D03*
X0062379Y0329287D03*
X0062379Y0319287D03*
X0052379Y0319287D03*
X0052379Y0329287D03*
X0052379Y0309287D03*
X0062379Y0309287D03*
D28*
X0222379Y0309287D03*
X0232379Y0309287D03*
X0232379Y0299287D03*
X0222379Y0299287D03*
X0242379Y0299287D03*
X0252379Y0299287D03*
X0262379Y0299287D03*
X0272379Y0299287D03*
X0282379Y0299287D03*
X0292379Y0299287D03*
X0302379Y0299287D03*
X0312379Y0299287D03*
X0322379Y0299287D03*
X0322379Y0309287D03*
X0312379Y0309287D03*
X0302379Y0309287D03*
X0292379Y0309287D03*
X0282379Y0309287D03*
X0272379Y0309287D03*
X0262379Y0309287D03*
X0252379Y0309287D03*
X0242379Y0309287D03*
X0242379Y0319158D03*
X0242379Y0329158D03*
X0242379Y0339158D03*
X0252379Y0339287D03*
X0262379Y0339287D03*
X0262379Y0349287D03*
X0252379Y0349287D03*
X0242379Y0349158D03*
X0232379Y0349287D03*
X0222379Y0349287D03*
X0222379Y0339287D03*
X0232379Y0339287D03*
X0232379Y0329287D03*
X0222379Y0329287D03*
X0222379Y0319287D03*
X0232379Y0319287D03*
X0252379Y0319287D03*
X0262379Y0319287D03*
X0262379Y0329287D03*
X0252379Y0329287D03*
X0272379Y0329158D03*
X0272379Y0339158D03*
X0282379Y0339287D03*
X0292379Y0339287D03*
X0302379Y0339158D03*
X0302379Y0329158D03*
X0292379Y0329287D03*
X0292379Y0319287D03*
X0302379Y0319158D03*
X0312379Y0319287D03*
X0312379Y0329287D03*
X0322379Y0329158D03*
X0322379Y0339158D03*
X0312379Y0339287D03*
X0312379Y0349287D03*
X0322379Y0349158D03*
X0302379Y0349158D03*
X0292379Y0349287D03*
X0282379Y0349287D03*
X0272379Y0349158D03*
X0282379Y0329287D03*
X0282379Y0319287D03*
X0272379Y0319158D03*
X0322379Y0319158D03*
X0332379Y0319444D03*
X0332379Y0329444D03*
X0342379Y0329444D03*
X0342379Y0319444D03*
X0342379Y0309444D03*
X0332379Y0309444D03*
X0332379Y0299444D03*
X0342379Y0299444D03*
D29*
X0202066Y0309287D03*
X0192066Y0309287D03*
X0182066Y0309287D03*
X0172066Y0309287D03*
X0162066Y0309287D03*
X0152066Y0309287D03*
X0142066Y0309287D03*
X0132066Y0309287D03*
X0122066Y0309287D03*
X0112066Y0309287D03*
X0102066Y0309287D03*
X0092066Y0309287D03*
X0082066Y0309287D03*
X0072066Y0309287D03*
X0072066Y0319287D03*
X0082066Y0319287D03*
X0092066Y0319287D03*
X0102066Y0319287D03*
X0112066Y0319287D03*
X0122066Y0319287D03*
X0132066Y0319287D03*
X0142066Y0319287D03*
X0152066Y0319287D03*
X0162066Y0319287D03*
X0172066Y0319287D03*
X0182066Y0319287D03*
X0192066Y0319287D03*
X0202066Y0319287D03*
X0202066Y0329287D03*
X0192066Y0329287D03*
X0182066Y0329287D03*
X0172066Y0329287D03*
X0162066Y0329287D03*
X0152066Y0329287D03*
X0142066Y0329287D03*
X0132066Y0329287D03*
X0122066Y0329287D03*
X0112066Y0329287D03*
X0102066Y0329287D03*
X0092066Y0329287D03*
X0082066Y0329287D03*
X0072066Y0329287D03*
X0072066Y0359287D03*
X0082066Y0359287D03*
X0092066Y0359287D03*
X0102066Y0359287D03*
X0112066Y0359287D03*
X0122066Y0359287D03*
X0132066Y0359287D03*
X0142066Y0359287D03*
X0152066Y0359287D03*
X0162066Y0359287D03*
X0172066Y0359287D03*
X0182066Y0359287D03*
X0192066Y0359287D03*
X0202066Y0359287D03*
X0202066Y0369287D03*
X0192066Y0369287D03*
X0182066Y0369287D03*
X0172066Y0369287D03*
X0162066Y0369287D03*
X0152066Y0369287D03*
X0142066Y0369287D03*
X0132066Y0369287D03*
X0122066Y0369287D03*
X0112066Y0369287D03*
X0102066Y0369287D03*
X0092066Y0369287D03*
X0082066Y0369287D03*
X0072066Y0369287D03*
X0072066Y0379287D03*
X0082066Y0379287D03*
X0092066Y0379287D03*
X0102066Y0379287D03*
X0112066Y0379287D03*
X0122066Y0379287D03*
X0132066Y0379287D03*
X0142066Y0379287D03*
X0152066Y0379287D03*
X0162066Y0379287D03*
X0172066Y0379287D03*
X0182066Y0379287D03*
X0192066Y0379287D03*
X0202066Y0379287D03*
M02*
