G75*
%MOIN*%
%OFA0B0*%
%FSLAX25Y25*%
%IPPOS*%
%LPD*%
%AMOC8*
5,1,8,0,0,1.08239X$1,22.5*
%
%ADD10C,0.00000*%
%ADD11C,0.00800*%
%ADD12C,0.01100*%
%ADD13C,0.01000*%
%ADD14C,0.00700*%
%ADD15C,0.01575*%
%ADD16C,0.00600*%
%ADD17R,0.05002X0.07502*%
%ADD18R,0.07502X0.05002*%
%ADD19C,0.02362*%
D10*
X0029879Y0005537D02*
X0029879Y0397988D01*
X0422300Y0397988D01*
X0422300Y0005537D01*
X0029879Y0005537D01*
X0037330Y0020537D02*
X0037332Y0020695D01*
X0037338Y0020853D01*
X0037348Y0021011D01*
X0037362Y0021169D01*
X0037380Y0021326D01*
X0037401Y0021483D01*
X0037427Y0021639D01*
X0037457Y0021795D01*
X0037490Y0021950D01*
X0037528Y0022103D01*
X0037569Y0022256D01*
X0037614Y0022408D01*
X0037663Y0022559D01*
X0037716Y0022708D01*
X0037772Y0022856D01*
X0037832Y0023002D01*
X0037896Y0023147D01*
X0037964Y0023290D01*
X0038035Y0023432D01*
X0038109Y0023572D01*
X0038187Y0023709D01*
X0038269Y0023845D01*
X0038353Y0023979D01*
X0038442Y0024110D01*
X0038533Y0024239D01*
X0038628Y0024366D01*
X0038725Y0024491D01*
X0038826Y0024613D01*
X0038930Y0024732D01*
X0039037Y0024849D01*
X0039147Y0024963D01*
X0039260Y0025074D01*
X0039375Y0025183D01*
X0039493Y0025288D01*
X0039614Y0025390D01*
X0039737Y0025490D01*
X0039863Y0025586D01*
X0039991Y0025679D01*
X0040121Y0025769D01*
X0040254Y0025855D01*
X0040389Y0025939D01*
X0040525Y0026018D01*
X0040664Y0026095D01*
X0040805Y0026167D01*
X0040947Y0026237D01*
X0041091Y0026302D01*
X0041237Y0026364D01*
X0041384Y0026422D01*
X0041533Y0026477D01*
X0041683Y0026528D01*
X0041834Y0026575D01*
X0041986Y0026618D01*
X0042139Y0026657D01*
X0042294Y0026693D01*
X0042449Y0026724D01*
X0042605Y0026752D01*
X0042761Y0026776D01*
X0042918Y0026796D01*
X0043076Y0026812D01*
X0043233Y0026824D01*
X0043392Y0026832D01*
X0043550Y0026836D01*
X0043708Y0026836D01*
X0043866Y0026832D01*
X0044025Y0026824D01*
X0044182Y0026812D01*
X0044340Y0026796D01*
X0044497Y0026776D01*
X0044653Y0026752D01*
X0044809Y0026724D01*
X0044964Y0026693D01*
X0045119Y0026657D01*
X0045272Y0026618D01*
X0045424Y0026575D01*
X0045575Y0026528D01*
X0045725Y0026477D01*
X0045874Y0026422D01*
X0046021Y0026364D01*
X0046167Y0026302D01*
X0046311Y0026237D01*
X0046453Y0026167D01*
X0046594Y0026095D01*
X0046733Y0026018D01*
X0046869Y0025939D01*
X0047004Y0025855D01*
X0047137Y0025769D01*
X0047267Y0025679D01*
X0047395Y0025586D01*
X0047521Y0025490D01*
X0047644Y0025390D01*
X0047765Y0025288D01*
X0047883Y0025183D01*
X0047998Y0025074D01*
X0048111Y0024963D01*
X0048221Y0024849D01*
X0048328Y0024732D01*
X0048432Y0024613D01*
X0048533Y0024491D01*
X0048630Y0024366D01*
X0048725Y0024239D01*
X0048816Y0024110D01*
X0048905Y0023979D01*
X0048989Y0023845D01*
X0049071Y0023709D01*
X0049149Y0023572D01*
X0049223Y0023432D01*
X0049294Y0023290D01*
X0049362Y0023147D01*
X0049426Y0023002D01*
X0049486Y0022856D01*
X0049542Y0022708D01*
X0049595Y0022559D01*
X0049644Y0022408D01*
X0049689Y0022256D01*
X0049730Y0022103D01*
X0049768Y0021950D01*
X0049801Y0021795D01*
X0049831Y0021639D01*
X0049857Y0021483D01*
X0049878Y0021326D01*
X0049896Y0021169D01*
X0049910Y0021011D01*
X0049920Y0020853D01*
X0049926Y0020695D01*
X0049928Y0020537D01*
X0049926Y0020379D01*
X0049920Y0020221D01*
X0049910Y0020063D01*
X0049896Y0019905D01*
X0049878Y0019748D01*
X0049857Y0019591D01*
X0049831Y0019435D01*
X0049801Y0019279D01*
X0049768Y0019124D01*
X0049730Y0018971D01*
X0049689Y0018818D01*
X0049644Y0018666D01*
X0049595Y0018515D01*
X0049542Y0018366D01*
X0049486Y0018218D01*
X0049426Y0018072D01*
X0049362Y0017927D01*
X0049294Y0017784D01*
X0049223Y0017642D01*
X0049149Y0017502D01*
X0049071Y0017365D01*
X0048989Y0017229D01*
X0048905Y0017095D01*
X0048816Y0016964D01*
X0048725Y0016835D01*
X0048630Y0016708D01*
X0048533Y0016583D01*
X0048432Y0016461D01*
X0048328Y0016342D01*
X0048221Y0016225D01*
X0048111Y0016111D01*
X0047998Y0016000D01*
X0047883Y0015891D01*
X0047765Y0015786D01*
X0047644Y0015684D01*
X0047521Y0015584D01*
X0047395Y0015488D01*
X0047267Y0015395D01*
X0047137Y0015305D01*
X0047004Y0015219D01*
X0046869Y0015135D01*
X0046733Y0015056D01*
X0046594Y0014979D01*
X0046453Y0014907D01*
X0046311Y0014837D01*
X0046167Y0014772D01*
X0046021Y0014710D01*
X0045874Y0014652D01*
X0045725Y0014597D01*
X0045575Y0014546D01*
X0045424Y0014499D01*
X0045272Y0014456D01*
X0045119Y0014417D01*
X0044964Y0014381D01*
X0044809Y0014350D01*
X0044653Y0014322D01*
X0044497Y0014298D01*
X0044340Y0014278D01*
X0044182Y0014262D01*
X0044025Y0014250D01*
X0043866Y0014242D01*
X0043708Y0014238D01*
X0043550Y0014238D01*
X0043392Y0014242D01*
X0043233Y0014250D01*
X0043076Y0014262D01*
X0042918Y0014278D01*
X0042761Y0014298D01*
X0042605Y0014322D01*
X0042449Y0014350D01*
X0042294Y0014381D01*
X0042139Y0014417D01*
X0041986Y0014456D01*
X0041834Y0014499D01*
X0041683Y0014546D01*
X0041533Y0014597D01*
X0041384Y0014652D01*
X0041237Y0014710D01*
X0041091Y0014772D01*
X0040947Y0014837D01*
X0040805Y0014907D01*
X0040664Y0014979D01*
X0040525Y0015056D01*
X0040389Y0015135D01*
X0040254Y0015219D01*
X0040121Y0015305D01*
X0039991Y0015395D01*
X0039863Y0015488D01*
X0039737Y0015584D01*
X0039614Y0015684D01*
X0039493Y0015786D01*
X0039375Y0015891D01*
X0039260Y0016000D01*
X0039147Y0016111D01*
X0039037Y0016225D01*
X0038930Y0016342D01*
X0038826Y0016461D01*
X0038725Y0016583D01*
X0038628Y0016708D01*
X0038533Y0016835D01*
X0038442Y0016964D01*
X0038353Y0017095D01*
X0038269Y0017229D01*
X0038187Y0017365D01*
X0038109Y0017502D01*
X0038035Y0017642D01*
X0037964Y0017784D01*
X0037896Y0017927D01*
X0037832Y0018072D01*
X0037772Y0018218D01*
X0037716Y0018366D01*
X0037663Y0018515D01*
X0037614Y0018666D01*
X0037569Y0018818D01*
X0037528Y0018971D01*
X0037490Y0019124D01*
X0037457Y0019279D01*
X0037427Y0019435D01*
X0037401Y0019591D01*
X0037380Y0019748D01*
X0037362Y0019905D01*
X0037348Y0020063D01*
X0037338Y0020221D01*
X0037332Y0020379D01*
X0037330Y0020537D01*
X0401080Y0020537D02*
X0401082Y0020695D01*
X0401088Y0020853D01*
X0401098Y0021011D01*
X0401112Y0021169D01*
X0401130Y0021326D01*
X0401151Y0021483D01*
X0401177Y0021639D01*
X0401207Y0021795D01*
X0401240Y0021950D01*
X0401278Y0022103D01*
X0401319Y0022256D01*
X0401364Y0022408D01*
X0401413Y0022559D01*
X0401466Y0022708D01*
X0401522Y0022856D01*
X0401582Y0023002D01*
X0401646Y0023147D01*
X0401714Y0023290D01*
X0401785Y0023432D01*
X0401859Y0023572D01*
X0401937Y0023709D01*
X0402019Y0023845D01*
X0402103Y0023979D01*
X0402192Y0024110D01*
X0402283Y0024239D01*
X0402378Y0024366D01*
X0402475Y0024491D01*
X0402576Y0024613D01*
X0402680Y0024732D01*
X0402787Y0024849D01*
X0402897Y0024963D01*
X0403010Y0025074D01*
X0403125Y0025183D01*
X0403243Y0025288D01*
X0403364Y0025390D01*
X0403487Y0025490D01*
X0403613Y0025586D01*
X0403741Y0025679D01*
X0403871Y0025769D01*
X0404004Y0025855D01*
X0404139Y0025939D01*
X0404275Y0026018D01*
X0404414Y0026095D01*
X0404555Y0026167D01*
X0404697Y0026237D01*
X0404841Y0026302D01*
X0404987Y0026364D01*
X0405134Y0026422D01*
X0405283Y0026477D01*
X0405433Y0026528D01*
X0405584Y0026575D01*
X0405736Y0026618D01*
X0405889Y0026657D01*
X0406044Y0026693D01*
X0406199Y0026724D01*
X0406355Y0026752D01*
X0406511Y0026776D01*
X0406668Y0026796D01*
X0406826Y0026812D01*
X0406983Y0026824D01*
X0407142Y0026832D01*
X0407300Y0026836D01*
X0407458Y0026836D01*
X0407616Y0026832D01*
X0407775Y0026824D01*
X0407932Y0026812D01*
X0408090Y0026796D01*
X0408247Y0026776D01*
X0408403Y0026752D01*
X0408559Y0026724D01*
X0408714Y0026693D01*
X0408869Y0026657D01*
X0409022Y0026618D01*
X0409174Y0026575D01*
X0409325Y0026528D01*
X0409475Y0026477D01*
X0409624Y0026422D01*
X0409771Y0026364D01*
X0409917Y0026302D01*
X0410061Y0026237D01*
X0410203Y0026167D01*
X0410344Y0026095D01*
X0410483Y0026018D01*
X0410619Y0025939D01*
X0410754Y0025855D01*
X0410887Y0025769D01*
X0411017Y0025679D01*
X0411145Y0025586D01*
X0411271Y0025490D01*
X0411394Y0025390D01*
X0411515Y0025288D01*
X0411633Y0025183D01*
X0411748Y0025074D01*
X0411861Y0024963D01*
X0411971Y0024849D01*
X0412078Y0024732D01*
X0412182Y0024613D01*
X0412283Y0024491D01*
X0412380Y0024366D01*
X0412475Y0024239D01*
X0412566Y0024110D01*
X0412655Y0023979D01*
X0412739Y0023845D01*
X0412821Y0023709D01*
X0412899Y0023572D01*
X0412973Y0023432D01*
X0413044Y0023290D01*
X0413112Y0023147D01*
X0413176Y0023002D01*
X0413236Y0022856D01*
X0413292Y0022708D01*
X0413345Y0022559D01*
X0413394Y0022408D01*
X0413439Y0022256D01*
X0413480Y0022103D01*
X0413518Y0021950D01*
X0413551Y0021795D01*
X0413581Y0021639D01*
X0413607Y0021483D01*
X0413628Y0021326D01*
X0413646Y0021169D01*
X0413660Y0021011D01*
X0413670Y0020853D01*
X0413676Y0020695D01*
X0413678Y0020537D01*
X0413676Y0020379D01*
X0413670Y0020221D01*
X0413660Y0020063D01*
X0413646Y0019905D01*
X0413628Y0019748D01*
X0413607Y0019591D01*
X0413581Y0019435D01*
X0413551Y0019279D01*
X0413518Y0019124D01*
X0413480Y0018971D01*
X0413439Y0018818D01*
X0413394Y0018666D01*
X0413345Y0018515D01*
X0413292Y0018366D01*
X0413236Y0018218D01*
X0413176Y0018072D01*
X0413112Y0017927D01*
X0413044Y0017784D01*
X0412973Y0017642D01*
X0412899Y0017502D01*
X0412821Y0017365D01*
X0412739Y0017229D01*
X0412655Y0017095D01*
X0412566Y0016964D01*
X0412475Y0016835D01*
X0412380Y0016708D01*
X0412283Y0016583D01*
X0412182Y0016461D01*
X0412078Y0016342D01*
X0411971Y0016225D01*
X0411861Y0016111D01*
X0411748Y0016000D01*
X0411633Y0015891D01*
X0411515Y0015786D01*
X0411394Y0015684D01*
X0411271Y0015584D01*
X0411145Y0015488D01*
X0411017Y0015395D01*
X0410887Y0015305D01*
X0410754Y0015219D01*
X0410619Y0015135D01*
X0410483Y0015056D01*
X0410344Y0014979D01*
X0410203Y0014907D01*
X0410061Y0014837D01*
X0409917Y0014772D01*
X0409771Y0014710D01*
X0409624Y0014652D01*
X0409475Y0014597D01*
X0409325Y0014546D01*
X0409174Y0014499D01*
X0409022Y0014456D01*
X0408869Y0014417D01*
X0408714Y0014381D01*
X0408559Y0014350D01*
X0408403Y0014322D01*
X0408247Y0014298D01*
X0408090Y0014278D01*
X0407932Y0014262D01*
X0407775Y0014250D01*
X0407616Y0014242D01*
X0407458Y0014238D01*
X0407300Y0014238D01*
X0407142Y0014242D01*
X0406983Y0014250D01*
X0406826Y0014262D01*
X0406668Y0014278D01*
X0406511Y0014298D01*
X0406355Y0014322D01*
X0406199Y0014350D01*
X0406044Y0014381D01*
X0405889Y0014417D01*
X0405736Y0014456D01*
X0405584Y0014499D01*
X0405433Y0014546D01*
X0405283Y0014597D01*
X0405134Y0014652D01*
X0404987Y0014710D01*
X0404841Y0014772D01*
X0404697Y0014837D01*
X0404555Y0014907D01*
X0404414Y0014979D01*
X0404275Y0015056D01*
X0404139Y0015135D01*
X0404004Y0015219D01*
X0403871Y0015305D01*
X0403741Y0015395D01*
X0403613Y0015488D01*
X0403487Y0015584D01*
X0403364Y0015684D01*
X0403243Y0015786D01*
X0403125Y0015891D01*
X0403010Y0016000D01*
X0402897Y0016111D01*
X0402787Y0016225D01*
X0402680Y0016342D01*
X0402576Y0016461D01*
X0402475Y0016583D01*
X0402378Y0016708D01*
X0402283Y0016835D01*
X0402192Y0016964D01*
X0402103Y0017095D01*
X0402019Y0017229D01*
X0401937Y0017365D01*
X0401859Y0017502D01*
X0401785Y0017642D01*
X0401714Y0017784D01*
X0401646Y0017927D01*
X0401582Y0018072D01*
X0401522Y0018218D01*
X0401466Y0018366D01*
X0401413Y0018515D01*
X0401364Y0018666D01*
X0401319Y0018818D01*
X0401278Y0018971D01*
X0401240Y0019124D01*
X0401207Y0019279D01*
X0401177Y0019435D01*
X0401151Y0019591D01*
X0401130Y0019748D01*
X0401112Y0019905D01*
X0401098Y0020063D01*
X0401088Y0020221D01*
X0401082Y0020379D01*
X0401080Y0020537D01*
X0401080Y0381787D02*
X0401082Y0381945D01*
X0401088Y0382103D01*
X0401098Y0382261D01*
X0401112Y0382419D01*
X0401130Y0382576D01*
X0401151Y0382733D01*
X0401177Y0382889D01*
X0401207Y0383045D01*
X0401240Y0383200D01*
X0401278Y0383353D01*
X0401319Y0383506D01*
X0401364Y0383658D01*
X0401413Y0383809D01*
X0401466Y0383958D01*
X0401522Y0384106D01*
X0401582Y0384252D01*
X0401646Y0384397D01*
X0401714Y0384540D01*
X0401785Y0384682D01*
X0401859Y0384822D01*
X0401937Y0384959D01*
X0402019Y0385095D01*
X0402103Y0385229D01*
X0402192Y0385360D01*
X0402283Y0385489D01*
X0402378Y0385616D01*
X0402475Y0385741D01*
X0402576Y0385863D01*
X0402680Y0385982D01*
X0402787Y0386099D01*
X0402897Y0386213D01*
X0403010Y0386324D01*
X0403125Y0386433D01*
X0403243Y0386538D01*
X0403364Y0386640D01*
X0403487Y0386740D01*
X0403613Y0386836D01*
X0403741Y0386929D01*
X0403871Y0387019D01*
X0404004Y0387105D01*
X0404139Y0387189D01*
X0404275Y0387268D01*
X0404414Y0387345D01*
X0404555Y0387417D01*
X0404697Y0387487D01*
X0404841Y0387552D01*
X0404987Y0387614D01*
X0405134Y0387672D01*
X0405283Y0387727D01*
X0405433Y0387778D01*
X0405584Y0387825D01*
X0405736Y0387868D01*
X0405889Y0387907D01*
X0406044Y0387943D01*
X0406199Y0387974D01*
X0406355Y0388002D01*
X0406511Y0388026D01*
X0406668Y0388046D01*
X0406826Y0388062D01*
X0406983Y0388074D01*
X0407142Y0388082D01*
X0407300Y0388086D01*
X0407458Y0388086D01*
X0407616Y0388082D01*
X0407775Y0388074D01*
X0407932Y0388062D01*
X0408090Y0388046D01*
X0408247Y0388026D01*
X0408403Y0388002D01*
X0408559Y0387974D01*
X0408714Y0387943D01*
X0408869Y0387907D01*
X0409022Y0387868D01*
X0409174Y0387825D01*
X0409325Y0387778D01*
X0409475Y0387727D01*
X0409624Y0387672D01*
X0409771Y0387614D01*
X0409917Y0387552D01*
X0410061Y0387487D01*
X0410203Y0387417D01*
X0410344Y0387345D01*
X0410483Y0387268D01*
X0410619Y0387189D01*
X0410754Y0387105D01*
X0410887Y0387019D01*
X0411017Y0386929D01*
X0411145Y0386836D01*
X0411271Y0386740D01*
X0411394Y0386640D01*
X0411515Y0386538D01*
X0411633Y0386433D01*
X0411748Y0386324D01*
X0411861Y0386213D01*
X0411971Y0386099D01*
X0412078Y0385982D01*
X0412182Y0385863D01*
X0412283Y0385741D01*
X0412380Y0385616D01*
X0412475Y0385489D01*
X0412566Y0385360D01*
X0412655Y0385229D01*
X0412739Y0385095D01*
X0412821Y0384959D01*
X0412899Y0384822D01*
X0412973Y0384682D01*
X0413044Y0384540D01*
X0413112Y0384397D01*
X0413176Y0384252D01*
X0413236Y0384106D01*
X0413292Y0383958D01*
X0413345Y0383809D01*
X0413394Y0383658D01*
X0413439Y0383506D01*
X0413480Y0383353D01*
X0413518Y0383200D01*
X0413551Y0383045D01*
X0413581Y0382889D01*
X0413607Y0382733D01*
X0413628Y0382576D01*
X0413646Y0382419D01*
X0413660Y0382261D01*
X0413670Y0382103D01*
X0413676Y0381945D01*
X0413678Y0381787D01*
X0413676Y0381629D01*
X0413670Y0381471D01*
X0413660Y0381313D01*
X0413646Y0381155D01*
X0413628Y0380998D01*
X0413607Y0380841D01*
X0413581Y0380685D01*
X0413551Y0380529D01*
X0413518Y0380374D01*
X0413480Y0380221D01*
X0413439Y0380068D01*
X0413394Y0379916D01*
X0413345Y0379765D01*
X0413292Y0379616D01*
X0413236Y0379468D01*
X0413176Y0379322D01*
X0413112Y0379177D01*
X0413044Y0379034D01*
X0412973Y0378892D01*
X0412899Y0378752D01*
X0412821Y0378615D01*
X0412739Y0378479D01*
X0412655Y0378345D01*
X0412566Y0378214D01*
X0412475Y0378085D01*
X0412380Y0377958D01*
X0412283Y0377833D01*
X0412182Y0377711D01*
X0412078Y0377592D01*
X0411971Y0377475D01*
X0411861Y0377361D01*
X0411748Y0377250D01*
X0411633Y0377141D01*
X0411515Y0377036D01*
X0411394Y0376934D01*
X0411271Y0376834D01*
X0411145Y0376738D01*
X0411017Y0376645D01*
X0410887Y0376555D01*
X0410754Y0376469D01*
X0410619Y0376385D01*
X0410483Y0376306D01*
X0410344Y0376229D01*
X0410203Y0376157D01*
X0410061Y0376087D01*
X0409917Y0376022D01*
X0409771Y0375960D01*
X0409624Y0375902D01*
X0409475Y0375847D01*
X0409325Y0375796D01*
X0409174Y0375749D01*
X0409022Y0375706D01*
X0408869Y0375667D01*
X0408714Y0375631D01*
X0408559Y0375600D01*
X0408403Y0375572D01*
X0408247Y0375548D01*
X0408090Y0375528D01*
X0407932Y0375512D01*
X0407775Y0375500D01*
X0407616Y0375492D01*
X0407458Y0375488D01*
X0407300Y0375488D01*
X0407142Y0375492D01*
X0406983Y0375500D01*
X0406826Y0375512D01*
X0406668Y0375528D01*
X0406511Y0375548D01*
X0406355Y0375572D01*
X0406199Y0375600D01*
X0406044Y0375631D01*
X0405889Y0375667D01*
X0405736Y0375706D01*
X0405584Y0375749D01*
X0405433Y0375796D01*
X0405283Y0375847D01*
X0405134Y0375902D01*
X0404987Y0375960D01*
X0404841Y0376022D01*
X0404697Y0376087D01*
X0404555Y0376157D01*
X0404414Y0376229D01*
X0404275Y0376306D01*
X0404139Y0376385D01*
X0404004Y0376469D01*
X0403871Y0376555D01*
X0403741Y0376645D01*
X0403613Y0376738D01*
X0403487Y0376834D01*
X0403364Y0376934D01*
X0403243Y0377036D01*
X0403125Y0377141D01*
X0403010Y0377250D01*
X0402897Y0377361D01*
X0402787Y0377475D01*
X0402680Y0377592D01*
X0402576Y0377711D01*
X0402475Y0377833D01*
X0402378Y0377958D01*
X0402283Y0378085D01*
X0402192Y0378214D01*
X0402103Y0378345D01*
X0402019Y0378479D01*
X0401937Y0378615D01*
X0401859Y0378752D01*
X0401785Y0378892D01*
X0401714Y0379034D01*
X0401646Y0379177D01*
X0401582Y0379322D01*
X0401522Y0379468D01*
X0401466Y0379616D01*
X0401413Y0379765D01*
X0401364Y0379916D01*
X0401319Y0380068D01*
X0401278Y0380221D01*
X0401240Y0380374D01*
X0401207Y0380529D01*
X0401177Y0380685D01*
X0401151Y0380841D01*
X0401130Y0380998D01*
X0401112Y0381155D01*
X0401098Y0381313D01*
X0401088Y0381471D01*
X0401082Y0381629D01*
X0401080Y0381787D01*
X0037330Y0381787D02*
X0037332Y0381945D01*
X0037338Y0382103D01*
X0037348Y0382261D01*
X0037362Y0382419D01*
X0037380Y0382576D01*
X0037401Y0382733D01*
X0037427Y0382889D01*
X0037457Y0383045D01*
X0037490Y0383200D01*
X0037528Y0383353D01*
X0037569Y0383506D01*
X0037614Y0383658D01*
X0037663Y0383809D01*
X0037716Y0383958D01*
X0037772Y0384106D01*
X0037832Y0384252D01*
X0037896Y0384397D01*
X0037964Y0384540D01*
X0038035Y0384682D01*
X0038109Y0384822D01*
X0038187Y0384959D01*
X0038269Y0385095D01*
X0038353Y0385229D01*
X0038442Y0385360D01*
X0038533Y0385489D01*
X0038628Y0385616D01*
X0038725Y0385741D01*
X0038826Y0385863D01*
X0038930Y0385982D01*
X0039037Y0386099D01*
X0039147Y0386213D01*
X0039260Y0386324D01*
X0039375Y0386433D01*
X0039493Y0386538D01*
X0039614Y0386640D01*
X0039737Y0386740D01*
X0039863Y0386836D01*
X0039991Y0386929D01*
X0040121Y0387019D01*
X0040254Y0387105D01*
X0040389Y0387189D01*
X0040525Y0387268D01*
X0040664Y0387345D01*
X0040805Y0387417D01*
X0040947Y0387487D01*
X0041091Y0387552D01*
X0041237Y0387614D01*
X0041384Y0387672D01*
X0041533Y0387727D01*
X0041683Y0387778D01*
X0041834Y0387825D01*
X0041986Y0387868D01*
X0042139Y0387907D01*
X0042294Y0387943D01*
X0042449Y0387974D01*
X0042605Y0388002D01*
X0042761Y0388026D01*
X0042918Y0388046D01*
X0043076Y0388062D01*
X0043233Y0388074D01*
X0043392Y0388082D01*
X0043550Y0388086D01*
X0043708Y0388086D01*
X0043866Y0388082D01*
X0044025Y0388074D01*
X0044182Y0388062D01*
X0044340Y0388046D01*
X0044497Y0388026D01*
X0044653Y0388002D01*
X0044809Y0387974D01*
X0044964Y0387943D01*
X0045119Y0387907D01*
X0045272Y0387868D01*
X0045424Y0387825D01*
X0045575Y0387778D01*
X0045725Y0387727D01*
X0045874Y0387672D01*
X0046021Y0387614D01*
X0046167Y0387552D01*
X0046311Y0387487D01*
X0046453Y0387417D01*
X0046594Y0387345D01*
X0046733Y0387268D01*
X0046869Y0387189D01*
X0047004Y0387105D01*
X0047137Y0387019D01*
X0047267Y0386929D01*
X0047395Y0386836D01*
X0047521Y0386740D01*
X0047644Y0386640D01*
X0047765Y0386538D01*
X0047883Y0386433D01*
X0047998Y0386324D01*
X0048111Y0386213D01*
X0048221Y0386099D01*
X0048328Y0385982D01*
X0048432Y0385863D01*
X0048533Y0385741D01*
X0048630Y0385616D01*
X0048725Y0385489D01*
X0048816Y0385360D01*
X0048905Y0385229D01*
X0048989Y0385095D01*
X0049071Y0384959D01*
X0049149Y0384822D01*
X0049223Y0384682D01*
X0049294Y0384540D01*
X0049362Y0384397D01*
X0049426Y0384252D01*
X0049486Y0384106D01*
X0049542Y0383958D01*
X0049595Y0383809D01*
X0049644Y0383658D01*
X0049689Y0383506D01*
X0049730Y0383353D01*
X0049768Y0383200D01*
X0049801Y0383045D01*
X0049831Y0382889D01*
X0049857Y0382733D01*
X0049878Y0382576D01*
X0049896Y0382419D01*
X0049910Y0382261D01*
X0049920Y0382103D01*
X0049926Y0381945D01*
X0049928Y0381787D01*
X0049926Y0381629D01*
X0049920Y0381471D01*
X0049910Y0381313D01*
X0049896Y0381155D01*
X0049878Y0380998D01*
X0049857Y0380841D01*
X0049831Y0380685D01*
X0049801Y0380529D01*
X0049768Y0380374D01*
X0049730Y0380221D01*
X0049689Y0380068D01*
X0049644Y0379916D01*
X0049595Y0379765D01*
X0049542Y0379616D01*
X0049486Y0379468D01*
X0049426Y0379322D01*
X0049362Y0379177D01*
X0049294Y0379034D01*
X0049223Y0378892D01*
X0049149Y0378752D01*
X0049071Y0378615D01*
X0048989Y0378479D01*
X0048905Y0378345D01*
X0048816Y0378214D01*
X0048725Y0378085D01*
X0048630Y0377958D01*
X0048533Y0377833D01*
X0048432Y0377711D01*
X0048328Y0377592D01*
X0048221Y0377475D01*
X0048111Y0377361D01*
X0047998Y0377250D01*
X0047883Y0377141D01*
X0047765Y0377036D01*
X0047644Y0376934D01*
X0047521Y0376834D01*
X0047395Y0376738D01*
X0047267Y0376645D01*
X0047137Y0376555D01*
X0047004Y0376469D01*
X0046869Y0376385D01*
X0046733Y0376306D01*
X0046594Y0376229D01*
X0046453Y0376157D01*
X0046311Y0376087D01*
X0046167Y0376022D01*
X0046021Y0375960D01*
X0045874Y0375902D01*
X0045725Y0375847D01*
X0045575Y0375796D01*
X0045424Y0375749D01*
X0045272Y0375706D01*
X0045119Y0375667D01*
X0044964Y0375631D01*
X0044809Y0375600D01*
X0044653Y0375572D01*
X0044497Y0375548D01*
X0044340Y0375528D01*
X0044182Y0375512D01*
X0044025Y0375500D01*
X0043866Y0375492D01*
X0043708Y0375488D01*
X0043550Y0375488D01*
X0043392Y0375492D01*
X0043233Y0375500D01*
X0043076Y0375512D01*
X0042918Y0375528D01*
X0042761Y0375548D01*
X0042605Y0375572D01*
X0042449Y0375600D01*
X0042294Y0375631D01*
X0042139Y0375667D01*
X0041986Y0375706D01*
X0041834Y0375749D01*
X0041683Y0375796D01*
X0041533Y0375847D01*
X0041384Y0375902D01*
X0041237Y0375960D01*
X0041091Y0376022D01*
X0040947Y0376087D01*
X0040805Y0376157D01*
X0040664Y0376229D01*
X0040525Y0376306D01*
X0040389Y0376385D01*
X0040254Y0376469D01*
X0040121Y0376555D01*
X0039991Y0376645D01*
X0039863Y0376738D01*
X0039737Y0376834D01*
X0039614Y0376934D01*
X0039493Y0377036D01*
X0039375Y0377141D01*
X0039260Y0377250D01*
X0039147Y0377361D01*
X0039037Y0377475D01*
X0038930Y0377592D01*
X0038826Y0377711D01*
X0038725Y0377833D01*
X0038628Y0377958D01*
X0038533Y0378085D01*
X0038442Y0378214D01*
X0038353Y0378345D01*
X0038269Y0378479D01*
X0038187Y0378615D01*
X0038109Y0378752D01*
X0038035Y0378892D01*
X0037964Y0379034D01*
X0037896Y0379177D01*
X0037832Y0379322D01*
X0037772Y0379468D01*
X0037716Y0379616D01*
X0037663Y0379765D01*
X0037614Y0379916D01*
X0037569Y0380068D01*
X0037528Y0380221D01*
X0037490Y0380374D01*
X0037457Y0380529D01*
X0037427Y0380685D01*
X0037401Y0380841D01*
X0037380Y0380998D01*
X0037362Y0381155D01*
X0037348Y0381313D01*
X0037338Y0381471D01*
X0037332Y0381629D01*
X0037330Y0381787D01*
D11*
X0253155Y0276940D02*
X0253856Y0277641D01*
X0255257Y0277641D01*
X0255958Y0276940D01*
X0255958Y0274138D01*
X0255257Y0273437D01*
X0253856Y0273437D01*
X0253155Y0274138D01*
X0257759Y0274138D02*
X0258460Y0273437D01*
X0259861Y0273437D01*
X0260562Y0274138D01*
X0260562Y0276940D01*
X0259861Y0277641D01*
X0258460Y0277641D01*
X0257759Y0276940D01*
X0262363Y0277641D02*
X0262363Y0274839D01*
X0263764Y0273437D01*
X0265166Y0274839D01*
X0265166Y0277641D01*
X0301905Y0276940D02*
X0302606Y0277641D01*
X0304007Y0277641D01*
X0304708Y0276940D01*
X0304708Y0274138D01*
X0304007Y0273437D01*
X0302606Y0273437D01*
X0301905Y0274138D01*
X0306509Y0274138D02*
X0307210Y0273437D01*
X0308611Y0273437D01*
X0309312Y0274138D01*
X0309312Y0276940D01*
X0308611Y0277641D01*
X0307210Y0277641D01*
X0306509Y0276940D01*
X0311113Y0277641D02*
X0311113Y0274839D01*
X0312514Y0273437D01*
X0313916Y0274839D01*
X0313916Y0277641D01*
X0309479Y0246991D02*
X0306276Y0246991D01*
X0304322Y0246991D02*
X0304322Y0242187D01*
X0301120Y0242187D01*
X0299166Y0242187D02*
X0299166Y0246991D01*
X0296764Y0246991D01*
X0295963Y0246191D01*
X0295963Y0244589D01*
X0296764Y0243789D01*
X0299166Y0243789D01*
X0302721Y0244589D02*
X0304322Y0244589D01*
X0304322Y0246991D02*
X0301120Y0246991D01*
X0306276Y0242187D02*
X0309479Y0242187D01*
X0309479Y0246991D01*
X0309479Y0244589D02*
X0307877Y0244589D01*
X0294010Y0243789D02*
X0291608Y0243789D01*
X0290807Y0244589D01*
X0290807Y0246191D01*
X0291608Y0246991D01*
X0294010Y0246991D01*
X0294010Y0242187D01*
X0292408Y0243789D02*
X0290807Y0242187D01*
X0288853Y0242988D02*
X0288053Y0242187D01*
X0286451Y0242187D01*
X0285650Y0242988D01*
X0285650Y0246191D01*
X0286451Y0246991D01*
X0288053Y0246991D01*
X0288853Y0246191D01*
X0288853Y0242988D01*
X0283697Y0242187D02*
X0283697Y0246991D01*
X0282095Y0245390D01*
X0280494Y0246991D01*
X0280494Y0242187D01*
X0273384Y0242187D02*
X0273384Y0245390D01*
X0271783Y0246991D01*
X0270181Y0245390D01*
X0270181Y0242187D01*
X0268228Y0242988D02*
X0268228Y0244589D01*
X0267427Y0245390D01*
X0265025Y0245390D01*
X0265025Y0246991D02*
X0265025Y0242187D01*
X0267427Y0242187D01*
X0268228Y0242988D01*
X0270181Y0244589D02*
X0273384Y0244589D01*
X0263071Y0244589D02*
X0263071Y0242988D01*
X0262271Y0242187D01*
X0259868Y0242187D01*
X0259868Y0246991D01*
X0259868Y0245390D02*
X0262271Y0245390D01*
X0263071Y0244589D01*
X0257915Y0243789D02*
X0256313Y0245390D01*
X0255513Y0245390D01*
X0257915Y0245390D02*
X0257915Y0242187D01*
X0260350Y0203953D02*
X0259649Y0203252D01*
X0259649Y0201851D01*
X0260350Y0201151D01*
X0262452Y0201151D01*
X0261050Y0201151D02*
X0259649Y0199749D01*
X0262452Y0199749D02*
X0262452Y0203953D01*
X0260350Y0203953D01*
X0264253Y0203953D02*
X0264253Y0199749D01*
X0265654Y0201151D01*
X0267056Y0199749D01*
X0267056Y0203953D01*
X0267056Y0153937D02*
X0264954Y0153937D01*
X0264253Y0153236D01*
X0264253Y0151835D01*
X0264954Y0151135D01*
X0267056Y0151135D01*
X0265654Y0151135D02*
X0264253Y0149733D01*
X0262452Y0149733D02*
X0260350Y0149733D01*
X0259649Y0150434D01*
X0259649Y0153236D01*
X0260350Y0153937D01*
X0262452Y0153937D01*
X0262452Y0149733D01*
X0267056Y0149733D02*
X0267056Y0153937D01*
X0267056Y0133931D02*
X0265654Y0132529D01*
X0264253Y0133931D01*
X0264253Y0129727D01*
X0262452Y0129727D02*
X0262452Y0133931D01*
X0260350Y0133931D01*
X0259649Y0133230D01*
X0259649Y0131829D01*
X0260350Y0131128D01*
X0262452Y0131128D01*
X0261050Y0131128D02*
X0259649Y0129727D01*
X0257848Y0129727D02*
X0255045Y0129727D01*
X0253244Y0130428D02*
X0253244Y0133230D01*
X0252543Y0133931D01*
X0251142Y0133931D01*
X0250441Y0133230D01*
X0250441Y0130428D01*
X0251142Y0129727D01*
X0252543Y0129727D01*
X0253244Y0130428D01*
X0251843Y0131128D02*
X0250441Y0129727D01*
X0255045Y0133931D02*
X0257848Y0133931D01*
X0257848Y0129727D01*
X0257848Y0131829D02*
X0256447Y0131829D01*
X0259649Y0123927D02*
X0259649Y0123227D01*
X0262452Y0120424D01*
X0262452Y0119724D01*
X0264253Y0120424D02*
X0264954Y0119724D01*
X0267056Y0119724D01*
X0267056Y0123927D01*
X0264954Y0123927D01*
X0264253Y0123227D01*
X0264253Y0120424D01*
X0262452Y0123927D02*
X0259649Y0123927D01*
X0267056Y0129727D02*
X0267056Y0133931D01*
X0267056Y0113924D02*
X0264954Y0113924D01*
X0264253Y0113224D01*
X0264253Y0110421D01*
X0264954Y0109721D01*
X0267056Y0109721D01*
X0267056Y0113924D01*
X0262452Y0111822D02*
X0262452Y0110421D01*
X0261751Y0109721D01*
X0260350Y0109721D01*
X0259649Y0110421D01*
X0259649Y0111122D01*
X0260350Y0111822D01*
X0262452Y0111822D01*
X0261050Y0113224D01*
X0259649Y0113924D01*
X0259649Y0103921D02*
X0262452Y0103921D01*
X0262452Y0101819D01*
X0261050Y0102520D01*
X0260350Y0102520D01*
X0259649Y0101819D01*
X0259649Y0100418D01*
X0260350Y0099717D01*
X0261751Y0099717D01*
X0262452Y0100418D01*
X0264253Y0100418D02*
X0264253Y0103220D01*
X0264954Y0103921D01*
X0267056Y0103921D01*
X0267056Y0099717D01*
X0264954Y0099717D01*
X0264253Y0100418D01*
X0264954Y0093918D02*
X0267056Y0093918D01*
X0267056Y0089714D01*
X0264954Y0089714D01*
X0264253Y0090415D01*
X0264253Y0093217D01*
X0264954Y0093918D01*
X0262452Y0091816D02*
X0259649Y0091816D01*
X0260350Y0089714D02*
X0260350Y0093918D01*
X0262452Y0091816D01*
X0261587Y0084425D02*
X0260186Y0084425D01*
X0259486Y0083724D01*
X0259486Y0083023D01*
X0260186Y0082323D01*
X0259486Y0081622D01*
X0259486Y0080922D01*
X0260186Y0080221D01*
X0261587Y0080221D01*
X0262288Y0080922D01*
X0264090Y0080922D02*
X0264090Y0083724D01*
X0264790Y0084425D01*
X0266892Y0084425D01*
X0266892Y0080221D01*
X0264790Y0080221D01*
X0264090Y0080922D01*
X0262288Y0083724D02*
X0261587Y0084425D01*
X0260887Y0082323D02*
X0260186Y0082323D01*
X0226084Y0089219D02*
X0223982Y0089219D01*
X0223281Y0089919D01*
X0223281Y0092721D01*
X0223982Y0093422D01*
X0226084Y0093422D01*
X0226084Y0089219D01*
X0221480Y0089219D02*
X0218677Y0092021D01*
X0218677Y0092721D01*
X0219378Y0093422D01*
X0220779Y0093422D01*
X0221480Y0092721D01*
X0221480Y0089219D02*
X0218677Y0089219D01*
X0218677Y0099231D02*
X0221480Y0099231D01*
X0220079Y0099231D02*
X0220079Y0103435D01*
X0221480Y0102034D01*
X0223281Y0102734D02*
X0223982Y0103435D01*
X0226084Y0103435D01*
X0226084Y0099231D01*
X0223982Y0099231D01*
X0223281Y0099932D01*
X0223281Y0102734D01*
X0223982Y0109231D02*
X0223281Y0109932D01*
X0223281Y0112734D01*
X0223982Y0113435D01*
X0226084Y0113435D01*
X0226084Y0109231D01*
X0223982Y0109231D01*
X0221480Y0109932D02*
X0218677Y0112734D01*
X0218677Y0109932D01*
X0219378Y0109231D01*
X0220779Y0109231D01*
X0221480Y0109932D01*
X0221480Y0112734D01*
X0220779Y0113435D01*
X0219378Y0113435D01*
X0218677Y0112734D01*
D12*
X0241683Y0042327D02*
X0241683Y0041243D01*
X0241683Y0039074D02*
X0241683Y0033653D01*
X0242767Y0032569D01*
X0243851Y0032569D01*
X0246512Y0035822D02*
X0246512Y0037990D01*
X0247596Y0039074D01*
X0249765Y0039074D01*
X0250849Y0037990D01*
X0250849Y0035822D01*
X0249765Y0034737D01*
X0247596Y0034737D01*
X0246512Y0035822D01*
X0239186Y0035822D02*
X0239186Y0037990D01*
X0238102Y0039074D01*
X0235933Y0039074D01*
X0234849Y0037990D01*
X0234849Y0036906D01*
X0239186Y0036906D01*
X0239186Y0035822D02*
X0238102Y0034737D01*
X0235933Y0034737D01*
X0232188Y0035822D02*
X0232188Y0037990D01*
X0231104Y0039074D01*
X0227851Y0039074D01*
X0225190Y0039074D02*
X0223021Y0039074D01*
X0224106Y0040159D02*
X0224106Y0035822D01*
X0223021Y0034737D01*
X0220525Y0034737D02*
X0216188Y0041243D01*
X0213527Y0039074D02*
X0211358Y0041243D01*
X0211358Y0034737D01*
X0209190Y0034737D02*
X0213527Y0034737D01*
X0206529Y0035822D02*
X0205444Y0034737D01*
X0203276Y0034737D01*
X0202192Y0035822D01*
X0202192Y0040159D01*
X0203276Y0041243D01*
X0205444Y0041243D01*
X0206529Y0040159D01*
X0206529Y0039074D01*
X0205444Y0037990D01*
X0202192Y0037990D01*
X0199531Y0035822D02*
X0195194Y0040159D01*
X0195194Y0035822D01*
X0196278Y0034737D01*
X0198446Y0034737D01*
X0199531Y0035822D01*
X0199531Y0040159D01*
X0198446Y0041243D01*
X0196278Y0041243D01*
X0195194Y0040159D01*
X0192533Y0040159D02*
X0192533Y0035822D01*
X0188196Y0040159D01*
X0188196Y0035822D01*
X0189280Y0034737D01*
X0191448Y0034737D01*
X0192533Y0035822D01*
X0192533Y0040159D02*
X0191448Y0041243D01*
X0189280Y0041243D01*
X0188196Y0040159D01*
X0185535Y0040159D02*
X0184450Y0041243D01*
X0182282Y0041243D01*
X0181198Y0040159D01*
X0185535Y0035822D01*
X0184450Y0034737D01*
X0182282Y0034737D01*
X0181198Y0035822D01*
X0181198Y0040159D01*
X0185535Y0040159D02*
X0185535Y0035822D01*
X0180952Y0019527D02*
X0180952Y0017359D01*
X0182036Y0016274D01*
X0179867Y0016274D02*
X0178783Y0017359D01*
X0178783Y0019527D01*
X0184697Y0018443D02*
X0184697Y0011937D01*
X0186865Y0014106D01*
X0189034Y0011937D01*
X0189034Y0018443D01*
X0191531Y0018443D02*
X0192615Y0017359D01*
X0192615Y0011937D01*
X0193699Y0015190D02*
X0191531Y0015190D01*
X0196196Y0016274D02*
X0198364Y0016274D01*
X0197280Y0017359D02*
X0197280Y0013022D01*
X0196196Y0011937D01*
X0201025Y0013022D02*
X0202110Y0014106D01*
X0204278Y0014106D01*
X0205362Y0015190D01*
X0204278Y0016274D01*
X0201025Y0016274D01*
X0201025Y0013022D02*
X0202110Y0011937D01*
X0205362Y0011937D01*
X0208023Y0014106D02*
X0212360Y0014106D01*
X0212360Y0015190D02*
X0211276Y0016274D01*
X0209108Y0016274D01*
X0208023Y0015190D01*
X0208023Y0014106D01*
X0209108Y0011937D02*
X0211276Y0011937D01*
X0212360Y0013022D01*
X0212360Y0015190D01*
X0215021Y0011937D02*
X0215021Y0018443D01*
X0219358Y0018443D02*
X0219358Y0011937D01*
X0217190Y0014106D01*
X0215021Y0011937D01*
X0221937Y0017359D02*
X0223021Y0016274D01*
X0221937Y0017359D02*
X0221937Y0019527D01*
X0224106Y0019527D02*
X0224106Y0017359D01*
X0225190Y0016274D01*
X0234849Y0016274D02*
X0234849Y0010853D01*
X0235933Y0009769D01*
X0237017Y0009769D01*
X0238102Y0011937D02*
X0234849Y0011937D01*
X0238102Y0011937D02*
X0239186Y0013022D01*
X0239186Y0016274D01*
X0241847Y0015190D02*
X0242931Y0016274D01*
X0246184Y0016274D01*
X0246184Y0018443D02*
X0246184Y0011937D01*
X0242931Y0011937D01*
X0241847Y0013022D01*
X0241847Y0015190D01*
X0255843Y0014106D02*
X0255843Y0013022D01*
X0256927Y0011937D01*
X0260180Y0011937D01*
X0260180Y0018443D01*
X0256927Y0018443D01*
X0255843Y0017359D01*
X0255843Y0016274D01*
X0256927Y0015190D01*
X0260180Y0015190D01*
X0256927Y0015190D02*
X0255843Y0014106D01*
X0262841Y0013022D02*
X0263925Y0011937D01*
X0266093Y0011937D01*
X0267178Y0013022D01*
X0267178Y0017359D01*
X0266093Y0018443D01*
X0263925Y0018443D01*
X0262841Y0017359D01*
X0269839Y0017359D02*
X0269839Y0015190D01*
X0270923Y0014106D01*
X0274176Y0014106D01*
X0274176Y0011937D02*
X0274176Y0018443D01*
X0270923Y0018443D01*
X0269839Y0017359D01*
X0270923Y0023337D02*
X0273091Y0023337D01*
X0274176Y0024422D01*
X0274176Y0026590D01*
X0273091Y0027674D01*
X0270923Y0027674D01*
X0269839Y0026590D01*
X0269839Y0025506D01*
X0274176Y0025506D01*
X0276673Y0027674D02*
X0278841Y0027674D01*
X0277757Y0028759D02*
X0277757Y0024422D01*
X0276673Y0023337D01*
X0281502Y0023337D02*
X0281502Y0027674D01*
X0281502Y0023337D02*
X0284755Y0023337D01*
X0285839Y0024422D01*
X0285839Y0027674D01*
X0288500Y0026590D02*
X0288500Y0024422D01*
X0289584Y0023337D01*
X0292837Y0023337D01*
X0292837Y0021169D02*
X0292837Y0027674D01*
X0289584Y0027674D01*
X0288500Y0026590D01*
X0289584Y0032569D02*
X0290668Y0032569D01*
X0289584Y0032569D02*
X0288500Y0033653D01*
X0288500Y0039074D01*
X0285839Y0035822D02*
X0284755Y0035822D01*
X0284755Y0034737D01*
X0285839Y0034737D01*
X0285839Y0035822D01*
X0288500Y0034737D02*
X0291753Y0034737D01*
X0292837Y0035822D01*
X0292837Y0039074D01*
X0295498Y0037990D02*
X0295498Y0034737D01*
X0298751Y0034737D01*
X0299835Y0035822D01*
X0298751Y0036906D01*
X0295498Y0036906D01*
X0295498Y0037990D02*
X0296582Y0039074D01*
X0298751Y0039074D01*
X0302496Y0039074D02*
X0305749Y0039074D01*
X0306833Y0037990D01*
X0306833Y0035822D01*
X0305749Y0034737D01*
X0302496Y0034737D01*
X0302496Y0041243D01*
X0309494Y0037990D02*
X0309494Y0034737D01*
X0312747Y0034737D01*
X0313831Y0035822D01*
X0312747Y0036906D01*
X0309494Y0036906D01*
X0309494Y0037990D02*
X0310578Y0039074D01*
X0312747Y0039074D01*
X0316410Y0039074D02*
X0319663Y0036906D01*
X0316410Y0034737D01*
X0319663Y0034737D02*
X0319663Y0041243D01*
X0322323Y0039074D02*
X0325576Y0039074D01*
X0326660Y0037990D01*
X0326660Y0035822D01*
X0325576Y0034737D01*
X0322323Y0034737D01*
X0329321Y0034737D02*
X0329321Y0037990D01*
X0330406Y0039074D01*
X0332574Y0039074D01*
X0332574Y0036906D02*
X0329321Y0036906D01*
X0329321Y0034737D02*
X0332574Y0034737D01*
X0333658Y0035822D01*
X0332574Y0036906D01*
X0336319Y0037990D02*
X0336319Y0034737D01*
X0336319Y0037990D02*
X0337404Y0039074D01*
X0339572Y0039074D01*
X0340656Y0037990D01*
X0340656Y0041243D02*
X0340656Y0034737D01*
X0339490Y0029843D02*
X0339490Y0023337D01*
X0342151Y0023337D02*
X0345404Y0023337D01*
X0346488Y0024422D01*
X0346488Y0026590D01*
X0345404Y0027674D01*
X0342151Y0027674D01*
X0339490Y0026590D02*
X0338406Y0027674D01*
X0336237Y0027674D01*
X0335153Y0026590D01*
X0335153Y0023337D01*
X0332492Y0023337D02*
X0330324Y0023337D01*
X0331408Y0023337D02*
X0331408Y0027674D01*
X0332492Y0027674D01*
X0331408Y0029843D02*
X0331408Y0030927D01*
X0327827Y0027674D02*
X0324574Y0027674D01*
X0323490Y0026590D01*
X0323490Y0024422D01*
X0324574Y0023337D01*
X0327827Y0023337D01*
X0327827Y0021169D02*
X0327827Y0027674D01*
X0328993Y0018443D02*
X0324656Y0018443D01*
X0321995Y0016274D02*
X0321995Y0013022D01*
X0320911Y0011937D01*
X0317658Y0011937D01*
X0317658Y0016274D01*
X0314997Y0016274D02*
X0311744Y0016274D01*
X0310660Y0015190D01*
X0310660Y0011937D01*
X0314997Y0011937D02*
X0314997Y0016274D01*
X0307999Y0016274D02*
X0306915Y0017359D01*
X0306915Y0019527D01*
X0304746Y0019527D02*
X0304746Y0017359D01*
X0305831Y0016274D01*
X0305749Y0023337D02*
X0306833Y0024422D01*
X0306833Y0026590D01*
X0305749Y0027674D01*
X0303580Y0027674D01*
X0302496Y0026590D01*
X0302496Y0024422D01*
X0303580Y0023337D01*
X0305749Y0023337D01*
X0309494Y0023337D02*
X0312747Y0023337D01*
X0313831Y0024422D01*
X0313831Y0026590D01*
X0312747Y0027674D01*
X0309494Y0027674D01*
X0299835Y0027674D02*
X0299835Y0023337D01*
X0297666Y0023337D02*
X0297666Y0026590D01*
X0296582Y0027674D01*
X0295498Y0026590D01*
X0295498Y0023337D01*
X0297666Y0026590D02*
X0298751Y0027674D01*
X0299835Y0027674D01*
X0282340Y0034737D02*
X0280171Y0034737D01*
X0281256Y0034737D02*
X0281256Y0039074D01*
X0282340Y0039074D01*
X0281256Y0041243D02*
X0281256Y0042327D01*
X0277675Y0037990D02*
X0277675Y0035822D01*
X0276590Y0034737D01*
X0274422Y0034737D01*
X0273338Y0035822D01*
X0273338Y0037990D01*
X0274422Y0039074D01*
X0276590Y0039074D01*
X0277675Y0037990D01*
X0270677Y0034737D02*
X0266340Y0041243D01*
X0263679Y0039074D02*
X0260426Y0039074D01*
X0259342Y0037990D01*
X0259342Y0035822D01*
X0260426Y0034737D01*
X0263679Y0034737D01*
X0263679Y0032569D02*
X0263679Y0039074D01*
X0256681Y0039074D02*
X0256681Y0034737D01*
X0256681Y0036906D02*
X0254512Y0039074D01*
X0253428Y0039074D01*
X0263925Y0027674D02*
X0265009Y0027674D01*
X0267178Y0025506D01*
X0267178Y0027674D02*
X0267178Y0023337D01*
X0232188Y0035822D02*
X0231104Y0034737D01*
X0227851Y0034737D01*
X0326825Y0015190D02*
X0328993Y0015190D01*
X0331654Y0015190D02*
X0335991Y0015190D01*
X0332738Y0018443D01*
X0332738Y0011937D01*
X0328993Y0011937D02*
X0328993Y0018443D01*
X0338488Y0016274D02*
X0340656Y0016274D01*
X0339572Y0017359D02*
X0339572Y0013022D01*
X0338488Y0011937D01*
X0343317Y0013022D02*
X0344402Y0014106D01*
X0346570Y0014106D01*
X0347654Y0015190D01*
X0346570Y0016274D01*
X0343317Y0016274D01*
X0343317Y0013022D02*
X0344402Y0011937D01*
X0347654Y0011937D01*
X0350315Y0011937D02*
X0350315Y0016274D01*
X0350315Y0011937D02*
X0353568Y0011937D01*
X0354652Y0013022D01*
X0354652Y0016274D01*
X0357313Y0018443D02*
X0359482Y0018443D01*
X0358398Y0018443D02*
X0358398Y0013022D01*
X0359482Y0011937D01*
X0360566Y0011937D01*
X0361650Y0013022D01*
X0365313Y0016274D02*
X0364229Y0017359D01*
X0364229Y0019527D01*
X0366398Y0019527D02*
X0366398Y0017359D01*
X0367482Y0016274D01*
X0371227Y0023337D02*
X0373396Y0023337D01*
X0374480Y0024422D01*
X0370143Y0028759D01*
X0370143Y0024422D01*
X0371227Y0023337D01*
X0374480Y0024422D02*
X0374480Y0028759D01*
X0373396Y0029843D01*
X0371227Y0029843D01*
X0370143Y0028759D01*
X0372147Y0032569D02*
X0372147Y0039074D01*
X0368895Y0039074D01*
X0367810Y0037990D01*
X0367810Y0035822D01*
X0368895Y0034737D01*
X0372147Y0034737D01*
X0374644Y0034737D02*
X0375728Y0035822D01*
X0375728Y0040159D01*
X0374644Y0039074D02*
X0376813Y0039074D01*
X0379309Y0039074D02*
X0381478Y0039074D01*
X0380394Y0040159D02*
X0380394Y0035822D01*
X0379309Y0034737D01*
X0384139Y0034737D02*
X0384139Y0037990D01*
X0385223Y0039074D01*
X0387392Y0039074D01*
X0388476Y0037990D01*
X0388476Y0041243D02*
X0388476Y0034737D01*
X0388476Y0029843D02*
X0384139Y0029843D01*
X0384139Y0028759D01*
X0388476Y0024422D01*
X0388476Y0023337D01*
X0384139Y0023337D01*
X0381478Y0024422D02*
X0381478Y0025506D01*
X0380394Y0026590D01*
X0378225Y0026590D01*
X0377141Y0025506D01*
X0377141Y0024422D01*
X0378225Y0023337D01*
X0380394Y0023337D01*
X0381478Y0024422D01*
X0380394Y0026590D02*
X0381478Y0027674D01*
X0381478Y0028759D01*
X0380394Y0029843D01*
X0378225Y0029843D01*
X0377141Y0028759D01*
X0377141Y0027674D01*
X0378225Y0026590D01*
X0385223Y0018443D02*
X0384139Y0017359D01*
X0384139Y0016274D01*
X0385223Y0015190D01*
X0388476Y0015190D01*
X0388476Y0011937D02*
X0385223Y0011937D01*
X0384139Y0013022D01*
X0384139Y0014106D01*
X0385223Y0015190D01*
X0385223Y0018443D02*
X0388476Y0018443D01*
X0388476Y0011937D01*
X0381478Y0013022D02*
X0380394Y0011937D01*
X0377141Y0011937D01*
X0377141Y0010853D02*
X0378225Y0009769D01*
X0379309Y0009769D01*
X0377141Y0010853D02*
X0377141Y0016274D01*
X0381478Y0016274D02*
X0381478Y0013022D01*
X0360484Y0026590D02*
X0357231Y0029843D01*
X0357231Y0023337D01*
X0356147Y0026590D02*
X0360484Y0026590D01*
X0353486Y0026590D02*
X0349149Y0026590D01*
X0347654Y0034737D02*
X0343317Y0041243D01*
X0350315Y0041243D02*
X0354652Y0034737D01*
X0357067Y0034737D02*
X0358151Y0034737D01*
X0358151Y0035822D01*
X0357067Y0035822D01*
X0357067Y0034737D01*
X0357067Y0037990D02*
X0358151Y0037990D01*
X0358151Y0039074D01*
X0357067Y0039074D01*
X0357067Y0037990D01*
X0360812Y0039074D02*
X0364065Y0039074D01*
X0365149Y0037990D01*
X0364065Y0036906D01*
X0361897Y0036906D01*
X0360812Y0035822D01*
X0361897Y0034737D01*
X0365149Y0034737D01*
X0369520Y0047351D02*
X0373190Y0047351D01*
X0371355Y0047351D02*
X0371355Y0052855D01*
X0373190Y0051020D01*
X0373579Y0054632D02*
X0371411Y0054632D01*
X0370326Y0055716D01*
X0370326Y0060053D01*
X0371411Y0061137D01*
X0373579Y0061137D01*
X0374663Y0060053D01*
X0374663Y0055716D01*
X0373579Y0054632D01*
X0367665Y0054632D02*
X0363328Y0061137D01*
X0360832Y0061137D02*
X0358663Y0061137D01*
X0359747Y0061137D02*
X0359747Y0054632D01*
X0358663Y0054632D02*
X0360832Y0054632D01*
X0349004Y0057885D02*
X0344667Y0057885D01*
X0347920Y0054632D01*
X0347920Y0061137D01*
X0342006Y0060053D02*
X0340922Y0061137D01*
X0338753Y0061137D01*
X0337669Y0060053D01*
X0337669Y0055716D01*
X0338753Y0054632D01*
X0340922Y0054632D01*
X0342006Y0055716D01*
X0335172Y0054632D02*
X0333004Y0054632D01*
X0334088Y0054632D02*
X0334088Y0061137D01*
X0333004Y0061137D02*
X0335172Y0061137D01*
X0227518Y0228033D02*
X0223848Y0228033D01*
X0225683Y0228033D02*
X0225683Y0233538D01*
X0227518Y0231703D01*
X0242250Y0252424D02*
X0245920Y0252424D01*
X0244085Y0252424D02*
X0244085Y0257928D01*
X0245920Y0256093D01*
X0214684Y0275755D02*
X0214684Y0277590D01*
X0213766Y0278507D01*
X0211931Y0278507D02*
X0211931Y0276672D01*
X0211931Y0278507D02*
X0210096Y0278507D01*
X0209179Y0277590D01*
X0209179Y0275755D01*
X0210096Y0274837D01*
X0213766Y0274837D01*
X0214684Y0275755D01*
X0214684Y0280915D02*
X0209179Y0280915D01*
X0209179Y0284584D02*
X0214684Y0284584D01*
X0214684Y0286992D02*
X0209179Y0286992D01*
X0209179Y0289744D01*
X0210096Y0290662D01*
X0213766Y0290662D01*
X0214684Y0289744D01*
X0214684Y0286992D01*
X0209179Y0284584D02*
X0214684Y0280915D01*
X0291625Y0253049D02*
X0295295Y0253049D01*
X0293460Y0253049D02*
X0293460Y0258553D01*
X0295295Y0256718D01*
X0214334Y0366606D02*
X0210664Y0366606D01*
X0208829Y0368441D01*
X0210664Y0370276D01*
X0214334Y0370276D01*
X0213416Y0372683D02*
X0209746Y0372683D01*
X0208829Y0373600D01*
X0208829Y0375435D01*
X0209746Y0376353D01*
X0209746Y0378760D02*
X0208829Y0379678D01*
X0208829Y0381513D01*
X0209746Y0382430D01*
X0209746Y0378760D02*
X0213416Y0378760D01*
X0214334Y0379678D01*
X0214334Y0381513D01*
X0213416Y0382430D01*
X0213416Y0376353D02*
X0214334Y0375435D01*
X0214334Y0373600D01*
X0213416Y0372683D01*
X0116858Y0279218D02*
X0115023Y0281053D01*
X0115023Y0275549D01*
X0116858Y0275549D02*
X0113188Y0275549D01*
D13*
X0114103Y0267168D02*
X0112102Y0267168D01*
X0111101Y0266167D01*
X0115104Y0262163D01*
X0114103Y0261162D01*
X0112102Y0261162D01*
X0111101Y0262163D01*
X0111101Y0266167D01*
X0114103Y0267168D02*
X0115104Y0266167D01*
X0115104Y0262163D01*
X0117546Y0262163D02*
X0118547Y0261162D01*
X0120549Y0261162D01*
X0121550Y0262163D01*
X0121550Y0263164D01*
X0120549Y0264165D01*
X0118547Y0264165D01*
X0117546Y0263164D01*
X0117546Y0262163D01*
X0118547Y0264165D02*
X0117546Y0265166D01*
X0117546Y0266167D01*
X0118547Y0267168D01*
X0120549Y0267168D01*
X0121550Y0266167D01*
X0121550Y0265166D01*
X0120549Y0264165D01*
X0123992Y0266167D02*
X0127995Y0262163D01*
X0127995Y0261162D01*
X0123992Y0261162D01*
X0123992Y0266167D02*
X0123992Y0267168D01*
X0127995Y0267168D01*
X0136883Y0261162D02*
X0140886Y0261162D01*
X0138885Y0261162D02*
X0138885Y0267168D01*
X0140886Y0265166D01*
X0143328Y0266167D02*
X0144329Y0267168D01*
X0146331Y0267168D01*
X0147332Y0266167D01*
X0147332Y0262163D01*
X0146331Y0261162D01*
X0144329Y0261162D01*
X0143328Y0262163D01*
X0149627Y0261162D02*
X0151629Y0261162D01*
X0150628Y0261162D02*
X0150628Y0267168D01*
X0151629Y0267168D02*
X0149627Y0267168D01*
X0221726Y0223543D02*
X0221726Y0217537D01*
X0225729Y0217537D02*
X0225729Y0223543D01*
X0223728Y0221541D01*
X0221726Y0223543D01*
X0228171Y0223543D02*
X0232175Y0223543D01*
X0232175Y0217537D01*
X0228171Y0217537D01*
X0230173Y0220540D02*
X0232175Y0220540D01*
X0234617Y0223543D02*
X0234617Y0217537D01*
X0238620Y0217537D02*
X0238620Y0223543D01*
X0236619Y0221541D01*
X0234617Y0223543D01*
X0247508Y0222542D02*
X0248509Y0223543D01*
X0250510Y0223543D01*
X0251511Y0222542D01*
X0253953Y0222542D02*
X0254954Y0223543D01*
X0256956Y0223543D01*
X0257957Y0222542D01*
X0257957Y0218538D01*
X0256956Y0217537D01*
X0254954Y0217537D01*
X0253953Y0218538D01*
X0251511Y0217537D02*
X0247508Y0221541D01*
X0247508Y0222542D01*
X0247508Y0217537D02*
X0251511Y0217537D01*
X0260252Y0217537D02*
X0262254Y0217537D01*
X0261253Y0217537D02*
X0261253Y0223543D01*
X0262254Y0223543D02*
X0260252Y0223543D01*
X0281357Y0227323D02*
X0281357Y0218752D01*
X0281357Y0218570D02*
X0300277Y0218570D01*
X0300277Y0218752D02*
X0300277Y0227323D01*
X0281357Y0227323D01*
X0334227Y0196124D02*
X0334227Y0194122D01*
X0335228Y0193121D01*
X0339231Y0193121D01*
X0340232Y0194122D01*
X0340232Y0196124D01*
X0339231Y0197124D01*
X0335228Y0197124D02*
X0334227Y0196124D01*
X0340232Y0190679D02*
X0340232Y0186675D01*
X0340232Y0188677D02*
X0334227Y0188677D01*
X0334227Y0184233D02*
X0336229Y0182232D01*
X0336229Y0183233D02*
X0336229Y0180230D01*
X0334227Y0180230D02*
X0340232Y0180230D01*
X0340232Y0183233D01*
X0339231Y0184233D01*
X0337229Y0184233D01*
X0336229Y0183233D01*
X0335228Y0177788D02*
X0339231Y0177788D01*
X0340232Y0176787D01*
X0340232Y0174785D01*
X0339231Y0173784D01*
X0335228Y0173784D01*
X0334227Y0174785D01*
X0334227Y0176787D01*
X0335228Y0177788D01*
X0337229Y0171342D02*
X0336229Y0170342D01*
X0336229Y0167339D01*
X0334227Y0167339D02*
X0340232Y0167339D01*
X0340232Y0170342D01*
X0339231Y0171342D01*
X0337229Y0171342D01*
X0369238Y0186095D02*
X0375243Y0186095D01*
X0375243Y0189098D01*
X0374242Y0190098D01*
X0372241Y0190098D01*
X0371240Y0189098D01*
X0371240Y0186095D01*
X0370239Y0192541D02*
X0369238Y0193541D01*
X0369238Y0195543D01*
X0370239Y0196544D01*
X0374242Y0196544D01*
X0375243Y0195543D01*
X0375243Y0193541D01*
X0374242Y0192541D01*
X0370239Y0192541D01*
X0371240Y0198986D02*
X0371240Y0201989D01*
X0372241Y0202989D01*
X0374242Y0202989D01*
X0375243Y0201989D01*
X0375243Y0198986D01*
X0369238Y0198986D01*
X0371240Y0200988D02*
X0369238Y0202989D01*
X0369238Y0207433D02*
X0375243Y0207433D01*
X0375243Y0205431D02*
X0375243Y0209435D01*
X0375243Y0211877D02*
X0369238Y0211877D01*
X0369238Y0214880D01*
X0370239Y0215880D01*
X0374242Y0215880D01*
X0375243Y0214880D01*
X0375243Y0211877D01*
X0374274Y0145038D02*
X0365703Y0145038D01*
X0365703Y0126119D01*
X0374274Y0126119D01*
X0374274Y0145038D01*
X0372992Y0112097D02*
X0371991Y0112097D01*
X0370990Y0111096D01*
X0370990Y0108094D01*
X0370990Y0111096D02*
X0369989Y0112097D01*
X0368988Y0112097D01*
X0367988Y0111096D01*
X0367988Y0108094D01*
X0373993Y0108094D01*
X0373993Y0111096D01*
X0372992Y0112097D01*
X0373993Y0105652D02*
X0373993Y0101648D01*
X0373993Y0103650D02*
X0367988Y0103650D01*
X0367988Y0099206D02*
X0369989Y0097205D01*
X0369989Y0098205D02*
X0369989Y0095203D01*
X0367988Y0095203D02*
X0373993Y0095203D01*
X0373993Y0098205D01*
X0372992Y0099206D01*
X0370990Y0099206D01*
X0369989Y0098205D01*
X0368988Y0092761D02*
X0372992Y0092761D01*
X0373993Y0091760D01*
X0373993Y0089758D01*
X0372992Y0088757D01*
X0368988Y0088757D01*
X0367988Y0089758D01*
X0367988Y0091760D01*
X0368988Y0092761D01*
X0370990Y0086315D02*
X0369989Y0085314D01*
X0369989Y0082312D01*
X0367988Y0082312D02*
X0373993Y0082312D01*
X0373993Y0085314D01*
X0372992Y0086315D01*
X0370990Y0086315D01*
X0340232Y0086758D02*
X0339231Y0087759D01*
X0335228Y0087759D01*
X0334227Y0086758D01*
X0334227Y0084757D01*
X0335228Y0083756D01*
X0339231Y0083756D01*
X0340232Y0084757D01*
X0340232Y0086758D01*
X0340232Y0090201D02*
X0334227Y0090201D01*
X0336229Y0090201D02*
X0336229Y0093204D01*
X0337229Y0094205D01*
X0339231Y0094205D01*
X0340232Y0093204D01*
X0340232Y0090201D01*
X0336229Y0092203D02*
X0334227Y0094205D01*
X0334227Y0098648D02*
X0340232Y0098648D01*
X0340232Y0096647D02*
X0340232Y0100650D01*
X0338230Y0103092D02*
X0340232Y0105094D01*
X0338230Y0107096D01*
X0334227Y0107096D01*
X0337229Y0107096D02*
X0337229Y0103092D01*
X0338230Y0103092D02*
X0334227Y0103092D01*
X0337229Y0081314D02*
X0336229Y0080313D01*
X0336229Y0077310D01*
X0334227Y0077310D02*
X0340232Y0077310D01*
X0340232Y0080313D01*
X0339231Y0081314D01*
X0337229Y0081314D01*
X0213540Y0070623D02*
X0213540Y0051703D01*
X0204968Y0051703D01*
X0204968Y0070623D01*
X0213540Y0070623D01*
X0135727Y0155453D02*
X0127155Y0155453D01*
X0127155Y0174373D01*
X0135727Y0174373D01*
X0135727Y0155453D01*
X0085415Y0175766D02*
X0085415Y0194685D01*
X0076843Y0194685D01*
X0076843Y0175766D01*
X0085415Y0175766D01*
D14*
X0073402Y0183793D02*
X0072685Y0183076D01*
X0069816Y0183076D01*
X0069098Y0183793D01*
X0069098Y0185228D01*
X0069816Y0185945D01*
X0069816Y0187680D02*
X0069098Y0188397D01*
X0069098Y0189831D01*
X0069816Y0190549D01*
X0072685Y0190549D01*
X0073402Y0189831D01*
X0073402Y0188397D01*
X0072685Y0187680D01*
X0071968Y0187680D01*
X0071250Y0188397D01*
X0071250Y0190549D01*
X0072685Y0185945D02*
X0073402Y0185228D01*
X0073402Y0183793D01*
X0119098Y0170684D02*
X0119098Y0169250D01*
X0119816Y0168532D01*
X0122685Y0171402D01*
X0119816Y0171402D01*
X0119098Y0170684D01*
X0119816Y0168532D02*
X0122685Y0168532D01*
X0123402Y0169250D01*
X0123402Y0170684D01*
X0122685Y0171402D01*
X0119098Y0166798D02*
X0119098Y0163929D01*
X0119098Y0165363D02*
X0123402Y0165363D01*
X0121967Y0163929D01*
X0122685Y0162194D02*
X0123402Y0161476D01*
X0123402Y0160042D01*
X0122685Y0159325D01*
X0119816Y0159325D01*
X0119098Y0160042D01*
X0119098Y0161476D01*
X0119816Y0162194D01*
X0135888Y0140636D02*
X0138757Y0140636D01*
X0137322Y0140636D02*
X0137322Y0136332D01*
X0140492Y0136332D02*
X0143361Y0136332D01*
X0143361Y0140636D01*
X0140492Y0140636D01*
X0141926Y0138484D02*
X0143361Y0138484D01*
X0145096Y0137767D02*
X0145096Y0137049D01*
X0145813Y0136332D01*
X0147248Y0136332D01*
X0147965Y0137049D01*
X0147248Y0138484D02*
X0145813Y0138484D01*
X0145096Y0137767D01*
X0145096Y0139918D02*
X0145813Y0140636D01*
X0147248Y0140636D01*
X0147965Y0139918D01*
X0147965Y0139201D01*
X0147248Y0138484D01*
X0149700Y0140636D02*
X0152569Y0140636D01*
X0152569Y0136332D01*
X0149700Y0136332D01*
X0151134Y0138484D02*
X0152569Y0138484D01*
X0154304Y0138484D02*
X0155021Y0137767D01*
X0157173Y0137767D01*
X0155738Y0137767D02*
X0154304Y0136332D01*
X0154304Y0138484D02*
X0154304Y0139918D01*
X0155021Y0140636D01*
X0157173Y0140636D01*
X0157173Y0136332D01*
X0157173Y0120636D02*
X0157173Y0116332D01*
X0155738Y0117767D01*
X0154304Y0116332D01*
X0154304Y0120636D01*
X0152569Y0119201D02*
X0151134Y0120636D01*
X0149700Y0119201D01*
X0149700Y0116332D01*
X0147965Y0116332D02*
X0146530Y0116332D01*
X0147248Y0116332D02*
X0147248Y0120636D01*
X0147965Y0120636D02*
X0146530Y0120636D01*
X0144896Y0120636D02*
X0142026Y0120636D01*
X0143461Y0120636D02*
X0143461Y0116332D01*
X0149700Y0118484D02*
X0152569Y0118484D01*
X0152569Y0119201D02*
X0152569Y0116332D01*
X0152569Y0100636D02*
X0150417Y0100636D01*
X0149700Y0099918D01*
X0149700Y0098484D01*
X0150417Y0097767D01*
X0152569Y0097767D01*
X0151134Y0097767D02*
X0149700Y0096332D01*
X0152569Y0096332D02*
X0152569Y0100636D01*
X0154304Y0100636D02*
X0154304Y0096332D01*
X0155738Y0097767D01*
X0157173Y0096332D01*
X0157173Y0100636D01*
X0157173Y0090636D02*
X0155021Y0090636D01*
X0154304Y0089918D01*
X0154304Y0088484D01*
X0155021Y0087767D01*
X0157173Y0087767D01*
X0155738Y0087767D02*
X0154304Y0086332D01*
X0152569Y0086332D02*
X0150417Y0086332D01*
X0149700Y0087049D01*
X0149700Y0089918D01*
X0150417Y0090636D01*
X0152569Y0090636D01*
X0152569Y0086332D01*
X0157173Y0086332D02*
X0157173Y0090636D01*
X0125301Y0095443D02*
X0125301Y0099746D01*
X0123866Y0098312D01*
X0122432Y0099746D01*
X0122432Y0095443D01*
X0120697Y0095443D02*
X0120697Y0099746D01*
X0118545Y0099746D01*
X0117828Y0099029D01*
X0117828Y0097595D01*
X0118545Y0096877D01*
X0120697Y0096877D01*
X0119262Y0096877D02*
X0117828Y0095443D01*
X0116093Y0095443D02*
X0113224Y0095443D01*
X0111489Y0096160D02*
X0110772Y0095443D01*
X0109337Y0095443D01*
X0108620Y0096160D01*
X0108620Y0099029D01*
X0109337Y0099746D01*
X0110772Y0099746D01*
X0111489Y0099029D01*
X0111489Y0096160D01*
X0110054Y0096877D02*
X0108620Y0095443D01*
X0113224Y0099746D02*
X0116093Y0099746D01*
X0116093Y0095443D01*
X0116093Y0097595D02*
X0114658Y0097595D01*
X0113941Y0089746D02*
X0113224Y0089029D01*
X0113224Y0087595D01*
X0113941Y0086877D01*
X0116093Y0086877D01*
X0116093Y0085443D02*
X0116093Y0089746D01*
X0113941Y0089746D01*
X0111489Y0089029D02*
X0111489Y0086160D01*
X0110772Y0085443D01*
X0109337Y0085443D01*
X0108620Y0086160D01*
X0108620Y0089029D01*
X0109337Y0089746D01*
X0110772Y0089746D01*
X0111489Y0089029D01*
X0110054Y0086877D02*
X0108620Y0085443D01*
X0113224Y0085443D02*
X0114658Y0086877D01*
X0117828Y0086160D02*
X0117828Y0089029D01*
X0118545Y0089746D01*
X0119979Y0089746D01*
X0120697Y0089029D01*
X0120697Y0086160D01*
X0119979Y0085443D01*
X0118545Y0085443D01*
X0117828Y0086160D01*
X0122331Y0085443D02*
X0123766Y0085443D01*
X0123049Y0085443D02*
X0123049Y0089746D01*
X0123766Y0089746D02*
X0122331Y0089746D01*
X0122432Y0105443D02*
X0122432Y0109746D01*
X0122432Y0107595D02*
X0125301Y0107595D01*
X0125301Y0109746D02*
X0125301Y0105443D01*
X0120697Y0105443D02*
X0120697Y0108312D01*
X0119262Y0109746D01*
X0117828Y0108312D01*
X0117828Y0105443D01*
X0116093Y0105443D02*
X0113224Y0105443D01*
X0116093Y0105443D02*
X0116093Y0109746D01*
X0117828Y0107595D02*
X0120697Y0107595D01*
X0111489Y0109746D02*
X0108620Y0109746D01*
X0110054Y0109746D02*
X0110054Y0105443D01*
X0108804Y0124193D02*
X0108804Y0128496D01*
X0107370Y0128496D02*
X0110239Y0128496D01*
X0111974Y0128496D02*
X0111974Y0124193D01*
X0114843Y0128496D01*
X0114843Y0124193D01*
X0116478Y0124193D02*
X0117912Y0124193D01*
X0117195Y0124193D02*
X0117195Y0128496D01*
X0117912Y0128496D02*
X0116478Y0128496D01*
X0116729Y0135443D02*
X0116011Y0136160D01*
X0116011Y0139029D01*
X0116729Y0139746D01*
X0118881Y0139746D01*
X0118881Y0135443D01*
X0116729Y0135443D01*
X0114277Y0135443D02*
X0111408Y0135443D01*
X0112842Y0135443D02*
X0112842Y0139746D01*
X0114277Y0138312D01*
X0216605Y0069840D02*
X0216605Y0066971D01*
X0216605Y0068405D02*
X0220908Y0068405D01*
X0219474Y0066971D01*
X0216605Y0065236D02*
X0216605Y0062367D01*
X0216605Y0063801D02*
X0220908Y0063801D01*
X0219474Y0062367D01*
X0220191Y0060632D02*
X0220908Y0059915D01*
X0220908Y0058480D01*
X0220191Y0057763D01*
X0217322Y0057763D01*
X0216605Y0058480D01*
X0216605Y0059915D01*
X0217322Y0060632D01*
X0358338Y0126584D02*
X0358338Y0128019D01*
X0359055Y0128736D01*
X0358338Y0130471D02*
X0358338Y0133340D01*
X0358338Y0131905D02*
X0362641Y0131905D01*
X0361207Y0130471D01*
X0361924Y0128736D02*
X0362641Y0128019D01*
X0362641Y0126584D01*
X0361924Y0125867D01*
X0359055Y0125867D01*
X0358338Y0126584D01*
X0358338Y0135075D02*
X0361207Y0137944D01*
X0361924Y0137944D01*
X0362641Y0137226D01*
X0362641Y0135792D01*
X0361924Y0135075D01*
X0358338Y0135075D02*
X0358338Y0137944D01*
X0297083Y0230143D02*
X0295648Y0230143D01*
X0294931Y0230860D01*
X0293196Y0230860D02*
X0293196Y0231577D01*
X0292479Y0232294D01*
X0291044Y0232294D01*
X0290327Y0231577D01*
X0290327Y0230860D01*
X0291044Y0230143D01*
X0292479Y0230143D01*
X0293196Y0230860D01*
X0292479Y0232294D02*
X0293196Y0233012D01*
X0293196Y0233729D01*
X0292479Y0234446D01*
X0291044Y0234446D01*
X0290327Y0233729D01*
X0290327Y0233012D01*
X0291044Y0232294D01*
X0294931Y0233729D02*
X0295648Y0234446D01*
X0297083Y0234446D01*
X0297800Y0233729D01*
X0297800Y0230860D01*
X0297083Y0230143D01*
X0122234Y0229029D02*
X0122234Y0226160D01*
X0121517Y0225443D01*
X0120083Y0225443D01*
X0119365Y0226160D01*
X0117631Y0225443D02*
X0117631Y0229746D01*
X0119365Y0229029D02*
X0120083Y0229746D01*
X0121517Y0229746D01*
X0122234Y0229029D01*
X0117631Y0225443D02*
X0114761Y0225443D01*
X0113027Y0225443D02*
X0113027Y0229746D01*
X0112309Y0227595D02*
X0110158Y0225443D01*
X0113027Y0226877D02*
X0110158Y0229746D01*
D15*
X0109254Y0218663D02*
X0109254Y0135537D01*
X0108004Y0135537D01*
X0154254Y0176787D02*
X0156754Y0176787D01*
X0154254Y0176787D02*
X0154254Y0279912D01*
X0156129Y0279912D01*
X0108614Y0218643D02*
X0106739Y0218643D01*
X0249879Y0250537D02*
X0263629Y0250537D01*
X0299879Y0250537D02*
X0313629Y0250537D01*
X0329310Y0232397D02*
X0331185Y0232397D01*
X0331226Y0231860D02*
X0331226Y0161837D01*
X0331185Y0161124D02*
X0329310Y0161124D01*
X0329350Y0123075D02*
X0331226Y0123075D01*
X0331226Y0049301D01*
X0331185Y0049214D02*
X0329310Y0049214D01*
X0377491Y0050552D02*
X0377491Y0123075D01*
X0379992Y0123075D01*
X0379326Y0181131D02*
X0381201Y0181131D01*
X0378741Y0181219D02*
X0378741Y0241863D01*
X0379326Y0242400D02*
X0381201Y0242400D01*
D16*
X0254034Y0209044D02*
X0254034Y0206775D01*
X0254034Y0208477D02*
X0251765Y0208477D01*
X0251765Y0209044D02*
X0251765Y0206775D01*
X0250351Y0206775D02*
X0248082Y0206775D01*
X0249217Y0206775D02*
X0249217Y0210178D01*
X0250351Y0209044D01*
X0251765Y0209044D02*
X0252900Y0210178D01*
X0254034Y0209044D01*
X0246668Y0208477D02*
X0244966Y0208477D01*
X0244399Y0207910D01*
X0244399Y0207343D01*
X0244966Y0206775D01*
X0246101Y0206775D01*
X0246668Y0207343D01*
X0246668Y0208477D01*
X0245533Y0209611D01*
X0244399Y0210178D01*
X0240716Y0210178D02*
X0242985Y0206775D01*
X0239301Y0207910D02*
X0238167Y0206775D01*
X0237033Y0207910D01*
X0237033Y0210178D01*
X0235618Y0208477D02*
X0235618Y0207343D01*
X0235051Y0206775D01*
X0233350Y0206775D01*
X0231935Y0207343D02*
X0231368Y0206775D01*
X0229667Y0206775D01*
X0229667Y0209044D02*
X0231368Y0209044D01*
X0231935Y0208477D01*
X0231935Y0207343D01*
X0233350Y0209044D02*
X0235051Y0209044D01*
X0235618Y0208477D01*
X0239301Y0207910D02*
X0239301Y0210178D01*
X0157224Y0172341D02*
X0157224Y0169405D01*
X0157224Y0171607D02*
X0154288Y0171607D01*
X0154288Y0172341D02*
X0154288Y0169405D01*
X0152620Y0170139D02*
X0151886Y0169405D01*
X0150419Y0169405D01*
X0149685Y0170139D01*
X0149685Y0173074D01*
X0152620Y0170139D01*
X0152620Y0173074D01*
X0151886Y0173808D01*
X0150419Y0173808D01*
X0149685Y0173074D01*
X0154288Y0172341D02*
X0155756Y0173808D01*
X0157224Y0172341D01*
X0157223Y0130686D02*
X0155021Y0130686D01*
X0154287Y0129952D01*
X0154287Y0129218D01*
X0155021Y0128484D01*
X0157223Y0128484D01*
X0157223Y0126282D02*
X0157223Y0130686D01*
X0155021Y0128484D02*
X0154287Y0127750D01*
X0154287Y0127016D01*
X0155021Y0126282D01*
X0157223Y0126282D01*
X0152619Y0127016D02*
X0152619Y0130686D01*
X0149683Y0130686D02*
X0149683Y0127016D01*
X0150417Y0126282D01*
X0151885Y0126282D01*
X0152619Y0127016D01*
X0148015Y0127016D02*
X0147281Y0126282D01*
X0145813Y0126282D01*
X0145079Y0127016D01*
X0145079Y0127750D01*
X0145813Y0128484D01*
X0147281Y0128484D01*
X0148015Y0129218D01*
X0148015Y0129952D01*
X0147281Y0130686D01*
X0145813Y0130686D01*
X0145079Y0129952D01*
X0143411Y0130686D02*
X0141209Y0130686D01*
X0140475Y0129952D01*
X0140475Y0128484D01*
X0141209Y0127750D01*
X0143411Y0127750D01*
X0143411Y0126282D02*
X0143411Y0130686D01*
X0141943Y0127750D02*
X0140475Y0126282D01*
X0138807Y0126282D02*
X0135871Y0126282D01*
X0134203Y0127016D02*
X0134203Y0129952D01*
X0133469Y0130686D01*
X0132001Y0130686D01*
X0131267Y0129952D01*
X0131267Y0127016D01*
X0132001Y0126282D01*
X0133469Y0126282D01*
X0134203Y0127016D01*
X0132735Y0127750D02*
X0131267Y0126282D01*
X0135871Y0130686D02*
X0138807Y0130686D01*
X0138807Y0126282D01*
X0138807Y0128484D02*
X0137339Y0128484D01*
X0135871Y0110686D02*
X0138807Y0107750D01*
X0138073Y0108484D02*
X0135871Y0106282D01*
X0138807Y0106282D02*
X0138807Y0110686D01*
X0140475Y0109218D02*
X0140475Y0106282D01*
X0140475Y0108484D02*
X0143411Y0108484D01*
X0143411Y0109218D02*
X0141943Y0110686D01*
X0140475Y0109218D01*
X0143411Y0109218D02*
X0143411Y0106282D01*
X0145079Y0107016D02*
X0145813Y0106282D01*
X0147281Y0106282D01*
X0148015Y0107016D01*
X0147281Y0108484D02*
X0145813Y0108484D01*
X0145079Y0107750D01*
X0145079Y0107016D01*
X0147281Y0108484D02*
X0148015Y0109218D01*
X0148015Y0109952D01*
X0147281Y0110686D01*
X0145813Y0110686D01*
X0145079Y0109952D01*
X0149683Y0110686D02*
X0149683Y0107016D01*
X0150417Y0106282D01*
X0151885Y0106282D01*
X0152619Y0107016D01*
X0152619Y0110686D01*
X0154287Y0109952D02*
X0154287Y0109218D01*
X0155021Y0108484D01*
X0157223Y0108484D01*
X0157223Y0110686D02*
X0155021Y0110686D01*
X0154287Y0109952D01*
X0155021Y0108484D02*
X0154287Y0107750D01*
X0154287Y0107016D01*
X0155021Y0106282D01*
X0157223Y0106282D01*
X0157223Y0110686D01*
X0120122Y0235393D02*
X0120122Y0238329D01*
X0118654Y0239796D01*
X0117186Y0238329D01*
X0117186Y0235393D01*
X0115518Y0235393D02*
X0112582Y0235393D01*
X0114050Y0235393D02*
X0114050Y0239796D01*
X0115518Y0238329D01*
X0117186Y0237595D02*
X0120122Y0237595D01*
X0110914Y0237595D02*
X0109446Y0238329D01*
X0108712Y0238329D01*
X0107978Y0237595D01*
X0107978Y0236127D01*
X0108712Y0235393D01*
X0110180Y0235393D01*
X0110914Y0236127D01*
X0110914Y0237595D02*
X0110914Y0239796D01*
X0107978Y0239796D01*
X0140188Y0276282D02*
X0141656Y0276282D01*
X0142390Y0277016D01*
X0139454Y0279952D01*
X0139454Y0277016D01*
X0140188Y0276282D01*
X0142390Y0277016D02*
X0142390Y0279952D01*
X0141656Y0280686D01*
X0140188Y0280686D01*
X0139454Y0279952D01*
X0144058Y0276282D02*
X0146994Y0276282D01*
X0145526Y0276282D02*
X0145526Y0280686D01*
X0146994Y0279218D01*
X0148662Y0279218D02*
X0148662Y0276282D01*
X0148662Y0278484D02*
X0151598Y0278484D01*
X0151598Y0279218D02*
X0150130Y0280686D01*
X0148662Y0279218D01*
X0151598Y0279218D02*
X0151598Y0276282D01*
D17*
X0108655Y0278750D03*
X0219315Y0231235D03*
X0377491Y0051802D03*
D18*
X0156170Y0060555D03*
D19*
X0209879Y0293975D02*
X0214879Y0293975D01*
X0217691Y0296787D01*
X0217691Y0312412D01*
X0217691Y0312725D02*
X0215504Y0315537D01*
X0209254Y0315537D01*
X0207066Y0313037D01*
X0207066Y0312725D01*
X0207066Y0296787D01*
X0209879Y0293975D01*
X0207066Y0312725D02*
X0207066Y0313037D01*
X0207066Y0312725D01*
X0209566Y0324287D02*
X0214879Y0324287D01*
X0209566Y0324287D01*
X0209254Y0324600D01*
X0207379Y0327100D01*
X0207379Y0327412D02*
X0207379Y0361787D01*
X0209879Y0364287D01*
X0215191Y0364287D01*
X0217691Y0361787D01*
X0217691Y0326475D01*
X0215816Y0324287D01*
X0214879Y0324287D01*
M02*
