%
M48
M72
T01C0.0236
T02C0.0276
T03C0.0315
T04C0.0320
T05C0.0394
T06C0.0400
T07C0.1260
%
T01
X9736Y4242
X12237Y5930
X12237Y7055
X14863Y8929
X12988Y11804
X18488Y12679
X20363Y13054
X23863Y11179
X24613Y10429
X28488Y9679
X28113Y6679
X31675Y5179
X34488Y4929
X36113Y7929
X36113Y10554
X40488Y12304
X40613Y13929
X37262Y15178
X36072Y15160
X35488Y15179
X30848Y14127
X29738Y13554
X23988Y15991
X31838Y18674
X34488Y18804
X34832Y21147
X37613Y22679
X38738Y25929
X35113Y27679
X32738Y29116
X35175Y32429
X36863Y29679
X38488Y37809
X30175Y39366
X24800Y37241
X23644Y39460
X19488Y39460
X16019Y39460
X10238Y39460
X6144Y39304
X9707Y30226
X12613Y28429
X11613Y24179
X12238Y22554
X14613Y19054
X7864Y15804
X4613Y17679
X19738Y27179
X19925Y7491
X21766Y7551
X19300Y4804
X16613Y2554
X15684Y2131
X15675Y1710
X14738Y2554
X24113Y2679
T02
X26113Y26929
X26738Y26929
X30988Y26929
X31613Y26929
T03
X32800Y26960
X32488Y24179
X32488Y23179
X32488Y22179
X32488Y21179
X32488Y20179
X32488Y19179
X32488Y18179
X32488Y17179
X32488Y16179
X32488Y15179
X32488Y14179
X32488Y13179
X32488Y12179
X32488Y11179
X32488Y10179
X32488Y9179
X32488Y8179
X32488Y7179
X32488Y6179
X32488Y5179
X38488Y5179
X38488Y6179
X38488Y7179
X38488Y8179
X38488Y9179
X38488Y10179
X38488Y11179
X38488Y12179
X38488Y13179
X38488Y14179
X38488Y15179
X38488Y16179
X39375Y16528
X40075Y17178
X39343Y17778
X38488Y18179
X38488Y17179
X38488Y19179
X38488Y20179
X38488Y21179
X38488Y22179
X38488Y23179
X38488Y24179
X38113Y30366
X33707Y33929
X27183Y36690
X25744Y36065
X27457Y38804
X21238Y38804
X17707Y38804
X14707Y38804
X11738Y38804
X8707Y38804
X3738Y34772
X4488Y33429
X3769Y30866
X5707Y29897
X9238Y27804
X9238Y26804
X9238Y25804
X9238Y24804
X9238Y23804
X9238Y22804
X9238Y21804
X9238Y20804
X9238Y19804
X9238Y18804
X9238Y17804
X9238Y16804
X9238Y15804
X9238Y14804
X9238Y13804
X9238Y12804
X9238Y11804
X9238Y10804
X9238Y9804
X9238Y8804
X17238Y8804
X17238Y9804
X17238Y10804
X17238Y11804
X17238Y12804
X17238Y13804
X17238Y14804
X17238Y15804
X17238Y16804
X17238Y17804
X17238Y18804
X17238Y19804
X17238Y20804
X17238Y21804
X17238Y22804
X17238Y23804
X17238Y24804
X17238Y25804
X17238Y26804
X17238Y27804
X20738Y24179
X22707Y28804
X27793Y26975
X14738Y17772
X14738Y15804
X19350Y2679
X20137Y2679
T04
X16988Y4304
X15741Y3493
X14741Y3493
X13741Y3493
X12741Y3493
X11741Y3493
X10741Y3493
X9741Y3493
X7988Y3554
X6863Y5054
X5863Y5054
X5488Y6554
X7488Y6554
X7988Y5554
X9741Y6493
X10741Y6493
X11741Y6493
X12741Y6493
X13741Y6493
X14741Y6493
X15741Y6493
X16988Y6304
X16238Y8804
X16238Y9804
X16238Y10804
X16238Y11804
X16238Y12804
X16238Y13804
X16238Y14804
X16238Y15804
X16238Y16804
X16238Y17804
X16238Y18804
X16238Y19804
X16238Y20804
X16238Y21804
X16238Y22804
X16238Y23804
X16238Y24804
X16238Y25804
X16238Y26804
X16238Y27804
X21238Y23179
X21238Y22179
X21238Y21179
X21238Y20179
X21238Y19179
X21238Y18179
X21238Y17179
X21238Y16179
X21238Y15179
X21238Y14179
X21238Y13179
X21238Y12179
X21238Y11179
X21238Y10179
X21238Y9179
X21238Y8179
X27238Y8179
X27238Y9179
X27238Y10179
X27238Y11179
X27238Y12179
X27238Y13179
X27238Y14179
X27238Y15179
X27238Y16179
X27238Y17179
X27238Y18179
X27238Y19179
X27238Y20179
X27238Y21179
X27238Y22179
X27238Y23179
X28363Y23179
X30363Y23179
X30238Y25554
X31238Y25554
X32238Y25554
X33238Y25554
X35238Y25804
X35238Y26804
X37238Y26804
X37238Y25804
X33238Y28554
X32238Y28554
X31238Y28554
X30238Y28554
X29238Y28554
X28238Y28554
X27238Y28554
X26238Y28554
X25238Y28554
X24113Y28554
X24113Y26554
X25238Y25554
X26238Y25554
X27238Y25554
X28238Y25554
X29238Y26554
X29247Y21060
X30247Y21060
X31113Y15179
X31113Y13179
X39738Y13179
X39738Y15179
X40000Y9432
X41000Y9432
X18493Y14340
X18493Y16340
X14738Y16804
X14738Y14804
X10238Y14804
X10238Y13804
X10238Y12804
X10238Y11804
X10238Y10804
X10238Y9804
X10238Y8804
X9553Y7493
X11553Y7493
X6863Y8054
X5863Y8054
X6800Y9554
X6863Y10804
X5863Y10804
X6800Y12054
X6863Y13554
X5863Y13554
X4800Y12054
X4800Y9554
X7238Y14804
X7238Y16804
X7238Y17804
X7238Y19804
X5239Y19310
X4239Y19310
X5113Y22804
X5113Y23804
X5113Y24804
X5113Y25804
X5113Y26804
X5113Y27804
X5113Y28804
X7113Y28804
X7113Y27804
X7113Y26804
X7113Y25804
X7113Y24804
X7113Y23804
X7113Y22804
X10238Y22804
X10238Y23804
X10238Y24804
X10238Y25804
X10238Y26804
X10238Y27804
X10238Y21804
X10238Y20804
X10238Y19804
X10238Y18804
X10238Y17804
X10238Y16804
X10238Y15804
X34488Y36554
X34488Y38554
X38988Y36054
X39988Y36054
X40988Y34554
X40988Y33616
X40988Y32679
X40988Y31741
X40988Y30804
X38988Y30804
X38988Y31741
X38988Y32679
X38988Y33616
X38988Y34554
T05
X36738Y36190
X35458Y36918
X35458Y38690
X38017Y38690
X38017Y36918
X34238Y32944
X34238Y31944
X33238Y31944
X33238Y32944
X32238Y32916
X32238Y33916
X31238Y33929
X31238Y34929
X32238Y34916
X30238Y34916
X29238Y34929
X28238Y34929
X27238Y34916
X26238Y34929
X25238Y34929
X24238Y34916
X23238Y34929
X22238Y34929
X21238Y34929
X21238Y35929
X20207Y35929
X19207Y35929
X18207Y35929
X17207Y35929
X16207Y35929
X15207Y35929
X14207Y35929
X13207Y35929
X12207Y35929
X11207Y35929
X10207Y35929
X9207Y35929
X8207Y35929
X7207Y35929
X6238Y35929
X6238Y34929
X7238Y34929
X8238Y34929
X9238Y34929
X10238Y34929
X11238Y34929
X12238Y34929
X13238Y34929
X14238Y34929
X15238Y34929
X16238Y34929
X17238Y34929
X18238Y34929
X19238Y34929
X20238Y34929
X20238Y33929
X21238Y33929
X22238Y33929
X23238Y33929
X24238Y33916
X25238Y33929
X26238Y33929
X27238Y33916
X28238Y33929
X29238Y33929
X30238Y33916
X30238Y32916
X29238Y32929
X28238Y32929
X27238Y32916
X26238Y32929
X25238Y32929
X24238Y32916
X23238Y32929
X22238Y32929
X21238Y32929
X20207Y32929
X20207Y31929
X19207Y31929
X19207Y32929
X18207Y32929
X18207Y31929
X17207Y31929
X17207Y32929
X16207Y32929
X15207Y32929
X15207Y31929
X16207Y31929
X16207Y30929
X15207Y30929
X14207Y30929
X13207Y30929
X12207Y30929
X11207Y30929
X10207Y30929
X9207Y30929
X8207Y30929
X7207Y30929
X6238Y30929
X5238Y30929
X5238Y31929
X5238Y32929
X6238Y32929
X7207Y32929
X8207Y32929
X9207Y32929
X10207Y32929
X11207Y32929
X12207Y32929
X13207Y32929
X14207Y32929
X14207Y31929
X13207Y31929
X12207Y31929
X11207Y31929
X10207Y31929
X9207Y31929
X8207Y31929
X7207Y31929
X6238Y31929
X6238Y33929
X7238Y33929
X8238Y33929
X9238Y33929
X10238Y33929
X11238Y33929
X12238Y33929
X13238Y33929
X14238Y33929
X15238Y33929
X16238Y33929
X17238Y33929
X18238Y33929
X19238Y33929
X22238Y31929
X23238Y31929
X24238Y31916
X25238Y31929
X26238Y31929
X27238Y31916
X28238Y31929
X29238Y31929
X30238Y31916
X31238Y31929
X31238Y32929
X32238Y31916
X32238Y30929
X33238Y30944
X33238Y29944
X34238Y29944
X34238Y30944
X32238Y29929
X31238Y29929
X31238Y30929
X30238Y30929
X29238Y30929
X28238Y30929
X27238Y30929
X26238Y30929
X25238Y30929
X24238Y30929
X23238Y30929
X22238Y30929
X21238Y30929
X21238Y29929
X22238Y29929
X23238Y29929
X24238Y29929
X25238Y29929
X26238Y29929
X27238Y29929
X28238Y29929
X29238Y29929
X30238Y29929
X38374Y28429
X39102Y29708
X40874Y29708
X40874Y27149
X39102Y27149
X26238Y37866
X25238Y37866
X24238Y37866
X23238Y37866
X22238Y37866
X20207Y37929
X20207Y36929
X19207Y36929
X19207Y37929
X18207Y37929
X18207Y36929
X17207Y36929
X17207Y37929
X16207Y37929
X15207Y37929
X15207Y36929
X16207Y36929
X14207Y36929
X14207Y37929
X13207Y37929
X13207Y36929
X12207Y36929
X12207Y37929
X11207Y37929
X11207Y36929
X10207Y36929
X9207Y36929
X9207Y37929
X10207Y37929
X8207Y37929
X8207Y36929
X7207Y36929
X7207Y37929
X5238Y34929
X5238Y33929
X17207Y30929
X18207Y30929
X19207Y30929
X20207Y30929
X4613Y16054
X4613Y15054
T06
X28238Y37804
X29238Y37804
X30238Y37804
X31238Y37804
X32238Y37804
X33238Y37804
T07
X4363Y2054
X40738Y2054
X40738Y38179
X4363Y38179
M30
