G75*
%MOIN*%
%OFA0B0*%
%FSLAX25Y25*%
%IPPOS*%
%LPD*%
%AMOC8*
5,1,8,0,0,1.08239X$1,22.5*
%
%ADD10C,0.00000*%
D10*
X0064972Y0005537D02*
X0064972Y0397988D01*
X0457394Y0397988D01*
X0457394Y0005537D01*
X0064972Y0005537D01*
X0072423Y0020537D02*
X0072425Y0020695D01*
X0072431Y0020853D01*
X0072441Y0021011D01*
X0072455Y0021169D01*
X0072473Y0021326D01*
X0072494Y0021483D01*
X0072520Y0021639D01*
X0072550Y0021795D01*
X0072583Y0021950D01*
X0072621Y0022103D01*
X0072662Y0022256D01*
X0072707Y0022408D01*
X0072756Y0022559D01*
X0072809Y0022708D01*
X0072865Y0022856D01*
X0072925Y0023002D01*
X0072989Y0023147D01*
X0073057Y0023290D01*
X0073128Y0023432D01*
X0073202Y0023572D01*
X0073280Y0023709D01*
X0073362Y0023845D01*
X0073446Y0023979D01*
X0073535Y0024110D01*
X0073626Y0024239D01*
X0073721Y0024366D01*
X0073818Y0024491D01*
X0073919Y0024613D01*
X0074023Y0024732D01*
X0074130Y0024849D01*
X0074240Y0024963D01*
X0074353Y0025074D01*
X0074468Y0025183D01*
X0074586Y0025288D01*
X0074707Y0025390D01*
X0074830Y0025490D01*
X0074956Y0025586D01*
X0075084Y0025679D01*
X0075214Y0025769D01*
X0075347Y0025855D01*
X0075482Y0025939D01*
X0075618Y0026018D01*
X0075757Y0026095D01*
X0075898Y0026167D01*
X0076040Y0026237D01*
X0076184Y0026302D01*
X0076330Y0026364D01*
X0076477Y0026422D01*
X0076626Y0026477D01*
X0076776Y0026528D01*
X0076927Y0026575D01*
X0077079Y0026618D01*
X0077232Y0026657D01*
X0077387Y0026693D01*
X0077542Y0026724D01*
X0077698Y0026752D01*
X0077854Y0026776D01*
X0078011Y0026796D01*
X0078169Y0026812D01*
X0078326Y0026824D01*
X0078485Y0026832D01*
X0078643Y0026836D01*
X0078801Y0026836D01*
X0078959Y0026832D01*
X0079118Y0026824D01*
X0079275Y0026812D01*
X0079433Y0026796D01*
X0079590Y0026776D01*
X0079746Y0026752D01*
X0079902Y0026724D01*
X0080057Y0026693D01*
X0080212Y0026657D01*
X0080365Y0026618D01*
X0080517Y0026575D01*
X0080668Y0026528D01*
X0080818Y0026477D01*
X0080967Y0026422D01*
X0081114Y0026364D01*
X0081260Y0026302D01*
X0081404Y0026237D01*
X0081546Y0026167D01*
X0081687Y0026095D01*
X0081826Y0026018D01*
X0081962Y0025939D01*
X0082097Y0025855D01*
X0082230Y0025769D01*
X0082360Y0025679D01*
X0082488Y0025586D01*
X0082614Y0025490D01*
X0082737Y0025390D01*
X0082858Y0025288D01*
X0082976Y0025183D01*
X0083091Y0025074D01*
X0083204Y0024963D01*
X0083314Y0024849D01*
X0083421Y0024732D01*
X0083525Y0024613D01*
X0083626Y0024491D01*
X0083723Y0024366D01*
X0083818Y0024239D01*
X0083909Y0024110D01*
X0083998Y0023979D01*
X0084082Y0023845D01*
X0084164Y0023709D01*
X0084242Y0023572D01*
X0084316Y0023432D01*
X0084387Y0023290D01*
X0084455Y0023147D01*
X0084519Y0023002D01*
X0084579Y0022856D01*
X0084635Y0022708D01*
X0084688Y0022559D01*
X0084737Y0022408D01*
X0084782Y0022256D01*
X0084823Y0022103D01*
X0084861Y0021950D01*
X0084894Y0021795D01*
X0084924Y0021639D01*
X0084950Y0021483D01*
X0084971Y0021326D01*
X0084989Y0021169D01*
X0085003Y0021011D01*
X0085013Y0020853D01*
X0085019Y0020695D01*
X0085021Y0020537D01*
X0085019Y0020379D01*
X0085013Y0020221D01*
X0085003Y0020063D01*
X0084989Y0019905D01*
X0084971Y0019748D01*
X0084950Y0019591D01*
X0084924Y0019435D01*
X0084894Y0019279D01*
X0084861Y0019124D01*
X0084823Y0018971D01*
X0084782Y0018818D01*
X0084737Y0018666D01*
X0084688Y0018515D01*
X0084635Y0018366D01*
X0084579Y0018218D01*
X0084519Y0018072D01*
X0084455Y0017927D01*
X0084387Y0017784D01*
X0084316Y0017642D01*
X0084242Y0017502D01*
X0084164Y0017365D01*
X0084082Y0017229D01*
X0083998Y0017095D01*
X0083909Y0016964D01*
X0083818Y0016835D01*
X0083723Y0016708D01*
X0083626Y0016583D01*
X0083525Y0016461D01*
X0083421Y0016342D01*
X0083314Y0016225D01*
X0083204Y0016111D01*
X0083091Y0016000D01*
X0082976Y0015891D01*
X0082858Y0015786D01*
X0082737Y0015684D01*
X0082614Y0015584D01*
X0082488Y0015488D01*
X0082360Y0015395D01*
X0082230Y0015305D01*
X0082097Y0015219D01*
X0081962Y0015135D01*
X0081826Y0015056D01*
X0081687Y0014979D01*
X0081546Y0014907D01*
X0081404Y0014837D01*
X0081260Y0014772D01*
X0081114Y0014710D01*
X0080967Y0014652D01*
X0080818Y0014597D01*
X0080668Y0014546D01*
X0080517Y0014499D01*
X0080365Y0014456D01*
X0080212Y0014417D01*
X0080057Y0014381D01*
X0079902Y0014350D01*
X0079746Y0014322D01*
X0079590Y0014298D01*
X0079433Y0014278D01*
X0079275Y0014262D01*
X0079118Y0014250D01*
X0078959Y0014242D01*
X0078801Y0014238D01*
X0078643Y0014238D01*
X0078485Y0014242D01*
X0078326Y0014250D01*
X0078169Y0014262D01*
X0078011Y0014278D01*
X0077854Y0014298D01*
X0077698Y0014322D01*
X0077542Y0014350D01*
X0077387Y0014381D01*
X0077232Y0014417D01*
X0077079Y0014456D01*
X0076927Y0014499D01*
X0076776Y0014546D01*
X0076626Y0014597D01*
X0076477Y0014652D01*
X0076330Y0014710D01*
X0076184Y0014772D01*
X0076040Y0014837D01*
X0075898Y0014907D01*
X0075757Y0014979D01*
X0075618Y0015056D01*
X0075482Y0015135D01*
X0075347Y0015219D01*
X0075214Y0015305D01*
X0075084Y0015395D01*
X0074956Y0015488D01*
X0074830Y0015584D01*
X0074707Y0015684D01*
X0074586Y0015786D01*
X0074468Y0015891D01*
X0074353Y0016000D01*
X0074240Y0016111D01*
X0074130Y0016225D01*
X0074023Y0016342D01*
X0073919Y0016461D01*
X0073818Y0016583D01*
X0073721Y0016708D01*
X0073626Y0016835D01*
X0073535Y0016964D01*
X0073446Y0017095D01*
X0073362Y0017229D01*
X0073280Y0017365D01*
X0073202Y0017502D01*
X0073128Y0017642D01*
X0073057Y0017784D01*
X0072989Y0017927D01*
X0072925Y0018072D01*
X0072865Y0018218D01*
X0072809Y0018366D01*
X0072756Y0018515D01*
X0072707Y0018666D01*
X0072662Y0018818D01*
X0072621Y0018971D01*
X0072583Y0019124D01*
X0072550Y0019279D01*
X0072520Y0019435D01*
X0072494Y0019591D01*
X0072473Y0019748D01*
X0072455Y0019905D01*
X0072441Y0020063D01*
X0072431Y0020221D01*
X0072425Y0020379D01*
X0072423Y0020537D01*
X0436173Y0020537D02*
X0436175Y0020695D01*
X0436181Y0020853D01*
X0436191Y0021011D01*
X0436205Y0021169D01*
X0436223Y0021326D01*
X0436244Y0021483D01*
X0436270Y0021639D01*
X0436300Y0021795D01*
X0436333Y0021950D01*
X0436371Y0022103D01*
X0436412Y0022256D01*
X0436457Y0022408D01*
X0436506Y0022559D01*
X0436559Y0022708D01*
X0436615Y0022856D01*
X0436675Y0023002D01*
X0436739Y0023147D01*
X0436807Y0023290D01*
X0436878Y0023432D01*
X0436952Y0023572D01*
X0437030Y0023709D01*
X0437112Y0023845D01*
X0437196Y0023979D01*
X0437285Y0024110D01*
X0437376Y0024239D01*
X0437471Y0024366D01*
X0437568Y0024491D01*
X0437669Y0024613D01*
X0437773Y0024732D01*
X0437880Y0024849D01*
X0437990Y0024963D01*
X0438103Y0025074D01*
X0438218Y0025183D01*
X0438336Y0025288D01*
X0438457Y0025390D01*
X0438580Y0025490D01*
X0438706Y0025586D01*
X0438834Y0025679D01*
X0438964Y0025769D01*
X0439097Y0025855D01*
X0439232Y0025939D01*
X0439368Y0026018D01*
X0439507Y0026095D01*
X0439648Y0026167D01*
X0439790Y0026237D01*
X0439934Y0026302D01*
X0440080Y0026364D01*
X0440227Y0026422D01*
X0440376Y0026477D01*
X0440526Y0026528D01*
X0440677Y0026575D01*
X0440829Y0026618D01*
X0440982Y0026657D01*
X0441137Y0026693D01*
X0441292Y0026724D01*
X0441448Y0026752D01*
X0441604Y0026776D01*
X0441761Y0026796D01*
X0441919Y0026812D01*
X0442076Y0026824D01*
X0442235Y0026832D01*
X0442393Y0026836D01*
X0442551Y0026836D01*
X0442709Y0026832D01*
X0442868Y0026824D01*
X0443025Y0026812D01*
X0443183Y0026796D01*
X0443340Y0026776D01*
X0443496Y0026752D01*
X0443652Y0026724D01*
X0443807Y0026693D01*
X0443962Y0026657D01*
X0444115Y0026618D01*
X0444267Y0026575D01*
X0444418Y0026528D01*
X0444568Y0026477D01*
X0444717Y0026422D01*
X0444864Y0026364D01*
X0445010Y0026302D01*
X0445154Y0026237D01*
X0445296Y0026167D01*
X0445437Y0026095D01*
X0445576Y0026018D01*
X0445712Y0025939D01*
X0445847Y0025855D01*
X0445980Y0025769D01*
X0446110Y0025679D01*
X0446238Y0025586D01*
X0446364Y0025490D01*
X0446487Y0025390D01*
X0446608Y0025288D01*
X0446726Y0025183D01*
X0446841Y0025074D01*
X0446954Y0024963D01*
X0447064Y0024849D01*
X0447171Y0024732D01*
X0447275Y0024613D01*
X0447376Y0024491D01*
X0447473Y0024366D01*
X0447568Y0024239D01*
X0447659Y0024110D01*
X0447748Y0023979D01*
X0447832Y0023845D01*
X0447914Y0023709D01*
X0447992Y0023572D01*
X0448066Y0023432D01*
X0448137Y0023290D01*
X0448205Y0023147D01*
X0448269Y0023002D01*
X0448329Y0022856D01*
X0448385Y0022708D01*
X0448438Y0022559D01*
X0448487Y0022408D01*
X0448532Y0022256D01*
X0448573Y0022103D01*
X0448611Y0021950D01*
X0448644Y0021795D01*
X0448674Y0021639D01*
X0448700Y0021483D01*
X0448721Y0021326D01*
X0448739Y0021169D01*
X0448753Y0021011D01*
X0448763Y0020853D01*
X0448769Y0020695D01*
X0448771Y0020537D01*
X0448769Y0020379D01*
X0448763Y0020221D01*
X0448753Y0020063D01*
X0448739Y0019905D01*
X0448721Y0019748D01*
X0448700Y0019591D01*
X0448674Y0019435D01*
X0448644Y0019279D01*
X0448611Y0019124D01*
X0448573Y0018971D01*
X0448532Y0018818D01*
X0448487Y0018666D01*
X0448438Y0018515D01*
X0448385Y0018366D01*
X0448329Y0018218D01*
X0448269Y0018072D01*
X0448205Y0017927D01*
X0448137Y0017784D01*
X0448066Y0017642D01*
X0447992Y0017502D01*
X0447914Y0017365D01*
X0447832Y0017229D01*
X0447748Y0017095D01*
X0447659Y0016964D01*
X0447568Y0016835D01*
X0447473Y0016708D01*
X0447376Y0016583D01*
X0447275Y0016461D01*
X0447171Y0016342D01*
X0447064Y0016225D01*
X0446954Y0016111D01*
X0446841Y0016000D01*
X0446726Y0015891D01*
X0446608Y0015786D01*
X0446487Y0015684D01*
X0446364Y0015584D01*
X0446238Y0015488D01*
X0446110Y0015395D01*
X0445980Y0015305D01*
X0445847Y0015219D01*
X0445712Y0015135D01*
X0445576Y0015056D01*
X0445437Y0014979D01*
X0445296Y0014907D01*
X0445154Y0014837D01*
X0445010Y0014772D01*
X0444864Y0014710D01*
X0444717Y0014652D01*
X0444568Y0014597D01*
X0444418Y0014546D01*
X0444267Y0014499D01*
X0444115Y0014456D01*
X0443962Y0014417D01*
X0443807Y0014381D01*
X0443652Y0014350D01*
X0443496Y0014322D01*
X0443340Y0014298D01*
X0443183Y0014278D01*
X0443025Y0014262D01*
X0442868Y0014250D01*
X0442709Y0014242D01*
X0442551Y0014238D01*
X0442393Y0014238D01*
X0442235Y0014242D01*
X0442076Y0014250D01*
X0441919Y0014262D01*
X0441761Y0014278D01*
X0441604Y0014298D01*
X0441448Y0014322D01*
X0441292Y0014350D01*
X0441137Y0014381D01*
X0440982Y0014417D01*
X0440829Y0014456D01*
X0440677Y0014499D01*
X0440526Y0014546D01*
X0440376Y0014597D01*
X0440227Y0014652D01*
X0440080Y0014710D01*
X0439934Y0014772D01*
X0439790Y0014837D01*
X0439648Y0014907D01*
X0439507Y0014979D01*
X0439368Y0015056D01*
X0439232Y0015135D01*
X0439097Y0015219D01*
X0438964Y0015305D01*
X0438834Y0015395D01*
X0438706Y0015488D01*
X0438580Y0015584D01*
X0438457Y0015684D01*
X0438336Y0015786D01*
X0438218Y0015891D01*
X0438103Y0016000D01*
X0437990Y0016111D01*
X0437880Y0016225D01*
X0437773Y0016342D01*
X0437669Y0016461D01*
X0437568Y0016583D01*
X0437471Y0016708D01*
X0437376Y0016835D01*
X0437285Y0016964D01*
X0437196Y0017095D01*
X0437112Y0017229D01*
X0437030Y0017365D01*
X0436952Y0017502D01*
X0436878Y0017642D01*
X0436807Y0017784D01*
X0436739Y0017927D01*
X0436675Y0018072D01*
X0436615Y0018218D01*
X0436559Y0018366D01*
X0436506Y0018515D01*
X0436457Y0018666D01*
X0436412Y0018818D01*
X0436371Y0018971D01*
X0436333Y0019124D01*
X0436300Y0019279D01*
X0436270Y0019435D01*
X0436244Y0019591D01*
X0436223Y0019748D01*
X0436205Y0019905D01*
X0436191Y0020063D01*
X0436181Y0020221D01*
X0436175Y0020379D01*
X0436173Y0020537D01*
X0436173Y0381787D02*
X0436175Y0381945D01*
X0436181Y0382103D01*
X0436191Y0382261D01*
X0436205Y0382419D01*
X0436223Y0382576D01*
X0436244Y0382733D01*
X0436270Y0382889D01*
X0436300Y0383045D01*
X0436333Y0383200D01*
X0436371Y0383353D01*
X0436412Y0383506D01*
X0436457Y0383658D01*
X0436506Y0383809D01*
X0436559Y0383958D01*
X0436615Y0384106D01*
X0436675Y0384252D01*
X0436739Y0384397D01*
X0436807Y0384540D01*
X0436878Y0384682D01*
X0436952Y0384822D01*
X0437030Y0384959D01*
X0437112Y0385095D01*
X0437196Y0385229D01*
X0437285Y0385360D01*
X0437376Y0385489D01*
X0437471Y0385616D01*
X0437568Y0385741D01*
X0437669Y0385863D01*
X0437773Y0385982D01*
X0437880Y0386099D01*
X0437990Y0386213D01*
X0438103Y0386324D01*
X0438218Y0386433D01*
X0438336Y0386538D01*
X0438457Y0386640D01*
X0438580Y0386740D01*
X0438706Y0386836D01*
X0438834Y0386929D01*
X0438964Y0387019D01*
X0439097Y0387105D01*
X0439232Y0387189D01*
X0439368Y0387268D01*
X0439507Y0387345D01*
X0439648Y0387417D01*
X0439790Y0387487D01*
X0439934Y0387552D01*
X0440080Y0387614D01*
X0440227Y0387672D01*
X0440376Y0387727D01*
X0440526Y0387778D01*
X0440677Y0387825D01*
X0440829Y0387868D01*
X0440982Y0387907D01*
X0441137Y0387943D01*
X0441292Y0387974D01*
X0441448Y0388002D01*
X0441604Y0388026D01*
X0441761Y0388046D01*
X0441919Y0388062D01*
X0442076Y0388074D01*
X0442235Y0388082D01*
X0442393Y0388086D01*
X0442551Y0388086D01*
X0442709Y0388082D01*
X0442868Y0388074D01*
X0443025Y0388062D01*
X0443183Y0388046D01*
X0443340Y0388026D01*
X0443496Y0388002D01*
X0443652Y0387974D01*
X0443807Y0387943D01*
X0443962Y0387907D01*
X0444115Y0387868D01*
X0444267Y0387825D01*
X0444418Y0387778D01*
X0444568Y0387727D01*
X0444717Y0387672D01*
X0444864Y0387614D01*
X0445010Y0387552D01*
X0445154Y0387487D01*
X0445296Y0387417D01*
X0445437Y0387345D01*
X0445576Y0387268D01*
X0445712Y0387189D01*
X0445847Y0387105D01*
X0445980Y0387019D01*
X0446110Y0386929D01*
X0446238Y0386836D01*
X0446364Y0386740D01*
X0446487Y0386640D01*
X0446608Y0386538D01*
X0446726Y0386433D01*
X0446841Y0386324D01*
X0446954Y0386213D01*
X0447064Y0386099D01*
X0447171Y0385982D01*
X0447275Y0385863D01*
X0447376Y0385741D01*
X0447473Y0385616D01*
X0447568Y0385489D01*
X0447659Y0385360D01*
X0447748Y0385229D01*
X0447832Y0385095D01*
X0447914Y0384959D01*
X0447992Y0384822D01*
X0448066Y0384682D01*
X0448137Y0384540D01*
X0448205Y0384397D01*
X0448269Y0384252D01*
X0448329Y0384106D01*
X0448385Y0383958D01*
X0448438Y0383809D01*
X0448487Y0383658D01*
X0448532Y0383506D01*
X0448573Y0383353D01*
X0448611Y0383200D01*
X0448644Y0383045D01*
X0448674Y0382889D01*
X0448700Y0382733D01*
X0448721Y0382576D01*
X0448739Y0382419D01*
X0448753Y0382261D01*
X0448763Y0382103D01*
X0448769Y0381945D01*
X0448771Y0381787D01*
X0448769Y0381629D01*
X0448763Y0381471D01*
X0448753Y0381313D01*
X0448739Y0381155D01*
X0448721Y0380998D01*
X0448700Y0380841D01*
X0448674Y0380685D01*
X0448644Y0380529D01*
X0448611Y0380374D01*
X0448573Y0380221D01*
X0448532Y0380068D01*
X0448487Y0379916D01*
X0448438Y0379765D01*
X0448385Y0379616D01*
X0448329Y0379468D01*
X0448269Y0379322D01*
X0448205Y0379177D01*
X0448137Y0379034D01*
X0448066Y0378892D01*
X0447992Y0378752D01*
X0447914Y0378615D01*
X0447832Y0378479D01*
X0447748Y0378345D01*
X0447659Y0378214D01*
X0447568Y0378085D01*
X0447473Y0377958D01*
X0447376Y0377833D01*
X0447275Y0377711D01*
X0447171Y0377592D01*
X0447064Y0377475D01*
X0446954Y0377361D01*
X0446841Y0377250D01*
X0446726Y0377141D01*
X0446608Y0377036D01*
X0446487Y0376934D01*
X0446364Y0376834D01*
X0446238Y0376738D01*
X0446110Y0376645D01*
X0445980Y0376555D01*
X0445847Y0376469D01*
X0445712Y0376385D01*
X0445576Y0376306D01*
X0445437Y0376229D01*
X0445296Y0376157D01*
X0445154Y0376087D01*
X0445010Y0376022D01*
X0444864Y0375960D01*
X0444717Y0375902D01*
X0444568Y0375847D01*
X0444418Y0375796D01*
X0444267Y0375749D01*
X0444115Y0375706D01*
X0443962Y0375667D01*
X0443807Y0375631D01*
X0443652Y0375600D01*
X0443496Y0375572D01*
X0443340Y0375548D01*
X0443183Y0375528D01*
X0443025Y0375512D01*
X0442868Y0375500D01*
X0442709Y0375492D01*
X0442551Y0375488D01*
X0442393Y0375488D01*
X0442235Y0375492D01*
X0442076Y0375500D01*
X0441919Y0375512D01*
X0441761Y0375528D01*
X0441604Y0375548D01*
X0441448Y0375572D01*
X0441292Y0375600D01*
X0441137Y0375631D01*
X0440982Y0375667D01*
X0440829Y0375706D01*
X0440677Y0375749D01*
X0440526Y0375796D01*
X0440376Y0375847D01*
X0440227Y0375902D01*
X0440080Y0375960D01*
X0439934Y0376022D01*
X0439790Y0376087D01*
X0439648Y0376157D01*
X0439507Y0376229D01*
X0439368Y0376306D01*
X0439232Y0376385D01*
X0439097Y0376469D01*
X0438964Y0376555D01*
X0438834Y0376645D01*
X0438706Y0376738D01*
X0438580Y0376834D01*
X0438457Y0376934D01*
X0438336Y0377036D01*
X0438218Y0377141D01*
X0438103Y0377250D01*
X0437990Y0377361D01*
X0437880Y0377475D01*
X0437773Y0377592D01*
X0437669Y0377711D01*
X0437568Y0377833D01*
X0437471Y0377958D01*
X0437376Y0378085D01*
X0437285Y0378214D01*
X0437196Y0378345D01*
X0437112Y0378479D01*
X0437030Y0378615D01*
X0436952Y0378752D01*
X0436878Y0378892D01*
X0436807Y0379034D01*
X0436739Y0379177D01*
X0436675Y0379322D01*
X0436615Y0379468D01*
X0436559Y0379616D01*
X0436506Y0379765D01*
X0436457Y0379916D01*
X0436412Y0380068D01*
X0436371Y0380221D01*
X0436333Y0380374D01*
X0436300Y0380529D01*
X0436270Y0380685D01*
X0436244Y0380841D01*
X0436223Y0380998D01*
X0436205Y0381155D01*
X0436191Y0381313D01*
X0436181Y0381471D01*
X0436175Y0381629D01*
X0436173Y0381787D01*
X0072423Y0381787D02*
X0072425Y0381945D01*
X0072431Y0382103D01*
X0072441Y0382261D01*
X0072455Y0382419D01*
X0072473Y0382576D01*
X0072494Y0382733D01*
X0072520Y0382889D01*
X0072550Y0383045D01*
X0072583Y0383200D01*
X0072621Y0383353D01*
X0072662Y0383506D01*
X0072707Y0383658D01*
X0072756Y0383809D01*
X0072809Y0383958D01*
X0072865Y0384106D01*
X0072925Y0384252D01*
X0072989Y0384397D01*
X0073057Y0384540D01*
X0073128Y0384682D01*
X0073202Y0384822D01*
X0073280Y0384959D01*
X0073362Y0385095D01*
X0073446Y0385229D01*
X0073535Y0385360D01*
X0073626Y0385489D01*
X0073721Y0385616D01*
X0073818Y0385741D01*
X0073919Y0385863D01*
X0074023Y0385982D01*
X0074130Y0386099D01*
X0074240Y0386213D01*
X0074353Y0386324D01*
X0074468Y0386433D01*
X0074586Y0386538D01*
X0074707Y0386640D01*
X0074830Y0386740D01*
X0074956Y0386836D01*
X0075084Y0386929D01*
X0075214Y0387019D01*
X0075347Y0387105D01*
X0075482Y0387189D01*
X0075618Y0387268D01*
X0075757Y0387345D01*
X0075898Y0387417D01*
X0076040Y0387487D01*
X0076184Y0387552D01*
X0076330Y0387614D01*
X0076477Y0387672D01*
X0076626Y0387727D01*
X0076776Y0387778D01*
X0076927Y0387825D01*
X0077079Y0387868D01*
X0077232Y0387907D01*
X0077387Y0387943D01*
X0077542Y0387974D01*
X0077698Y0388002D01*
X0077854Y0388026D01*
X0078011Y0388046D01*
X0078169Y0388062D01*
X0078326Y0388074D01*
X0078485Y0388082D01*
X0078643Y0388086D01*
X0078801Y0388086D01*
X0078959Y0388082D01*
X0079118Y0388074D01*
X0079275Y0388062D01*
X0079433Y0388046D01*
X0079590Y0388026D01*
X0079746Y0388002D01*
X0079902Y0387974D01*
X0080057Y0387943D01*
X0080212Y0387907D01*
X0080365Y0387868D01*
X0080517Y0387825D01*
X0080668Y0387778D01*
X0080818Y0387727D01*
X0080967Y0387672D01*
X0081114Y0387614D01*
X0081260Y0387552D01*
X0081404Y0387487D01*
X0081546Y0387417D01*
X0081687Y0387345D01*
X0081826Y0387268D01*
X0081962Y0387189D01*
X0082097Y0387105D01*
X0082230Y0387019D01*
X0082360Y0386929D01*
X0082488Y0386836D01*
X0082614Y0386740D01*
X0082737Y0386640D01*
X0082858Y0386538D01*
X0082976Y0386433D01*
X0083091Y0386324D01*
X0083204Y0386213D01*
X0083314Y0386099D01*
X0083421Y0385982D01*
X0083525Y0385863D01*
X0083626Y0385741D01*
X0083723Y0385616D01*
X0083818Y0385489D01*
X0083909Y0385360D01*
X0083998Y0385229D01*
X0084082Y0385095D01*
X0084164Y0384959D01*
X0084242Y0384822D01*
X0084316Y0384682D01*
X0084387Y0384540D01*
X0084455Y0384397D01*
X0084519Y0384252D01*
X0084579Y0384106D01*
X0084635Y0383958D01*
X0084688Y0383809D01*
X0084737Y0383658D01*
X0084782Y0383506D01*
X0084823Y0383353D01*
X0084861Y0383200D01*
X0084894Y0383045D01*
X0084924Y0382889D01*
X0084950Y0382733D01*
X0084971Y0382576D01*
X0084989Y0382419D01*
X0085003Y0382261D01*
X0085013Y0382103D01*
X0085019Y0381945D01*
X0085021Y0381787D01*
X0085019Y0381629D01*
X0085013Y0381471D01*
X0085003Y0381313D01*
X0084989Y0381155D01*
X0084971Y0380998D01*
X0084950Y0380841D01*
X0084924Y0380685D01*
X0084894Y0380529D01*
X0084861Y0380374D01*
X0084823Y0380221D01*
X0084782Y0380068D01*
X0084737Y0379916D01*
X0084688Y0379765D01*
X0084635Y0379616D01*
X0084579Y0379468D01*
X0084519Y0379322D01*
X0084455Y0379177D01*
X0084387Y0379034D01*
X0084316Y0378892D01*
X0084242Y0378752D01*
X0084164Y0378615D01*
X0084082Y0378479D01*
X0083998Y0378345D01*
X0083909Y0378214D01*
X0083818Y0378085D01*
X0083723Y0377958D01*
X0083626Y0377833D01*
X0083525Y0377711D01*
X0083421Y0377592D01*
X0083314Y0377475D01*
X0083204Y0377361D01*
X0083091Y0377250D01*
X0082976Y0377141D01*
X0082858Y0377036D01*
X0082737Y0376934D01*
X0082614Y0376834D01*
X0082488Y0376738D01*
X0082360Y0376645D01*
X0082230Y0376555D01*
X0082097Y0376469D01*
X0081962Y0376385D01*
X0081826Y0376306D01*
X0081687Y0376229D01*
X0081546Y0376157D01*
X0081404Y0376087D01*
X0081260Y0376022D01*
X0081114Y0375960D01*
X0080967Y0375902D01*
X0080818Y0375847D01*
X0080668Y0375796D01*
X0080517Y0375749D01*
X0080365Y0375706D01*
X0080212Y0375667D01*
X0080057Y0375631D01*
X0079902Y0375600D01*
X0079746Y0375572D01*
X0079590Y0375548D01*
X0079433Y0375528D01*
X0079275Y0375512D01*
X0079118Y0375500D01*
X0078959Y0375492D01*
X0078801Y0375488D01*
X0078643Y0375488D01*
X0078485Y0375492D01*
X0078326Y0375500D01*
X0078169Y0375512D01*
X0078011Y0375528D01*
X0077854Y0375548D01*
X0077698Y0375572D01*
X0077542Y0375600D01*
X0077387Y0375631D01*
X0077232Y0375667D01*
X0077079Y0375706D01*
X0076927Y0375749D01*
X0076776Y0375796D01*
X0076626Y0375847D01*
X0076477Y0375902D01*
X0076330Y0375960D01*
X0076184Y0376022D01*
X0076040Y0376087D01*
X0075898Y0376157D01*
X0075757Y0376229D01*
X0075618Y0376306D01*
X0075482Y0376385D01*
X0075347Y0376469D01*
X0075214Y0376555D01*
X0075084Y0376645D01*
X0074956Y0376738D01*
X0074830Y0376834D01*
X0074707Y0376934D01*
X0074586Y0377036D01*
X0074468Y0377141D01*
X0074353Y0377250D01*
X0074240Y0377361D01*
X0074130Y0377475D01*
X0074023Y0377592D01*
X0073919Y0377711D01*
X0073818Y0377833D01*
X0073721Y0377958D01*
X0073626Y0378085D01*
X0073535Y0378214D01*
X0073446Y0378345D01*
X0073362Y0378479D01*
X0073280Y0378615D01*
X0073202Y0378752D01*
X0073128Y0378892D01*
X0073057Y0379034D01*
X0072989Y0379177D01*
X0072925Y0379322D01*
X0072865Y0379468D01*
X0072809Y0379616D01*
X0072756Y0379765D01*
X0072707Y0379916D01*
X0072662Y0380068D01*
X0072621Y0380221D01*
X0072583Y0380374D01*
X0072550Y0380529D01*
X0072520Y0380685D01*
X0072494Y0380841D01*
X0072473Y0380998D01*
X0072455Y0381155D01*
X0072441Y0381313D01*
X0072431Y0381471D01*
X0072425Y0381629D01*
X0072423Y0381787D01*
M02*
