G75*
%MOIN*%
%OFA0B0*%
%FSLAX25Y25*%
%IPPOS*%
%LPD*%
%AMOC8*
5,1,8,0,0,1.08239X$1,22.5*
%
%ADD10C,0.00000*%
%ADD11C,0.00800*%
%ADD12C,0.01100*%
%ADD13C,0.01000*%
%ADD14C,0.00700*%
%ADD15C,0.01575*%
%ADD16C,0.00600*%
%ADD17R,0.05002X0.07502*%
%ADD18R,0.07502X0.05002*%
D10*
X0064972Y0005537D02*
X0064972Y0397988D01*
X0457394Y0397988D01*
X0457394Y0005537D01*
X0064972Y0005537D01*
X0072423Y0020537D02*
X0072425Y0020695D01*
X0072431Y0020853D01*
X0072441Y0021011D01*
X0072455Y0021169D01*
X0072473Y0021326D01*
X0072494Y0021483D01*
X0072520Y0021639D01*
X0072550Y0021795D01*
X0072583Y0021950D01*
X0072621Y0022103D01*
X0072662Y0022256D01*
X0072707Y0022408D01*
X0072756Y0022559D01*
X0072809Y0022708D01*
X0072865Y0022856D01*
X0072925Y0023002D01*
X0072989Y0023147D01*
X0073057Y0023290D01*
X0073128Y0023432D01*
X0073202Y0023572D01*
X0073280Y0023709D01*
X0073362Y0023845D01*
X0073446Y0023979D01*
X0073535Y0024110D01*
X0073626Y0024239D01*
X0073721Y0024366D01*
X0073818Y0024491D01*
X0073919Y0024613D01*
X0074023Y0024732D01*
X0074130Y0024849D01*
X0074240Y0024963D01*
X0074353Y0025074D01*
X0074468Y0025183D01*
X0074586Y0025288D01*
X0074707Y0025390D01*
X0074830Y0025490D01*
X0074956Y0025586D01*
X0075084Y0025679D01*
X0075214Y0025769D01*
X0075347Y0025855D01*
X0075482Y0025939D01*
X0075618Y0026018D01*
X0075757Y0026095D01*
X0075898Y0026167D01*
X0076040Y0026237D01*
X0076184Y0026302D01*
X0076330Y0026364D01*
X0076477Y0026422D01*
X0076626Y0026477D01*
X0076776Y0026528D01*
X0076927Y0026575D01*
X0077079Y0026618D01*
X0077232Y0026657D01*
X0077387Y0026693D01*
X0077542Y0026724D01*
X0077698Y0026752D01*
X0077854Y0026776D01*
X0078011Y0026796D01*
X0078169Y0026812D01*
X0078326Y0026824D01*
X0078485Y0026832D01*
X0078643Y0026836D01*
X0078801Y0026836D01*
X0078959Y0026832D01*
X0079118Y0026824D01*
X0079275Y0026812D01*
X0079433Y0026796D01*
X0079590Y0026776D01*
X0079746Y0026752D01*
X0079902Y0026724D01*
X0080057Y0026693D01*
X0080212Y0026657D01*
X0080365Y0026618D01*
X0080517Y0026575D01*
X0080668Y0026528D01*
X0080818Y0026477D01*
X0080967Y0026422D01*
X0081114Y0026364D01*
X0081260Y0026302D01*
X0081404Y0026237D01*
X0081546Y0026167D01*
X0081687Y0026095D01*
X0081826Y0026018D01*
X0081962Y0025939D01*
X0082097Y0025855D01*
X0082230Y0025769D01*
X0082360Y0025679D01*
X0082488Y0025586D01*
X0082614Y0025490D01*
X0082737Y0025390D01*
X0082858Y0025288D01*
X0082976Y0025183D01*
X0083091Y0025074D01*
X0083204Y0024963D01*
X0083314Y0024849D01*
X0083421Y0024732D01*
X0083525Y0024613D01*
X0083626Y0024491D01*
X0083723Y0024366D01*
X0083818Y0024239D01*
X0083909Y0024110D01*
X0083998Y0023979D01*
X0084082Y0023845D01*
X0084164Y0023709D01*
X0084242Y0023572D01*
X0084316Y0023432D01*
X0084387Y0023290D01*
X0084455Y0023147D01*
X0084519Y0023002D01*
X0084579Y0022856D01*
X0084635Y0022708D01*
X0084688Y0022559D01*
X0084737Y0022408D01*
X0084782Y0022256D01*
X0084823Y0022103D01*
X0084861Y0021950D01*
X0084894Y0021795D01*
X0084924Y0021639D01*
X0084950Y0021483D01*
X0084971Y0021326D01*
X0084989Y0021169D01*
X0085003Y0021011D01*
X0085013Y0020853D01*
X0085019Y0020695D01*
X0085021Y0020537D01*
X0085019Y0020379D01*
X0085013Y0020221D01*
X0085003Y0020063D01*
X0084989Y0019905D01*
X0084971Y0019748D01*
X0084950Y0019591D01*
X0084924Y0019435D01*
X0084894Y0019279D01*
X0084861Y0019124D01*
X0084823Y0018971D01*
X0084782Y0018818D01*
X0084737Y0018666D01*
X0084688Y0018515D01*
X0084635Y0018366D01*
X0084579Y0018218D01*
X0084519Y0018072D01*
X0084455Y0017927D01*
X0084387Y0017784D01*
X0084316Y0017642D01*
X0084242Y0017502D01*
X0084164Y0017365D01*
X0084082Y0017229D01*
X0083998Y0017095D01*
X0083909Y0016964D01*
X0083818Y0016835D01*
X0083723Y0016708D01*
X0083626Y0016583D01*
X0083525Y0016461D01*
X0083421Y0016342D01*
X0083314Y0016225D01*
X0083204Y0016111D01*
X0083091Y0016000D01*
X0082976Y0015891D01*
X0082858Y0015786D01*
X0082737Y0015684D01*
X0082614Y0015584D01*
X0082488Y0015488D01*
X0082360Y0015395D01*
X0082230Y0015305D01*
X0082097Y0015219D01*
X0081962Y0015135D01*
X0081826Y0015056D01*
X0081687Y0014979D01*
X0081546Y0014907D01*
X0081404Y0014837D01*
X0081260Y0014772D01*
X0081114Y0014710D01*
X0080967Y0014652D01*
X0080818Y0014597D01*
X0080668Y0014546D01*
X0080517Y0014499D01*
X0080365Y0014456D01*
X0080212Y0014417D01*
X0080057Y0014381D01*
X0079902Y0014350D01*
X0079746Y0014322D01*
X0079590Y0014298D01*
X0079433Y0014278D01*
X0079275Y0014262D01*
X0079118Y0014250D01*
X0078959Y0014242D01*
X0078801Y0014238D01*
X0078643Y0014238D01*
X0078485Y0014242D01*
X0078326Y0014250D01*
X0078169Y0014262D01*
X0078011Y0014278D01*
X0077854Y0014298D01*
X0077698Y0014322D01*
X0077542Y0014350D01*
X0077387Y0014381D01*
X0077232Y0014417D01*
X0077079Y0014456D01*
X0076927Y0014499D01*
X0076776Y0014546D01*
X0076626Y0014597D01*
X0076477Y0014652D01*
X0076330Y0014710D01*
X0076184Y0014772D01*
X0076040Y0014837D01*
X0075898Y0014907D01*
X0075757Y0014979D01*
X0075618Y0015056D01*
X0075482Y0015135D01*
X0075347Y0015219D01*
X0075214Y0015305D01*
X0075084Y0015395D01*
X0074956Y0015488D01*
X0074830Y0015584D01*
X0074707Y0015684D01*
X0074586Y0015786D01*
X0074468Y0015891D01*
X0074353Y0016000D01*
X0074240Y0016111D01*
X0074130Y0016225D01*
X0074023Y0016342D01*
X0073919Y0016461D01*
X0073818Y0016583D01*
X0073721Y0016708D01*
X0073626Y0016835D01*
X0073535Y0016964D01*
X0073446Y0017095D01*
X0073362Y0017229D01*
X0073280Y0017365D01*
X0073202Y0017502D01*
X0073128Y0017642D01*
X0073057Y0017784D01*
X0072989Y0017927D01*
X0072925Y0018072D01*
X0072865Y0018218D01*
X0072809Y0018366D01*
X0072756Y0018515D01*
X0072707Y0018666D01*
X0072662Y0018818D01*
X0072621Y0018971D01*
X0072583Y0019124D01*
X0072550Y0019279D01*
X0072520Y0019435D01*
X0072494Y0019591D01*
X0072473Y0019748D01*
X0072455Y0019905D01*
X0072441Y0020063D01*
X0072431Y0020221D01*
X0072425Y0020379D01*
X0072423Y0020537D01*
X0436173Y0020537D02*
X0436175Y0020695D01*
X0436181Y0020853D01*
X0436191Y0021011D01*
X0436205Y0021169D01*
X0436223Y0021326D01*
X0436244Y0021483D01*
X0436270Y0021639D01*
X0436300Y0021795D01*
X0436333Y0021950D01*
X0436371Y0022103D01*
X0436412Y0022256D01*
X0436457Y0022408D01*
X0436506Y0022559D01*
X0436559Y0022708D01*
X0436615Y0022856D01*
X0436675Y0023002D01*
X0436739Y0023147D01*
X0436807Y0023290D01*
X0436878Y0023432D01*
X0436952Y0023572D01*
X0437030Y0023709D01*
X0437112Y0023845D01*
X0437196Y0023979D01*
X0437285Y0024110D01*
X0437376Y0024239D01*
X0437471Y0024366D01*
X0437568Y0024491D01*
X0437669Y0024613D01*
X0437773Y0024732D01*
X0437880Y0024849D01*
X0437990Y0024963D01*
X0438103Y0025074D01*
X0438218Y0025183D01*
X0438336Y0025288D01*
X0438457Y0025390D01*
X0438580Y0025490D01*
X0438706Y0025586D01*
X0438834Y0025679D01*
X0438964Y0025769D01*
X0439097Y0025855D01*
X0439232Y0025939D01*
X0439368Y0026018D01*
X0439507Y0026095D01*
X0439648Y0026167D01*
X0439790Y0026237D01*
X0439934Y0026302D01*
X0440080Y0026364D01*
X0440227Y0026422D01*
X0440376Y0026477D01*
X0440526Y0026528D01*
X0440677Y0026575D01*
X0440829Y0026618D01*
X0440982Y0026657D01*
X0441137Y0026693D01*
X0441292Y0026724D01*
X0441448Y0026752D01*
X0441604Y0026776D01*
X0441761Y0026796D01*
X0441919Y0026812D01*
X0442076Y0026824D01*
X0442235Y0026832D01*
X0442393Y0026836D01*
X0442551Y0026836D01*
X0442709Y0026832D01*
X0442868Y0026824D01*
X0443025Y0026812D01*
X0443183Y0026796D01*
X0443340Y0026776D01*
X0443496Y0026752D01*
X0443652Y0026724D01*
X0443807Y0026693D01*
X0443962Y0026657D01*
X0444115Y0026618D01*
X0444267Y0026575D01*
X0444418Y0026528D01*
X0444568Y0026477D01*
X0444717Y0026422D01*
X0444864Y0026364D01*
X0445010Y0026302D01*
X0445154Y0026237D01*
X0445296Y0026167D01*
X0445437Y0026095D01*
X0445576Y0026018D01*
X0445712Y0025939D01*
X0445847Y0025855D01*
X0445980Y0025769D01*
X0446110Y0025679D01*
X0446238Y0025586D01*
X0446364Y0025490D01*
X0446487Y0025390D01*
X0446608Y0025288D01*
X0446726Y0025183D01*
X0446841Y0025074D01*
X0446954Y0024963D01*
X0447064Y0024849D01*
X0447171Y0024732D01*
X0447275Y0024613D01*
X0447376Y0024491D01*
X0447473Y0024366D01*
X0447568Y0024239D01*
X0447659Y0024110D01*
X0447748Y0023979D01*
X0447832Y0023845D01*
X0447914Y0023709D01*
X0447992Y0023572D01*
X0448066Y0023432D01*
X0448137Y0023290D01*
X0448205Y0023147D01*
X0448269Y0023002D01*
X0448329Y0022856D01*
X0448385Y0022708D01*
X0448438Y0022559D01*
X0448487Y0022408D01*
X0448532Y0022256D01*
X0448573Y0022103D01*
X0448611Y0021950D01*
X0448644Y0021795D01*
X0448674Y0021639D01*
X0448700Y0021483D01*
X0448721Y0021326D01*
X0448739Y0021169D01*
X0448753Y0021011D01*
X0448763Y0020853D01*
X0448769Y0020695D01*
X0448771Y0020537D01*
X0448769Y0020379D01*
X0448763Y0020221D01*
X0448753Y0020063D01*
X0448739Y0019905D01*
X0448721Y0019748D01*
X0448700Y0019591D01*
X0448674Y0019435D01*
X0448644Y0019279D01*
X0448611Y0019124D01*
X0448573Y0018971D01*
X0448532Y0018818D01*
X0448487Y0018666D01*
X0448438Y0018515D01*
X0448385Y0018366D01*
X0448329Y0018218D01*
X0448269Y0018072D01*
X0448205Y0017927D01*
X0448137Y0017784D01*
X0448066Y0017642D01*
X0447992Y0017502D01*
X0447914Y0017365D01*
X0447832Y0017229D01*
X0447748Y0017095D01*
X0447659Y0016964D01*
X0447568Y0016835D01*
X0447473Y0016708D01*
X0447376Y0016583D01*
X0447275Y0016461D01*
X0447171Y0016342D01*
X0447064Y0016225D01*
X0446954Y0016111D01*
X0446841Y0016000D01*
X0446726Y0015891D01*
X0446608Y0015786D01*
X0446487Y0015684D01*
X0446364Y0015584D01*
X0446238Y0015488D01*
X0446110Y0015395D01*
X0445980Y0015305D01*
X0445847Y0015219D01*
X0445712Y0015135D01*
X0445576Y0015056D01*
X0445437Y0014979D01*
X0445296Y0014907D01*
X0445154Y0014837D01*
X0445010Y0014772D01*
X0444864Y0014710D01*
X0444717Y0014652D01*
X0444568Y0014597D01*
X0444418Y0014546D01*
X0444267Y0014499D01*
X0444115Y0014456D01*
X0443962Y0014417D01*
X0443807Y0014381D01*
X0443652Y0014350D01*
X0443496Y0014322D01*
X0443340Y0014298D01*
X0443183Y0014278D01*
X0443025Y0014262D01*
X0442868Y0014250D01*
X0442709Y0014242D01*
X0442551Y0014238D01*
X0442393Y0014238D01*
X0442235Y0014242D01*
X0442076Y0014250D01*
X0441919Y0014262D01*
X0441761Y0014278D01*
X0441604Y0014298D01*
X0441448Y0014322D01*
X0441292Y0014350D01*
X0441137Y0014381D01*
X0440982Y0014417D01*
X0440829Y0014456D01*
X0440677Y0014499D01*
X0440526Y0014546D01*
X0440376Y0014597D01*
X0440227Y0014652D01*
X0440080Y0014710D01*
X0439934Y0014772D01*
X0439790Y0014837D01*
X0439648Y0014907D01*
X0439507Y0014979D01*
X0439368Y0015056D01*
X0439232Y0015135D01*
X0439097Y0015219D01*
X0438964Y0015305D01*
X0438834Y0015395D01*
X0438706Y0015488D01*
X0438580Y0015584D01*
X0438457Y0015684D01*
X0438336Y0015786D01*
X0438218Y0015891D01*
X0438103Y0016000D01*
X0437990Y0016111D01*
X0437880Y0016225D01*
X0437773Y0016342D01*
X0437669Y0016461D01*
X0437568Y0016583D01*
X0437471Y0016708D01*
X0437376Y0016835D01*
X0437285Y0016964D01*
X0437196Y0017095D01*
X0437112Y0017229D01*
X0437030Y0017365D01*
X0436952Y0017502D01*
X0436878Y0017642D01*
X0436807Y0017784D01*
X0436739Y0017927D01*
X0436675Y0018072D01*
X0436615Y0018218D01*
X0436559Y0018366D01*
X0436506Y0018515D01*
X0436457Y0018666D01*
X0436412Y0018818D01*
X0436371Y0018971D01*
X0436333Y0019124D01*
X0436300Y0019279D01*
X0436270Y0019435D01*
X0436244Y0019591D01*
X0436223Y0019748D01*
X0436205Y0019905D01*
X0436191Y0020063D01*
X0436181Y0020221D01*
X0436175Y0020379D01*
X0436173Y0020537D01*
X0436173Y0381787D02*
X0436175Y0381945D01*
X0436181Y0382103D01*
X0436191Y0382261D01*
X0436205Y0382419D01*
X0436223Y0382576D01*
X0436244Y0382733D01*
X0436270Y0382889D01*
X0436300Y0383045D01*
X0436333Y0383200D01*
X0436371Y0383353D01*
X0436412Y0383506D01*
X0436457Y0383658D01*
X0436506Y0383809D01*
X0436559Y0383958D01*
X0436615Y0384106D01*
X0436675Y0384252D01*
X0436739Y0384397D01*
X0436807Y0384540D01*
X0436878Y0384682D01*
X0436952Y0384822D01*
X0437030Y0384959D01*
X0437112Y0385095D01*
X0437196Y0385229D01*
X0437285Y0385360D01*
X0437376Y0385489D01*
X0437471Y0385616D01*
X0437568Y0385741D01*
X0437669Y0385863D01*
X0437773Y0385982D01*
X0437880Y0386099D01*
X0437990Y0386213D01*
X0438103Y0386324D01*
X0438218Y0386433D01*
X0438336Y0386538D01*
X0438457Y0386640D01*
X0438580Y0386740D01*
X0438706Y0386836D01*
X0438834Y0386929D01*
X0438964Y0387019D01*
X0439097Y0387105D01*
X0439232Y0387189D01*
X0439368Y0387268D01*
X0439507Y0387345D01*
X0439648Y0387417D01*
X0439790Y0387487D01*
X0439934Y0387552D01*
X0440080Y0387614D01*
X0440227Y0387672D01*
X0440376Y0387727D01*
X0440526Y0387778D01*
X0440677Y0387825D01*
X0440829Y0387868D01*
X0440982Y0387907D01*
X0441137Y0387943D01*
X0441292Y0387974D01*
X0441448Y0388002D01*
X0441604Y0388026D01*
X0441761Y0388046D01*
X0441919Y0388062D01*
X0442076Y0388074D01*
X0442235Y0388082D01*
X0442393Y0388086D01*
X0442551Y0388086D01*
X0442709Y0388082D01*
X0442868Y0388074D01*
X0443025Y0388062D01*
X0443183Y0388046D01*
X0443340Y0388026D01*
X0443496Y0388002D01*
X0443652Y0387974D01*
X0443807Y0387943D01*
X0443962Y0387907D01*
X0444115Y0387868D01*
X0444267Y0387825D01*
X0444418Y0387778D01*
X0444568Y0387727D01*
X0444717Y0387672D01*
X0444864Y0387614D01*
X0445010Y0387552D01*
X0445154Y0387487D01*
X0445296Y0387417D01*
X0445437Y0387345D01*
X0445576Y0387268D01*
X0445712Y0387189D01*
X0445847Y0387105D01*
X0445980Y0387019D01*
X0446110Y0386929D01*
X0446238Y0386836D01*
X0446364Y0386740D01*
X0446487Y0386640D01*
X0446608Y0386538D01*
X0446726Y0386433D01*
X0446841Y0386324D01*
X0446954Y0386213D01*
X0447064Y0386099D01*
X0447171Y0385982D01*
X0447275Y0385863D01*
X0447376Y0385741D01*
X0447473Y0385616D01*
X0447568Y0385489D01*
X0447659Y0385360D01*
X0447748Y0385229D01*
X0447832Y0385095D01*
X0447914Y0384959D01*
X0447992Y0384822D01*
X0448066Y0384682D01*
X0448137Y0384540D01*
X0448205Y0384397D01*
X0448269Y0384252D01*
X0448329Y0384106D01*
X0448385Y0383958D01*
X0448438Y0383809D01*
X0448487Y0383658D01*
X0448532Y0383506D01*
X0448573Y0383353D01*
X0448611Y0383200D01*
X0448644Y0383045D01*
X0448674Y0382889D01*
X0448700Y0382733D01*
X0448721Y0382576D01*
X0448739Y0382419D01*
X0448753Y0382261D01*
X0448763Y0382103D01*
X0448769Y0381945D01*
X0448771Y0381787D01*
X0448769Y0381629D01*
X0448763Y0381471D01*
X0448753Y0381313D01*
X0448739Y0381155D01*
X0448721Y0380998D01*
X0448700Y0380841D01*
X0448674Y0380685D01*
X0448644Y0380529D01*
X0448611Y0380374D01*
X0448573Y0380221D01*
X0448532Y0380068D01*
X0448487Y0379916D01*
X0448438Y0379765D01*
X0448385Y0379616D01*
X0448329Y0379468D01*
X0448269Y0379322D01*
X0448205Y0379177D01*
X0448137Y0379034D01*
X0448066Y0378892D01*
X0447992Y0378752D01*
X0447914Y0378615D01*
X0447832Y0378479D01*
X0447748Y0378345D01*
X0447659Y0378214D01*
X0447568Y0378085D01*
X0447473Y0377958D01*
X0447376Y0377833D01*
X0447275Y0377711D01*
X0447171Y0377592D01*
X0447064Y0377475D01*
X0446954Y0377361D01*
X0446841Y0377250D01*
X0446726Y0377141D01*
X0446608Y0377036D01*
X0446487Y0376934D01*
X0446364Y0376834D01*
X0446238Y0376738D01*
X0446110Y0376645D01*
X0445980Y0376555D01*
X0445847Y0376469D01*
X0445712Y0376385D01*
X0445576Y0376306D01*
X0445437Y0376229D01*
X0445296Y0376157D01*
X0445154Y0376087D01*
X0445010Y0376022D01*
X0444864Y0375960D01*
X0444717Y0375902D01*
X0444568Y0375847D01*
X0444418Y0375796D01*
X0444267Y0375749D01*
X0444115Y0375706D01*
X0443962Y0375667D01*
X0443807Y0375631D01*
X0443652Y0375600D01*
X0443496Y0375572D01*
X0443340Y0375548D01*
X0443183Y0375528D01*
X0443025Y0375512D01*
X0442868Y0375500D01*
X0442709Y0375492D01*
X0442551Y0375488D01*
X0442393Y0375488D01*
X0442235Y0375492D01*
X0442076Y0375500D01*
X0441919Y0375512D01*
X0441761Y0375528D01*
X0441604Y0375548D01*
X0441448Y0375572D01*
X0441292Y0375600D01*
X0441137Y0375631D01*
X0440982Y0375667D01*
X0440829Y0375706D01*
X0440677Y0375749D01*
X0440526Y0375796D01*
X0440376Y0375847D01*
X0440227Y0375902D01*
X0440080Y0375960D01*
X0439934Y0376022D01*
X0439790Y0376087D01*
X0439648Y0376157D01*
X0439507Y0376229D01*
X0439368Y0376306D01*
X0439232Y0376385D01*
X0439097Y0376469D01*
X0438964Y0376555D01*
X0438834Y0376645D01*
X0438706Y0376738D01*
X0438580Y0376834D01*
X0438457Y0376934D01*
X0438336Y0377036D01*
X0438218Y0377141D01*
X0438103Y0377250D01*
X0437990Y0377361D01*
X0437880Y0377475D01*
X0437773Y0377592D01*
X0437669Y0377711D01*
X0437568Y0377833D01*
X0437471Y0377958D01*
X0437376Y0378085D01*
X0437285Y0378214D01*
X0437196Y0378345D01*
X0437112Y0378479D01*
X0437030Y0378615D01*
X0436952Y0378752D01*
X0436878Y0378892D01*
X0436807Y0379034D01*
X0436739Y0379177D01*
X0436675Y0379322D01*
X0436615Y0379468D01*
X0436559Y0379616D01*
X0436506Y0379765D01*
X0436457Y0379916D01*
X0436412Y0380068D01*
X0436371Y0380221D01*
X0436333Y0380374D01*
X0436300Y0380529D01*
X0436270Y0380685D01*
X0436244Y0380841D01*
X0436223Y0380998D01*
X0436205Y0381155D01*
X0436191Y0381313D01*
X0436181Y0381471D01*
X0436175Y0381629D01*
X0436173Y0381787D01*
X0072423Y0381787D02*
X0072425Y0381945D01*
X0072431Y0382103D01*
X0072441Y0382261D01*
X0072455Y0382419D01*
X0072473Y0382576D01*
X0072494Y0382733D01*
X0072520Y0382889D01*
X0072550Y0383045D01*
X0072583Y0383200D01*
X0072621Y0383353D01*
X0072662Y0383506D01*
X0072707Y0383658D01*
X0072756Y0383809D01*
X0072809Y0383958D01*
X0072865Y0384106D01*
X0072925Y0384252D01*
X0072989Y0384397D01*
X0073057Y0384540D01*
X0073128Y0384682D01*
X0073202Y0384822D01*
X0073280Y0384959D01*
X0073362Y0385095D01*
X0073446Y0385229D01*
X0073535Y0385360D01*
X0073626Y0385489D01*
X0073721Y0385616D01*
X0073818Y0385741D01*
X0073919Y0385863D01*
X0074023Y0385982D01*
X0074130Y0386099D01*
X0074240Y0386213D01*
X0074353Y0386324D01*
X0074468Y0386433D01*
X0074586Y0386538D01*
X0074707Y0386640D01*
X0074830Y0386740D01*
X0074956Y0386836D01*
X0075084Y0386929D01*
X0075214Y0387019D01*
X0075347Y0387105D01*
X0075482Y0387189D01*
X0075618Y0387268D01*
X0075757Y0387345D01*
X0075898Y0387417D01*
X0076040Y0387487D01*
X0076184Y0387552D01*
X0076330Y0387614D01*
X0076477Y0387672D01*
X0076626Y0387727D01*
X0076776Y0387778D01*
X0076927Y0387825D01*
X0077079Y0387868D01*
X0077232Y0387907D01*
X0077387Y0387943D01*
X0077542Y0387974D01*
X0077698Y0388002D01*
X0077854Y0388026D01*
X0078011Y0388046D01*
X0078169Y0388062D01*
X0078326Y0388074D01*
X0078485Y0388082D01*
X0078643Y0388086D01*
X0078801Y0388086D01*
X0078959Y0388082D01*
X0079118Y0388074D01*
X0079275Y0388062D01*
X0079433Y0388046D01*
X0079590Y0388026D01*
X0079746Y0388002D01*
X0079902Y0387974D01*
X0080057Y0387943D01*
X0080212Y0387907D01*
X0080365Y0387868D01*
X0080517Y0387825D01*
X0080668Y0387778D01*
X0080818Y0387727D01*
X0080967Y0387672D01*
X0081114Y0387614D01*
X0081260Y0387552D01*
X0081404Y0387487D01*
X0081546Y0387417D01*
X0081687Y0387345D01*
X0081826Y0387268D01*
X0081962Y0387189D01*
X0082097Y0387105D01*
X0082230Y0387019D01*
X0082360Y0386929D01*
X0082488Y0386836D01*
X0082614Y0386740D01*
X0082737Y0386640D01*
X0082858Y0386538D01*
X0082976Y0386433D01*
X0083091Y0386324D01*
X0083204Y0386213D01*
X0083314Y0386099D01*
X0083421Y0385982D01*
X0083525Y0385863D01*
X0083626Y0385741D01*
X0083723Y0385616D01*
X0083818Y0385489D01*
X0083909Y0385360D01*
X0083998Y0385229D01*
X0084082Y0385095D01*
X0084164Y0384959D01*
X0084242Y0384822D01*
X0084316Y0384682D01*
X0084387Y0384540D01*
X0084455Y0384397D01*
X0084519Y0384252D01*
X0084579Y0384106D01*
X0084635Y0383958D01*
X0084688Y0383809D01*
X0084737Y0383658D01*
X0084782Y0383506D01*
X0084823Y0383353D01*
X0084861Y0383200D01*
X0084894Y0383045D01*
X0084924Y0382889D01*
X0084950Y0382733D01*
X0084971Y0382576D01*
X0084989Y0382419D01*
X0085003Y0382261D01*
X0085013Y0382103D01*
X0085019Y0381945D01*
X0085021Y0381787D01*
X0085019Y0381629D01*
X0085013Y0381471D01*
X0085003Y0381313D01*
X0084989Y0381155D01*
X0084971Y0380998D01*
X0084950Y0380841D01*
X0084924Y0380685D01*
X0084894Y0380529D01*
X0084861Y0380374D01*
X0084823Y0380221D01*
X0084782Y0380068D01*
X0084737Y0379916D01*
X0084688Y0379765D01*
X0084635Y0379616D01*
X0084579Y0379468D01*
X0084519Y0379322D01*
X0084455Y0379177D01*
X0084387Y0379034D01*
X0084316Y0378892D01*
X0084242Y0378752D01*
X0084164Y0378615D01*
X0084082Y0378479D01*
X0083998Y0378345D01*
X0083909Y0378214D01*
X0083818Y0378085D01*
X0083723Y0377958D01*
X0083626Y0377833D01*
X0083525Y0377711D01*
X0083421Y0377592D01*
X0083314Y0377475D01*
X0083204Y0377361D01*
X0083091Y0377250D01*
X0082976Y0377141D01*
X0082858Y0377036D01*
X0082737Y0376934D01*
X0082614Y0376834D01*
X0082488Y0376738D01*
X0082360Y0376645D01*
X0082230Y0376555D01*
X0082097Y0376469D01*
X0081962Y0376385D01*
X0081826Y0376306D01*
X0081687Y0376229D01*
X0081546Y0376157D01*
X0081404Y0376087D01*
X0081260Y0376022D01*
X0081114Y0375960D01*
X0080967Y0375902D01*
X0080818Y0375847D01*
X0080668Y0375796D01*
X0080517Y0375749D01*
X0080365Y0375706D01*
X0080212Y0375667D01*
X0080057Y0375631D01*
X0079902Y0375600D01*
X0079746Y0375572D01*
X0079590Y0375548D01*
X0079433Y0375528D01*
X0079275Y0375512D01*
X0079118Y0375500D01*
X0078959Y0375492D01*
X0078801Y0375488D01*
X0078643Y0375488D01*
X0078485Y0375492D01*
X0078326Y0375500D01*
X0078169Y0375512D01*
X0078011Y0375528D01*
X0077854Y0375548D01*
X0077698Y0375572D01*
X0077542Y0375600D01*
X0077387Y0375631D01*
X0077232Y0375667D01*
X0077079Y0375706D01*
X0076927Y0375749D01*
X0076776Y0375796D01*
X0076626Y0375847D01*
X0076477Y0375902D01*
X0076330Y0375960D01*
X0076184Y0376022D01*
X0076040Y0376087D01*
X0075898Y0376157D01*
X0075757Y0376229D01*
X0075618Y0376306D01*
X0075482Y0376385D01*
X0075347Y0376469D01*
X0075214Y0376555D01*
X0075084Y0376645D01*
X0074956Y0376738D01*
X0074830Y0376834D01*
X0074707Y0376934D01*
X0074586Y0377036D01*
X0074468Y0377141D01*
X0074353Y0377250D01*
X0074240Y0377361D01*
X0074130Y0377475D01*
X0074023Y0377592D01*
X0073919Y0377711D01*
X0073818Y0377833D01*
X0073721Y0377958D01*
X0073626Y0378085D01*
X0073535Y0378214D01*
X0073446Y0378345D01*
X0073362Y0378479D01*
X0073280Y0378615D01*
X0073202Y0378752D01*
X0073128Y0378892D01*
X0073057Y0379034D01*
X0072989Y0379177D01*
X0072925Y0379322D01*
X0072865Y0379468D01*
X0072809Y0379616D01*
X0072756Y0379765D01*
X0072707Y0379916D01*
X0072662Y0380068D01*
X0072621Y0380221D01*
X0072583Y0380374D01*
X0072550Y0380529D01*
X0072520Y0380685D01*
X0072494Y0380841D01*
X0072473Y0380998D01*
X0072455Y0381155D01*
X0072441Y0381313D01*
X0072431Y0381471D01*
X0072425Y0381629D01*
X0072423Y0381787D01*
D11*
X0294743Y0203252D02*
X0294743Y0201851D01*
X0295443Y0201151D01*
X0297545Y0201151D01*
X0296144Y0201151D02*
X0294743Y0199749D01*
X0297545Y0199749D02*
X0297545Y0203953D01*
X0295443Y0203953D01*
X0294743Y0203252D01*
X0299347Y0203953D02*
X0299347Y0199749D01*
X0300748Y0201151D01*
X0302149Y0199749D01*
X0302149Y0203953D01*
X0302149Y0153937D02*
X0300047Y0153937D01*
X0299347Y0153236D01*
X0299347Y0151835D01*
X0300047Y0151135D01*
X0302149Y0151135D01*
X0300748Y0151135D02*
X0299347Y0149733D01*
X0297545Y0149733D02*
X0295443Y0149733D01*
X0294743Y0150434D01*
X0294743Y0153236D01*
X0295443Y0153937D01*
X0297545Y0153937D01*
X0297545Y0149733D01*
X0302149Y0149733D02*
X0302149Y0153937D01*
X0302149Y0133931D02*
X0300748Y0132529D01*
X0299347Y0133931D01*
X0299347Y0129727D01*
X0297545Y0129727D02*
X0297545Y0133931D01*
X0295443Y0133931D01*
X0294743Y0133230D01*
X0294743Y0131829D01*
X0295443Y0131128D01*
X0297545Y0131128D01*
X0296144Y0131128D02*
X0294743Y0129727D01*
X0292941Y0129727D02*
X0290139Y0129727D01*
X0288337Y0130428D02*
X0287637Y0129727D01*
X0286236Y0129727D01*
X0285535Y0130428D01*
X0285535Y0133230D01*
X0286236Y0133931D01*
X0287637Y0133931D01*
X0288337Y0133230D01*
X0288337Y0130428D01*
X0286936Y0131128D02*
X0285535Y0129727D01*
X0290139Y0133931D02*
X0292941Y0133931D01*
X0292941Y0129727D01*
X0292941Y0131829D02*
X0291540Y0131829D01*
X0294743Y0123927D02*
X0294743Y0123227D01*
X0297545Y0120424D01*
X0297545Y0119724D01*
X0299347Y0120424D02*
X0300047Y0119724D01*
X0302149Y0119724D01*
X0302149Y0123927D01*
X0300047Y0123927D01*
X0299347Y0123227D01*
X0299347Y0120424D01*
X0297545Y0123927D02*
X0294743Y0123927D01*
X0302149Y0129727D02*
X0302149Y0133931D01*
X0302149Y0113924D02*
X0300047Y0113924D01*
X0299347Y0113224D01*
X0299347Y0110421D01*
X0300047Y0109721D01*
X0302149Y0109721D01*
X0302149Y0113924D01*
X0297545Y0111822D02*
X0297545Y0110421D01*
X0296845Y0109721D01*
X0295443Y0109721D01*
X0294743Y0110421D01*
X0294743Y0111122D01*
X0295443Y0111822D01*
X0297545Y0111822D01*
X0296144Y0113224D01*
X0294743Y0113924D01*
X0294743Y0103921D02*
X0297545Y0103921D01*
X0297545Y0101819D01*
X0296144Y0102520D01*
X0295443Y0102520D01*
X0294743Y0101819D01*
X0294743Y0100418D01*
X0295443Y0099717D01*
X0296845Y0099717D01*
X0297545Y0100418D01*
X0299347Y0100418D02*
X0299347Y0103220D01*
X0300047Y0103921D01*
X0302149Y0103921D01*
X0302149Y0099717D01*
X0300047Y0099717D01*
X0299347Y0100418D01*
X0300047Y0093918D02*
X0302149Y0093918D01*
X0302149Y0089714D01*
X0300047Y0089714D01*
X0299347Y0090415D01*
X0299347Y0093217D01*
X0300047Y0093918D01*
X0297545Y0091816D02*
X0294743Y0091816D01*
X0295443Y0093918D02*
X0297545Y0091816D01*
X0295443Y0089714D02*
X0295443Y0093918D01*
X0295280Y0084425D02*
X0294579Y0083724D01*
X0294579Y0083023D01*
X0295280Y0082323D01*
X0294579Y0081622D01*
X0294579Y0080922D01*
X0295280Y0080221D01*
X0296681Y0080221D01*
X0297382Y0080922D01*
X0299183Y0080922D02*
X0299183Y0083724D01*
X0299884Y0084425D01*
X0301986Y0084425D01*
X0301986Y0080221D01*
X0299884Y0080221D01*
X0299183Y0080922D01*
X0297382Y0083724D02*
X0296681Y0084425D01*
X0295280Y0084425D01*
X0295280Y0082323D02*
X0295980Y0082323D01*
X0261177Y0089219D02*
X0259076Y0089219D01*
X0258375Y0089919D01*
X0258375Y0092721D01*
X0259076Y0093422D01*
X0261177Y0093422D01*
X0261177Y0089219D01*
X0256573Y0089219D02*
X0253771Y0092021D01*
X0253771Y0092721D01*
X0254472Y0093422D01*
X0255873Y0093422D01*
X0256573Y0092721D01*
X0256573Y0089219D02*
X0253771Y0089219D01*
X0253771Y0099231D02*
X0256573Y0099231D01*
X0255172Y0099231D02*
X0255172Y0103435D01*
X0256573Y0102034D01*
X0258375Y0102734D02*
X0259076Y0103435D01*
X0261177Y0103435D01*
X0261177Y0099231D01*
X0259076Y0099231D01*
X0258375Y0099932D01*
X0258375Y0102734D01*
X0259076Y0109231D02*
X0258375Y0109932D01*
X0258375Y0112734D01*
X0259076Y0113435D01*
X0261177Y0113435D01*
X0261177Y0109231D01*
X0259076Y0109231D01*
X0256573Y0109932D02*
X0253771Y0112734D01*
X0253771Y0109932D01*
X0254472Y0109231D01*
X0255873Y0109231D01*
X0256573Y0109932D01*
X0256573Y0112734D01*
X0255873Y0113435D01*
X0254472Y0113435D01*
X0253771Y0112734D01*
D12*
X0276776Y0042327D02*
X0276776Y0041243D01*
X0276776Y0039074D02*
X0276776Y0033653D01*
X0277861Y0032569D01*
X0278945Y0032569D01*
X0281606Y0035822D02*
X0281606Y0037990D01*
X0282690Y0039074D01*
X0284859Y0039074D01*
X0285943Y0037990D01*
X0285943Y0035822D01*
X0284859Y0034737D01*
X0282690Y0034737D01*
X0281606Y0035822D01*
X0288522Y0039074D02*
X0289606Y0039074D01*
X0291774Y0036906D01*
X0291774Y0039074D02*
X0291774Y0034737D01*
X0294435Y0035822D02*
X0295520Y0034737D01*
X0298772Y0034737D01*
X0298772Y0032569D02*
X0298772Y0039074D01*
X0295520Y0039074D01*
X0294435Y0037990D01*
X0294435Y0035822D01*
X0301433Y0041243D02*
X0305770Y0034737D01*
X0308431Y0035822D02*
X0308431Y0037990D01*
X0309516Y0039074D01*
X0311684Y0039074D01*
X0312768Y0037990D01*
X0312768Y0035822D01*
X0311684Y0034737D01*
X0309516Y0034737D01*
X0308431Y0035822D01*
X0315265Y0034737D02*
X0317434Y0034737D01*
X0316349Y0034737D02*
X0316349Y0039074D01*
X0317434Y0039074D01*
X0316349Y0041243D02*
X0316349Y0042327D01*
X0323594Y0039074D02*
X0323594Y0033653D01*
X0324678Y0032569D01*
X0325762Y0032569D01*
X0326846Y0034737D02*
X0323594Y0034737D01*
X0320933Y0034737D02*
X0319848Y0034737D01*
X0319848Y0035822D01*
X0320933Y0035822D01*
X0320933Y0034737D01*
X0326846Y0034737D02*
X0327931Y0035822D01*
X0327931Y0039074D01*
X0330592Y0037990D02*
X0330592Y0034737D01*
X0333844Y0034737D01*
X0334929Y0035822D01*
X0333844Y0036906D01*
X0330592Y0036906D01*
X0330592Y0037990D02*
X0331676Y0039074D01*
X0333844Y0039074D01*
X0337589Y0039074D02*
X0340842Y0039074D01*
X0341927Y0037990D01*
X0341927Y0035822D01*
X0340842Y0034737D01*
X0337589Y0034737D01*
X0337589Y0041243D01*
X0344587Y0037990D02*
X0344587Y0034737D01*
X0347840Y0034737D01*
X0348924Y0035822D01*
X0347840Y0036906D01*
X0344587Y0036906D01*
X0344587Y0037990D02*
X0345672Y0039074D01*
X0347840Y0039074D01*
X0351503Y0039074D02*
X0354756Y0036906D01*
X0351503Y0034737D01*
X0354756Y0034737D02*
X0354756Y0041243D01*
X0357417Y0039074D02*
X0360670Y0039074D01*
X0361754Y0037990D01*
X0361754Y0035822D01*
X0360670Y0034737D01*
X0357417Y0034737D01*
X0364415Y0034737D02*
X0367668Y0034737D01*
X0368752Y0035822D01*
X0367668Y0036906D01*
X0364415Y0036906D01*
X0364415Y0037990D02*
X0364415Y0034737D01*
X0364415Y0037990D02*
X0365499Y0039074D01*
X0367668Y0039074D01*
X0371413Y0037990D02*
X0371413Y0034737D01*
X0371413Y0037990D02*
X0372497Y0039074D01*
X0374666Y0039074D01*
X0375750Y0037990D01*
X0375750Y0041243D02*
X0375750Y0034737D01*
X0374584Y0029843D02*
X0374584Y0023337D01*
X0377245Y0023337D02*
X0380497Y0023337D01*
X0381582Y0024422D01*
X0381582Y0026590D01*
X0380497Y0027674D01*
X0377245Y0027674D01*
X0374584Y0026590D02*
X0373499Y0027674D01*
X0371331Y0027674D01*
X0370247Y0026590D01*
X0370247Y0023337D01*
X0367586Y0023337D02*
X0365417Y0023337D01*
X0366501Y0023337D02*
X0366501Y0027674D01*
X0367586Y0027674D01*
X0366501Y0029843D02*
X0366501Y0030927D01*
X0362920Y0027674D02*
X0359668Y0027674D01*
X0358583Y0026590D01*
X0358583Y0024422D01*
X0359668Y0023337D01*
X0362920Y0023337D01*
X0362920Y0021169D02*
X0362920Y0027674D01*
X0364087Y0018443D02*
X0359750Y0018443D01*
X0357089Y0016274D02*
X0357089Y0013022D01*
X0356005Y0011937D01*
X0352752Y0011937D01*
X0352752Y0016274D01*
X0350091Y0016274D02*
X0346838Y0016274D01*
X0345754Y0015190D01*
X0345754Y0011937D01*
X0350091Y0011937D02*
X0350091Y0016274D01*
X0343093Y0016274D02*
X0342009Y0017359D01*
X0342009Y0019527D01*
X0339840Y0019527D02*
X0339840Y0017359D01*
X0340924Y0016274D01*
X0340842Y0023337D02*
X0338674Y0023337D01*
X0337589Y0024422D01*
X0337589Y0026590D01*
X0338674Y0027674D01*
X0340842Y0027674D01*
X0341927Y0026590D01*
X0341927Y0024422D01*
X0340842Y0023337D01*
X0344587Y0023337D02*
X0347840Y0023337D01*
X0348924Y0024422D01*
X0348924Y0026590D01*
X0347840Y0027674D01*
X0344587Y0027674D01*
X0334929Y0027674D02*
X0334929Y0023337D01*
X0332760Y0023337D02*
X0332760Y0026590D01*
X0331676Y0027674D01*
X0330592Y0026590D01*
X0330592Y0023337D01*
X0327931Y0023337D02*
X0324678Y0023337D01*
X0323594Y0024422D01*
X0323594Y0026590D01*
X0324678Y0027674D01*
X0327931Y0027674D01*
X0327931Y0021169D01*
X0332760Y0026590D02*
X0333844Y0027674D01*
X0334929Y0027674D01*
X0320933Y0027674D02*
X0320933Y0024422D01*
X0319848Y0023337D01*
X0316596Y0023337D01*
X0316596Y0027674D01*
X0313935Y0027674D02*
X0311766Y0027674D01*
X0312850Y0028759D02*
X0312850Y0024422D01*
X0311766Y0023337D01*
X0309269Y0024422D02*
X0309269Y0026590D01*
X0308185Y0027674D01*
X0306017Y0027674D01*
X0304932Y0026590D01*
X0304932Y0025506D01*
X0309269Y0025506D01*
X0309269Y0024422D02*
X0308185Y0023337D01*
X0306017Y0023337D01*
X0302271Y0023337D02*
X0302271Y0027674D01*
X0302271Y0025506D02*
X0300103Y0027674D01*
X0299019Y0027674D01*
X0299019Y0018443D02*
X0301187Y0018443D01*
X0302271Y0017359D01*
X0302271Y0013022D01*
X0301187Y0011937D01*
X0299019Y0011937D01*
X0297934Y0013022D01*
X0295273Y0011937D02*
X0292021Y0011937D01*
X0290936Y0013022D01*
X0290936Y0014106D01*
X0292021Y0015190D01*
X0295273Y0015190D01*
X0292021Y0015190D02*
X0290936Y0016274D01*
X0290936Y0017359D01*
X0292021Y0018443D01*
X0295273Y0018443D01*
X0295273Y0011937D01*
X0297934Y0017359D02*
X0299019Y0018443D01*
X0304932Y0017359D02*
X0304932Y0015190D01*
X0306017Y0014106D01*
X0309269Y0014106D01*
X0309269Y0011937D02*
X0309269Y0018443D01*
X0306017Y0018443D01*
X0304932Y0017359D01*
X0281277Y0018443D02*
X0281277Y0011937D01*
X0278025Y0011937D01*
X0276940Y0013022D01*
X0276940Y0015190D01*
X0278025Y0016274D01*
X0281277Y0016274D01*
X0274279Y0016274D02*
X0274279Y0013022D01*
X0273195Y0011937D01*
X0269942Y0011937D01*
X0269942Y0010853D02*
X0271027Y0009769D01*
X0272111Y0009769D01*
X0269942Y0010853D02*
X0269942Y0016274D01*
X0260284Y0016274D02*
X0259199Y0017359D01*
X0259199Y0019527D01*
X0257031Y0019527D02*
X0257031Y0017359D01*
X0258115Y0016274D01*
X0254452Y0018443D02*
X0254452Y0011937D01*
X0252283Y0014106D01*
X0250115Y0011937D01*
X0250115Y0018443D01*
X0247454Y0015190D02*
X0246370Y0016274D01*
X0244201Y0016274D01*
X0243117Y0015190D01*
X0243117Y0014106D01*
X0247454Y0014106D01*
X0247454Y0013022D02*
X0247454Y0015190D01*
X0247454Y0013022D02*
X0246370Y0011937D01*
X0244201Y0011937D01*
X0240456Y0011937D02*
X0237203Y0011937D01*
X0236119Y0013022D01*
X0237203Y0014106D01*
X0239372Y0014106D01*
X0240456Y0015190D01*
X0239372Y0016274D01*
X0236119Y0016274D01*
X0233458Y0016274D02*
X0231289Y0016274D01*
X0232374Y0017359D02*
X0232374Y0013022D01*
X0231289Y0011937D01*
X0227708Y0011937D02*
X0227708Y0017359D01*
X0226624Y0018443D01*
X0224127Y0018443D02*
X0224127Y0011937D01*
X0221959Y0014106D01*
X0219790Y0011937D01*
X0219790Y0018443D01*
X0217129Y0016274D02*
X0216045Y0017359D01*
X0216045Y0019527D01*
X0213877Y0019527D02*
X0213877Y0017359D01*
X0214961Y0016274D01*
X0226624Y0015190D02*
X0228793Y0015190D01*
X0226542Y0034737D02*
X0227626Y0035822D01*
X0223289Y0040159D01*
X0223289Y0035822D01*
X0224374Y0034737D01*
X0226542Y0034737D01*
X0227626Y0035822D02*
X0227626Y0040159D01*
X0226542Y0041243D01*
X0224374Y0041243D01*
X0223289Y0040159D01*
X0220628Y0040159D02*
X0219544Y0041243D01*
X0217376Y0041243D01*
X0216291Y0040159D01*
X0220628Y0035822D01*
X0219544Y0034737D01*
X0217376Y0034737D01*
X0216291Y0035822D01*
X0216291Y0040159D01*
X0220628Y0040159D02*
X0220628Y0035822D01*
X0230287Y0035822D02*
X0231372Y0034737D01*
X0233540Y0034737D01*
X0234624Y0035822D01*
X0230287Y0040159D01*
X0230287Y0035822D01*
X0230287Y0040159D02*
X0231372Y0041243D01*
X0233540Y0041243D01*
X0234624Y0040159D01*
X0234624Y0035822D01*
X0237285Y0035822D02*
X0237285Y0040159D01*
X0238370Y0041243D01*
X0240538Y0041243D01*
X0241622Y0040159D01*
X0241622Y0039074D01*
X0240538Y0037990D01*
X0237285Y0037990D01*
X0237285Y0035822D02*
X0238370Y0034737D01*
X0240538Y0034737D01*
X0241622Y0035822D01*
X0244283Y0034737D02*
X0248620Y0034737D01*
X0246452Y0034737D02*
X0246452Y0041243D01*
X0248620Y0039074D01*
X0251281Y0041243D02*
X0255618Y0034737D01*
X0258115Y0034737D02*
X0259199Y0035822D01*
X0259199Y0040159D01*
X0258115Y0039074D02*
X0260284Y0039074D01*
X0262944Y0039074D02*
X0266197Y0039074D01*
X0267281Y0037990D01*
X0267281Y0035822D01*
X0266197Y0034737D01*
X0262944Y0034737D01*
X0269942Y0036906D02*
X0269942Y0037990D01*
X0271027Y0039074D01*
X0273195Y0039074D01*
X0274279Y0037990D01*
X0274279Y0035822D01*
X0273195Y0034737D01*
X0271027Y0034737D01*
X0269942Y0036906D02*
X0274279Y0036906D01*
X0361918Y0015190D02*
X0364087Y0015190D01*
X0366748Y0015190D02*
X0371085Y0015190D01*
X0367832Y0018443D01*
X0367832Y0011937D01*
X0364087Y0011937D02*
X0364087Y0018443D01*
X0373582Y0016274D02*
X0375750Y0016274D01*
X0374666Y0017359D02*
X0374666Y0013022D01*
X0373582Y0011937D01*
X0378411Y0013022D02*
X0379495Y0014106D01*
X0381664Y0014106D01*
X0382748Y0015190D01*
X0381664Y0016274D01*
X0378411Y0016274D01*
X0378411Y0013022D02*
X0379495Y0011937D01*
X0382748Y0011937D01*
X0385409Y0011937D02*
X0385409Y0016274D01*
X0385409Y0011937D02*
X0388662Y0011937D01*
X0389746Y0013022D01*
X0389746Y0016274D01*
X0392407Y0018443D02*
X0394575Y0018443D01*
X0393491Y0018443D02*
X0393491Y0013022D01*
X0394575Y0011937D01*
X0395660Y0011937D01*
X0396744Y0013022D01*
X0400407Y0016274D02*
X0399323Y0017359D01*
X0399323Y0019527D01*
X0401491Y0019527D02*
X0401491Y0017359D01*
X0402576Y0016274D01*
X0406321Y0023337D02*
X0408489Y0023337D01*
X0409574Y0024422D01*
X0405237Y0028759D01*
X0405237Y0024422D01*
X0406321Y0023337D01*
X0409574Y0024422D02*
X0409574Y0028759D01*
X0408489Y0029843D01*
X0406321Y0029843D01*
X0405237Y0028759D01*
X0407241Y0032569D02*
X0407241Y0039074D01*
X0403988Y0039074D01*
X0402904Y0037990D01*
X0402904Y0035822D01*
X0403988Y0034737D01*
X0407241Y0034737D01*
X0409738Y0034737D02*
X0410822Y0035822D01*
X0410822Y0040159D01*
X0411906Y0039074D02*
X0409738Y0039074D01*
X0414403Y0039074D02*
X0416572Y0039074D01*
X0415487Y0040159D02*
X0415487Y0035822D01*
X0414403Y0034737D01*
X0419232Y0034737D02*
X0419232Y0037990D01*
X0420317Y0039074D01*
X0422485Y0039074D01*
X0423570Y0037990D01*
X0423570Y0041243D02*
X0423570Y0034737D01*
X0423570Y0029843D02*
X0419232Y0029843D01*
X0419232Y0028759D01*
X0423570Y0024422D01*
X0423570Y0023337D01*
X0419232Y0023337D01*
X0416572Y0024422D02*
X0416572Y0025506D01*
X0415487Y0026590D01*
X0413319Y0026590D01*
X0412234Y0025506D01*
X0412234Y0024422D01*
X0413319Y0023337D01*
X0415487Y0023337D01*
X0416572Y0024422D01*
X0415487Y0026590D02*
X0416572Y0027674D01*
X0416572Y0028759D01*
X0415487Y0029843D01*
X0413319Y0029843D01*
X0412234Y0028759D01*
X0412234Y0027674D01*
X0413319Y0026590D01*
X0420317Y0018443D02*
X0419232Y0017359D01*
X0419232Y0016274D01*
X0420317Y0015190D01*
X0423570Y0015190D01*
X0423570Y0011937D02*
X0420317Y0011937D01*
X0419232Y0013022D01*
X0419232Y0014106D01*
X0420317Y0015190D01*
X0420317Y0018443D02*
X0423570Y0018443D01*
X0423570Y0011937D01*
X0416572Y0013022D02*
X0415487Y0011937D01*
X0412234Y0011937D01*
X0412234Y0010853D02*
X0413319Y0009769D01*
X0414403Y0009769D01*
X0412234Y0010853D02*
X0412234Y0016274D01*
X0416572Y0016274D02*
X0416572Y0013022D01*
X0395578Y0026590D02*
X0391241Y0026590D01*
X0388580Y0026590D02*
X0384243Y0026590D01*
X0392325Y0023337D02*
X0392325Y0029843D01*
X0395578Y0026590D01*
X0396990Y0034737D02*
X0395906Y0035822D01*
X0396990Y0036906D01*
X0399159Y0036906D01*
X0400243Y0037990D01*
X0399159Y0039074D01*
X0395906Y0039074D01*
X0393245Y0039074D02*
X0393245Y0037990D01*
X0392161Y0037990D01*
X0392161Y0039074D01*
X0393245Y0039074D01*
X0393245Y0035822D02*
X0393245Y0034737D01*
X0392161Y0034737D01*
X0392161Y0035822D01*
X0393245Y0035822D01*
X0389746Y0034737D02*
X0385409Y0041243D01*
X0378411Y0041243D02*
X0382748Y0034737D01*
X0396990Y0034737D02*
X0400243Y0034737D01*
X0404613Y0047351D02*
X0408283Y0047351D01*
X0406448Y0047351D02*
X0406448Y0052855D01*
X0408283Y0051020D01*
X0408673Y0054632D02*
X0406504Y0054632D01*
X0405420Y0055716D01*
X0405420Y0060053D01*
X0406504Y0061137D01*
X0408673Y0061137D01*
X0409757Y0060053D01*
X0409757Y0055716D01*
X0408673Y0054632D01*
X0402759Y0054632D02*
X0398422Y0061137D01*
X0395925Y0061137D02*
X0393757Y0061137D01*
X0394841Y0061137D02*
X0394841Y0054632D01*
X0393757Y0054632D02*
X0395925Y0054632D01*
X0384098Y0057885D02*
X0379761Y0057885D01*
X0383013Y0054632D01*
X0383013Y0061137D01*
X0377100Y0060053D02*
X0376016Y0061137D01*
X0373847Y0061137D01*
X0372763Y0060053D01*
X0372763Y0055716D01*
X0373847Y0054632D01*
X0376016Y0054632D01*
X0377100Y0055716D01*
X0370266Y0054632D02*
X0368097Y0054632D01*
X0369182Y0054632D02*
X0369182Y0061137D01*
X0370266Y0061137D02*
X0368097Y0061137D01*
X0262612Y0228033D02*
X0258942Y0228033D01*
X0260777Y0228033D02*
X0260777Y0233538D01*
X0262612Y0231703D01*
X0151951Y0275549D02*
X0148281Y0275549D01*
X0150116Y0275549D02*
X0150116Y0281053D01*
X0151951Y0279218D01*
D13*
X0153641Y0267168D02*
X0152640Y0266167D01*
X0152640Y0265166D01*
X0153641Y0264165D01*
X0155643Y0264165D01*
X0156643Y0265166D01*
X0156643Y0266167D01*
X0155643Y0267168D01*
X0153641Y0267168D01*
X0153641Y0264165D02*
X0152640Y0263164D01*
X0152640Y0262163D01*
X0153641Y0261162D01*
X0155643Y0261162D01*
X0156643Y0262163D01*
X0156643Y0263164D01*
X0155643Y0264165D01*
X0159086Y0266167D02*
X0163089Y0262163D01*
X0163089Y0261162D01*
X0159086Y0261162D01*
X0159086Y0266167D02*
X0159086Y0267168D01*
X0163089Y0267168D01*
X0171977Y0261162D02*
X0175980Y0261162D01*
X0173978Y0261162D02*
X0173978Y0267168D01*
X0175980Y0265166D01*
X0178422Y0266167D02*
X0179423Y0267168D01*
X0181425Y0267168D01*
X0182425Y0266167D01*
X0182425Y0262163D01*
X0181425Y0261162D01*
X0179423Y0261162D01*
X0178422Y0262163D01*
X0184721Y0261162D02*
X0186722Y0261162D01*
X0185722Y0261162D02*
X0185722Y0267168D01*
X0186722Y0267168D02*
X0184721Y0267168D01*
X0150198Y0266167D02*
X0150198Y0262163D01*
X0146195Y0266167D01*
X0146195Y0262163D01*
X0147195Y0261162D01*
X0149197Y0261162D01*
X0150198Y0262163D01*
X0150198Y0266167D02*
X0149197Y0267168D01*
X0147195Y0267168D01*
X0146195Y0266167D01*
X0120508Y0194685D02*
X0111937Y0194685D01*
X0111937Y0175766D01*
X0120508Y0175766D01*
X0120508Y0194685D01*
X0162249Y0174373D02*
X0170821Y0174373D01*
X0170821Y0155453D01*
X0162249Y0155453D01*
X0162249Y0174373D01*
X0256820Y0217537D02*
X0256820Y0223543D01*
X0258821Y0221541D01*
X0260823Y0223543D01*
X0260823Y0217537D01*
X0263265Y0217537D02*
X0267268Y0217537D01*
X0267268Y0223543D01*
X0263265Y0223543D01*
X0265267Y0220540D02*
X0267268Y0220540D01*
X0269711Y0223543D02*
X0271712Y0221541D01*
X0273714Y0223543D01*
X0273714Y0217537D01*
X0269711Y0217537D02*
X0269711Y0223543D01*
X0282602Y0222542D02*
X0283602Y0223543D01*
X0285604Y0223543D01*
X0286605Y0222542D01*
X0289047Y0222542D02*
X0290048Y0223543D01*
X0292050Y0223543D01*
X0293050Y0222542D01*
X0293050Y0218538D01*
X0292050Y0217537D01*
X0290048Y0217537D01*
X0289047Y0218538D01*
X0286605Y0217537D02*
X0282602Y0221541D01*
X0282602Y0222542D01*
X0282602Y0217537D02*
X0286605Y0217537D01*
X0295346Y0217537D02*
X0297347Y0217537D01*
X0296347Y0217537D02*
X0296347Y0223543D01*
X0297347Y0223543D02*
X0295346Y0223543D01*
X0316451Y0227323D02*
X0316451Y0218752D01*
X0316451Y0218570D02*
X0335370Y0218570D01*
X0335370Y0218752D02*
X0335370Y0227323D01*
X0316451Y0227323D01*
X0369320Y0196124D02*
X0369320Y0194122D01*
X0370321Y0193121D01*
X0374325Y0193121D01*
X0375326Y0194122D01*
X0375326Y0196124D01*
X0374325Y0197124D01*
X0370321Y0197124D02*
X0369320Y0196124D01*
X0375326Y0190679D02*
X0375326Y0186675D01*
X0375326Y0188677D02*
X0369320Y0188677D01*
X0369320Y0184233D02*
X0371322Y0182232D01*
X0371322Y0183233D02*
X0371322Y0180230D01*
X0369320Y0180230D02*
X0375326Y0180230D01*
X0375326Y0183233D01*
X0374325Y0184233D01*
X0372323Y0184233D01*
X0371322Y0183233D01*
X0370321Y0177788D02*
X0374325Y0177788D01*
X0375326Y0176787D01*
X0375326Y0174785D01*
X0374325Y0173784D01*
X0370321Y0173784D01*
X0369320Y0174785D01*
X0369320Y0176787D01*
X0370321Y0177788D01*
X0372323Y0171342D02*
X0371322Y0170342D01*
X0371322Y0167339D01*
X0369320Y0167339D02*
X0375326Y0167339D01*
X0375326Y0170342D01*
X0374325Y0171342D01*
X0372323Y0171342D01*
X0400796Y0145038D02*
X0409368Y0145038D01*
X0409368Y0126119D01*
X0400796Y0126119D01*
X0400796Y0145038D01*
X0404082Y0112097D02*
X0403081Y0111096D01*
X0403081Y0108094D01*
X0409086Y0108094D01*
X0409086Y0111096D01*
X0408085Y0112097D01*
X0407085Y0112097D01*
X0406084Y0111096D01*
X0406084Y0108094D01*
X0406084Y0111096D02*
X0405083Y0112097D01*
X0404082Y0112097D01*
X0409086Y0105652D02*
X0409086Y0101648D01*
X0409086Y0103650D02*
X0403081Y0103650D01*
X0403081Y0099206D02*
X0405083Y0097205D01*
X0405083Y0098205D02*
X0405083Y0095203D01*
X0403081Y0095203D02*
X0409086Y0095203D01*
X0409086Y0098205D01*
X0408085Y0099206D01*
X0406084Y0099206D01*
X0405083Y0098205D01*
X0404082Y0092761D02*
X0408085Y0092761D01*
X0409086Y0091760D01*
X0409086Y0089758D01*
X0408085Y0088757D01*
X0404082Y0088757D01*
X0403081Y0089758D01*
X0403081Y0091760D01*
X0404082Y0092761D01*
X0406084Y0086315D02*
X0405083Y0085314D01*
X0405083Y0082312D01*
X0403081Y0082312D02*
X0409086Y0082312D01*
X0409086Y0085314D01*
X0408085Y0086315D01*
X0406084Y0086315D01*
X0375326Y0086758D02*
X0374325Y0087759D01*
X0370321Y0087759D01*
X0369320Y0086758D01*
X0369320Y0084757D01*
X0370321Y0083756D01*
X0374325Y0083756D01*
X0375326Y0084757D01*
X0375326Y0086758D01*
X0375326Y0090201D02*
X0369320Y0090201D01*
X0371322Y0090201D02*
X0371322Y0093204D01*
X0372323Y0094205D01*
X0374325Y0094205D01*
X0375326Y0093204D01*
X0375326Y0090201D01*
X0371322Y0092203D02*
X0369320Y0094205D01*
X0369320Y0098648D02*
X0375326Y0098648D01*
X0375326Y0096647D02*
X0375326Y0100650D01*
X0373324Y0103092D02*
X0375326Y0105094D01*
X0373324Y0107096D01*
X0369320Y0107096D01*
X0372323Y0107096D02*
X0372323Y0103092D01*
X0373324Y0103092D02*
X0369320Y0103092D01*
X0372323Y0081314D02*
X0371322Y0080313D01*
X0371322Y0077310D01*
X0369320Y0077310D02*
X0375326Y0077310D01*
X0375326Y0080313D01*
X0374325Y0081314D01*
X0372323Y0081314D01*
X0404332Y0186095D02*
X0410337Y0186095D01*
X0410337Y0189098D01*
X0409336Y0190098D01*
X0407334Y0190098D01*
X0406333Y0189098D01*
X0406333Y0186095D01*
X0405332Y0192541D02*
X0404332Y0193541D01*
X0404332Y0195543D01*
X0405332Y0196544D01*
X0409336Y0196544D01*
X0410337Y0195543D01*
X0410337Y0193541D01*
X0409336Y0192541D01*
X0405332Y0192541D01*
X0404332Y0198986D02*
X0410337Y0198986D01*
X0410337Y0201989D01*
X0409336Y0202989D01*
X0407334Y0202989D01*
X0406333Y0201989D01*
X0406333Y0198986D01*
X0406333Y0200988D02*
X0404332Y0202989D01*
X0404332Y0207433D02*
X0410337Y0207433D01*
X0410337Y0205431D02*
X0410337Y0209435D01*
X0410337Y0211877D02*
X0404332Y0211877D01*
X0404332Y0214880D01*
X0405332Y0215880D01*
X0409336Y0215880D01*
X0410337Y0214880D01*
X0410337Y0211877D01*
X0248633Y0070623D02*
X0248633Y0051703D01*
X0240062Y0051703D01*
X0240062Y0070623D01*
X0248633Y0070623D01*
D14*
X0251698Y0069840D02*
X0251698Y0066971D01*
X0251698Y0068405D02*
X0256002Y0068405D01*
X0254567Y0066971D01*
X0251698Y0065236D02*
X0251698Y0062367D01*
X0251698Y0063801D02*
X0256002Y0063801D01*
X0254567Y0062367D01*
X0255285Y0060632D02*
X0256002Y0059915D01*
X0256002Y0058480D01*
X0255285Y0057763D01*
X0252415Y0057763D01*
X0251698Y0058480D01*
X0251698Y0059915D01*
X0252415Y0060632D01*
X0192266Y0086332D02*
X0192266Y0090636D01*
X0190114Y0090636D01*
X0189397Y0089918D01*
X0189397Y0088484D01*
X0190114Y0087767D01*
X0192266Y0087767D01*
X0190832Y0087767D02*
X0189397Y0086332D01*
X0187662Y0086332D02*
X0187662Y0090636D01*
X0185511Y0090636D01*
X0184793Y0089918D01*
X0184793Y0087049D01*
X0185511Y0086332D01*
X0187662Y0086332D01*
X0187662Y0096332D02*
X0187662Y0100636D01*
X0185511Y0100636D01*
X0184793Y0099918D01*
X0184793Y0098484D01*
X0185511Y0097767D01*
X0187662Y0097767D01*
X0186228Y0097767D02*
X0184793Y0096332D01*
X0189397Y0096332D02*
X0189397Y0100636D01*
X0192266Y0100636D02*
X0192266Y0096332D01*
X0190832Y0097767D01*
X0189397Y0096332D01*
X0189397Y0116332D02*
X0189397Y0120636D01*
X0187662Y0119201D02*
X0186228Y0120636D01*
X0184793Y0119201D01*
X0184793Y0116332D01*
X0183058Y0116332D02*
X0181624Y0116332D01*
X0182341Y0116332D02*
X0182341Y0120636D01*
X0183058Y0120636D02*
X0181624Y0120636D01*
X0179989Y0120636D02*
X0177120Y0120636D01*
X0178555Y0120636D02*
X0178555Y0116332D01*
X0184793Y0118484D02*
X0187662Y0118484D01*
X0187662Y0119201D02*
X0187662Y0116332D01*
X0189397Y0116332D02*
X0190832Y0117767D01*
X0192266Y0116332D01*
X0192266Y0120636D01*
X0192266Y0136332D02*
X0192266Y0140636D01*
X0190114Y0140636D01*
X0189397Y0139918D01*
X0189397Y0138484D01*
X0190114Y0137767D01*
X0192266Y0137767D01*
X0190832Y0137767D02*
X0189397Y0136332D01*
X0187662Y0136332D02*
X0184793Y0136332D01*
X0183058Y0137049D02*
X0182341Y0136332D01*
X0180907Y0136332D01*
X0180189Y0137049D01*
X0180189Y0137767D01*
X0180907Y0138484D01*
X0182341Y0138484D01*
X0183058Y0139201D01*
X0183058Y0139918D01*
X0182341Y0140636D01*
X0180907Y0140636D01*
X0180189Y0139918D01*
X0178455Y0140636D02*
X0178455Y0136332D01*
X0175585Y0136332D01*
X0177020Y0138484D02*
X0178455Y0138484D01*
X0178455Y0140636D02*
X0175585Y0140636D01*
X0173851Y0140636D02*
X0170982Y0140636D01*
X0172416Y0140636D02*
X0172416Y0136332D01*
X0184793Y0140636D02*
X0187662Y0140636D01*
X0187662Y0136332D01*
X0187662Y0138484D02*
X0186228Y0138484D01*
X0158496Y0160042D02*
X0158496Y0161476D01*
X0157778Y0162194D01*
X0157061Y0163929D02*
X0158496Y0165363D01*
X0154192Y0165363D01*
X0154192Y0163929D02*
X0154192Y0166798D01*
X0154909Y0168532D02*
X0157778Y0171402D01*
X0154909Y0171402D01*
X0154192Y0170684D01*
X0154192Y0169250D01*
X0154909Y0168532D01*
X0157778Y0168532D01*
X0158496Y0169250D01*
X0158496Y0170684D01*
X0157778Y0171402D01*
X0154909Y0162194D02*
X0154192Y0161476D01*
X0154192Y0160042D01*
X0154909Y0159325D01*
X0157778Y0159325D01*
X0158496Y0160042D01*
X0153974Y0139746D02*
X0151822Y0139746D01*
X0151105Y0139029D01*
X0151105Y0136160D01*
X0151822Y0135443D01*
X0153974Y0135443D01*
X0153974Y0139746D01*
X0149370Y0138312D02*
X0147936Y0139746D01*
X0147936Y0135443D01*
X0149370Y0135443D02*
X0146501Y0135443D01*
X0147067Y0128496D02*
X0147067Y0124193D01*
X0149936Y0128496D01*
X0149936Y0124193D01*
X0151571Y0124193D02*
X0153006Y0124193D01*
X0152288Y0124193D02*
X0152288Y0128496D01*
X0151571Y0128496D02*
X0153006Y0128496D01*
X0145332Y0128496D02*
X0142463Y0128496D01*
X0143898Y0128496D02*
X0143898Y0124193D01*
X0143713Y0109746D02*
X0146582Y0109746D01*
X0145148Y0109746D02*
X0145148Y0105443D01*
X0148317Y0105443D02*
X0151186Y0105443D01*
X0151186Y0109746D01*
X0152921Y0108312D02*
X0152921Y0105443D01*
X0152921Y0107595D02*
X0155790Y0107595D01*
X0155790Y0108312D02*
X0154356Y0109746D01*
X0152921Y0108312D01*
X0155790Y0108312D02*
X0155790Y0105443D01*
X0157525Y0105443D02*
X0157525Y0109746D01*
X0157525Y0107595D02*
X0160394Y0107595D01*
X0160394Y0109746D02*
X0160394Y0105443D01*
X0160394Y0099746D02*
X0158960Y0098312D01*
X0157525Y0099746D01*
X0157525Y0095443D01*
X0155790Y0095443D02*
X0155790Y0099746D01*
X0153638Y0099746D01*
X0152921Y0099029D01*
X0152921Y0097595D01*
X0153638Y0096877D01*
X0155790Y0096877D01*
X0154356Y0096877D02*
X0152921Y0095443D01*
X0151186Y0095443D02*
X0148317Y0095443D01*
X0146582Y0096160D02*
X0145865Y0095443D01*
X0144431Y0095443D01*
X0143713Y0096160D01*
X0143713Y0099029D01*
X0144431Y0099746D01*
X0145865Y0099746D01*
X0146582Y0099029D01*
X0146582Y0096160D01*
X0145148Y0096877D02*
X0143713Y0095443D01*
X0148317Y0099746D02*
X0151186Y0099746D01*
X0151186Y0095443D01*
X0151186Y0097595D02*
X0149752Y0097595D01*
X0149035Y0089746D02*
X0148317Y0089029D01*
X0148317Y0087595D01*
X0149035Y0086877D01*
X0151186Y0086877D01*
X0149752Y0086877D02*
X0148317Y0085443D01*
X0146582Y0086160D02*
X0145865Y0085443D01*
X0144431Y0085443D01*
X0143713Y0086160D01*
X0143713Y0089029D01*
X0144431Y0089746D01*
X0145865Y0089746D01*
X0146582Y0089029D01*
X0146582Y0086160D01*
X0145148Y0086877D02*
X0143713Y0085443D01*
X0149035Y0089746D02*
X0151186Y0089746D01*
X0151186Y0085443D01*
X0152921Y0086160D02*
X0152921Y0089029D01*
X0153638Y0089746D01*
X0155073Y0089746D01*
X0155790Y0089029D01*
X0155790Y0086160D01*
X0155073Y0085443D01*
X0153638Y0085443D01*
X0152921Y0086160D01*
X0157425Y0085443D02*
X0158860Y0085443D01*
X0158142Y0085443D02*
X0158142Y0089746D01*
X0157425Y0089746D02*
X0158860Y0089746D01*
X0160394Y0095443D02*
X0160394Y0099746D01*
X0107778Y0183076D02*
X0104909Y0183076D01*
X0104192Y0183793D01*
X0104192Y0185228D01*
X0104909Y0185945D01*
X0104909Y0187680D02*
X0104192Y0188397D01*
X0104192Y0189831D01*
X0104909Y0190549D01*
X0107778Y0190549D01*
X0108496Y0189831D01*
X0108496Y0188397D01*
X0107778Y0187680D01*
X0107061Y0187680D01*
X0106344Y0188397D01*
X0106344Y0190549D01*
X0107778Y0185945D02*
X0108496Y0185228D01*
X0108496Y0183793D01*
X0107778Y0183076D01*
X0145251Y0225443D02*
X0147403Y0227595D01*
X0148120Y0226877D02*
X0145251Y0229746D01*
X0148120Y0229746D02*
X0148120Y0225443D01*
X0149855Y0225443D02*
X0152724Y0225443D01*
X0152724Y0229746D01*
X0154459Y0229029D02*
X0155176Y0229746D01*
X0156611Y0229746D01*
X0157328Y0229029D01*
X0157328Y0226160D01*
X0156611Y0225443D01*
X0155176Y0225443D01*
X0154459Y0226160D01*
X0325421Y0230860D02*
X0326138Y0230143D01*
X0327573Y0230143D01*
X0328290Y0230860D01*
X0328290Y0231577D01*
X0327573Y0232294D01*
X0326138Y0232294D01*
X0325421Y0231577D01*
X0325421Y0230860D01*
X0326138Y0232294D02*
X0325421Y0233012D01*
X0325421Y0233729D01*
X0326138Y0234446D01*
X0327573Y0234446D01*
X0328290Y0233729D01*
X0328290Y0233012D01*
X0327573Y0232294D01*
X0330025Y0230860D02*
X0330742Y0230143D01*
X0332176Y0230143D01*
X0332894Y0230860D01*
X0332894Y0233729D01*
X0332176Y0234446D01*
X0330742Y0234446D01*
X0330025Y0233729D01*
X0393431Y0137944D02*
X0393431Y0135075D01*
X0396300Y0137944D01*
X0397018Y0137944D01*
X0397735Y0137226D01*
X0397735Y0135792D01*
X0397018Y0135075D01*
X0397735Y0131905D02*
X0393431Y0131905D01*
X0393431Y0130471D02*
X0393431Y0133340D01*
X0396300Y0130471D02*
X0397735Y0131905D01*
X0397018Y0128736D02*
X0397735Y0128019D01*
X0397735Y0126584D01*
X0397018Y0125867D01*
X0394148Y0125867D01*
X0393431Y0126584D01*
X0393431Y0128019D01*
X0394148Y0128736D01*
D15*
X0412584Y0123075D02*
X0412584Y0050552D01*
X0366320Y0049301D02*
X0366320Y0123075D01*
X0364444Y0123075D01*
X0364403Y0161124D02*
X0366278Y0161124D01*
X0366320Y0161837D02*
X0366320Y0231860D01*
X0366278Y0232397D02*
X0364403Y0232397D01*
X0413835Y0241863D02*
X0413835Y0181219D01*
X0414419Y0181131D02*
X0416294Y0181131D01*
X0415085Y0123075D02*
X0412584Y0123075D01*
X0366278Y0049214D02*
X0364403Y0049214D01*
X0191847Y0176787D02*
X0189347Y0176787D01*
X0189347Y0279912D01*
X0191222Y0279912D01*
X0144347Y0218663D02*
X0144347Y0135537D01*
X0143097Y0135537D01*
X0143707Y0218643D02*
X0141832Y0218643D01*
X0003662Y0203638D02*
X0001787Y0203638D01*
X0414419Y0242400D02*
X0416294Y0242400D01*
D16*
X0289128Y0209044D02*
X0289128Y0206775D01*
X0289128Y0208477D02*
X0286859Y0208477D01*
X0286859Y0209044D02*
X0286859Y0206775D01*
X0285445Y0206775D02*
X0283176Y0206775D01*
X0284310Y0206775D02*
X0284310Y0210178D01*
X0285445Y0209044D01*
X0286859Y0209044D02*
X0287993Y0210178D01*
X0289128Y0209044D01*
X0281761Y0208477D02*
X0280060Y0208477D01*
X0279493Y0207910D01*
X0279493Y0207343D01*
X0280060Y0206775D01*
X0281194Y0206775D01*
X0281761Y0207343D01*
X0281761Y0208477D01*
X0280627Y0209611D01*
X0279493Y0210178D01*
X0275810Y0210178D02*
X0278078Y0206775D01*
X0274395Y0207910D02*
X0273261Y0206775D01*
X0272126Y0207910D01*
X0272126Y0210178D01*
X0270712Y0208477D02*
X0270712Y0207343D01*
X0270145Y0206775D01*
X0268443Y0206775D01*
X0267029Y0207343D02*
X0266462Y0206775D01*
X0264760Y0206775D01*
X0264760Y0209044D02*
X0266462Y0209044D01*
X0267029Y0208477D01*
X0267029Y0207343D01*
X0268443Y0209044D02*
X0270145Y0209044D01*
X0270712Y0208477D01*
X0274395Y0207910D02*
X0274395Y0210178D01*
X0192318Y0172341D02*
X0192318Y0169405D01*
X0192318Y0171607D02*
X0189382Y0171607D01*
X0189382Y0172341D02*
X0189382Y0169405D01*
X0187714Y0170139D02*
X0184778Y0173074D01*
X0184778Y0170139D01*
X0185512Y0169405D01*
X0186980Y0169405D01*
X0187714Y0170139D01*
X0187714Y0173074D01*
X0186980Y0173808D01*
X0185512Y0173808D01*
X0184778Y0173074D01*
X0189382Y0172341D02*
X0190850Y0173808D01*
X0192318Y0172341D01*
X0192316Y0130686D02*
X0190114Y0130686D01*
X0189380Y0129952D01*
X0189380Y0129218D01*
X0190114Y0128484D01*
X0192316Y0128484D01*
X0190114Y0128484D02*
X0189380Y0127750D01*
X0189380Y0127016D01*
X0190114Y0126282D01*
X0192316Y0126282D01*
X0192316Y0130686D01*
X0187712Y0130686D02*
X0187712Y0127016D01*
X0186978Y0126282D01*
X0185511Y0126282D01*
X0184777Y0127016D01*
X0184777Y0130686D01*
X0183108Y0129952D02*
X0183108Y0129218D01*
X0182375Y0128484D01*
X0180907Y0128484D01*
X0180173Y0127750D01*
X0180173Y0127016D01*
X0180907Y0126282D01*
X0182375Y0126282D01*
X0183108Y0127016D01*
X0183108Y0129952D02*
X0182375Y0130686D01*
X0180907Y0130686D01*
X0180173Y0129952D01*
X0178505Y0130686D02*
X0178505Y0126282D01*
X0178505Y0127750D02*
X0176303Y0127750D01*
X0175569Y0128484D01*
X0175569Y0129952D01*
X0176303Y0130686D01*
X0178505Y0130686D01*
X0177037Y0127750D02*
X0175569Y0126282D01*
X0173901Y0126282D02*
X0173901Y0130686D01*
X0170965Y0130686D01*
X0169297Y0129952D02*
X0169297Y0127016D01*
X0168563Y0126282D01*
X0167095Y0126282D01*
X0166361Y0127016D01*
X0166361Y0129952D01*
X0167095Y0130686D01*
X0168563Y0130686D01*
X0169297Y0129952D01*
X0167829Y0127750D02*
X0166361Y0126282D01*
X0170965Y0126282D02*
X0173901Y0126282D01*
X0173901Y0128484D02*
X0172433Y0128484D01*
X0173901Y0110686D02*
X0173901Y0106282D01*
X0173901Y0107750D02*
X0170965Y0110686D01*
X0173167Y0108484D02*
X0170965Y0106282D01*
X0175569Y0106282D02*
X0175569Y0109218D01*
X0177037Y0110686D01*
X0178505Y0109218D01*
X0178505Y0106282D01*
X0180173Y0107016D02*
X0180173Y0107750D01*
X0180907Y0108484D01*
X0182375Y0108484D01*
X0183108Y0109218D01*
X0183108Y0109952D01*
X0182375Y0110686D01*
X0180907Y0110686D01*
X0180173Y0109952D01*
X0178505Y0108484D02*
X0175569Y0108484D01*
X0180173Y0107016D02*
X0180907Y0106282D01*
X0182375Y0106282D01*
X0183108Y0107016D01*
X0184777Y0107016D02*
X0184777Y0110686D01*
X0187712Y0110686D02*
X0187712Y0107016D01*
X0186978Y0106282D01*
X0185511Y0106282D01*
X0184777Y0107016D01*
X0189380Y0107016D02*
X0189380Y0107750D01*
X0190114Y0108484D01*
X0192316Y0108484D01*
X0190114Y0108484D02*
X0189380Y0109218D01*
X0189380Y0109952D01*
X0190114Y0110686D01*
X0192316Y0110686D01*
X0192316Y0106282D01*
X0190114Y0106282D01*
X0189380Y0107016D01*
X0155215Y0235393D02*
X0155215Y0238329D01*
X0153747Y0239796D01*
X0152279Y0238329D01*
X0152279Y0235393D01*
X0150611Y0235393D02*
X0147676Y0235393D01*
X0149143Y0235393D02*
X0149143Y0239796D01*
X0150611Y0238329D01*
X0152279Y0237595D02*
X0155215Y0237595D01*
X0146007Y0237595D02*
X0144540Y0238329D01*
X0143806Y0238329D01*
X0143072Y0237595D01*
X0143072Y0236127D01*
X0143806Y0235393D01*
X0145274Y0235393D01*
X0146007Y0236127D01*
X0146007Y0237595D02*
X0146007Y0239796D01*
X0143072Y0239796D01*
X0175282Y0276282D02*
X0174548Y0277016D01*
X0174548Y0279952D01*
X0177483Y0277016D01*
X0176750Y0276282D01*
X0175282Y0276282D01*
X0177483Y0277016D02*
X0177483Y0279952D01*
X0176750Y0280686D01*
X0175282Y0280686D01*
X0174548Y0279952D01*
X0179152Y0276282D02*
X0182087Y0276282D01*
X0180619Y0276282D02*
X0180619Y0280686D01*
X0182087Y0279218D01*
X0183755Y0279218D02*
X0183755Y0276282D01*
X0183755Y0278484D02*
X0186691Y0278484D01*
X0186691Y0279218D02*
X0185223Y0280686D01*
X0183755Y0279218D01*
X0186691Y0279218D02*
X0186691Y0276282D01*
D17*
X0143748Y0278750D03*
X0254409Y0231235D03*
X0412584Y0051802D03*
D18*
X0191264Y0060555D03*
M02*
