%
M48
M72
T01C0.0236
T02C0.0315
T03C0.0320
T04C0.0394
T05C0.0400
T06C0.1260
%
T01
X16497Y11804
X18372Y8929
X21997Y12679
X23872Y13054
X27372Y11179
X28122Y10429
X25276Y7551
X23435Y7491
X22810Y4804
X20122Y2554
X19193Y2131
X19185Y1710
X18247Y2554
X27622Y2679
X31622Y6679
X31997Y9679
X33247Y13554
X34357Y14127
X38997Y15179
X39581Y15160
X40771Y15178
X44122Y13929
X43997Y12304
X39622Y10554
X39622Y7929
X37997Y4929
X35185Y5179
X27497Y15991
X35348Y18674
X37997Y18804
X41122Y22679
X42247Y25929
X37247Y28179
X36872Y24179
X27372Y26679
X23247Y27179
X16122Y28429
X15216Y30351
X15122Y24179
X15747Y22554
X18122Y19054
X11373Y15804
X8122Y17679
X7997Y33429
X37247Y33679
X41998Y37809
T02
X30693Y36565
X29692Y36065
X20747Y27804
X20747Y26804
X20747Y25804
X20747Y24804
X20747Y23804
X20747Y22804
X20747Y21804
X20747Y20804
X20747Y19804
X20747Y18804
X20747Y17804
X20747Y16804
X20747Y15804
X20747Y14804
X20747Y13804
X20747Y12804
X20747Y11804
X20747Y10804
X20747Y9804
X20747Y8804
X22859Y2679
X23646Y2679
X12747Y8804
X12747Y9804
X12747Y10804
X12747Y11804
X12747Y12804
X12747Y13804
X12747Y14804
X12747Y15804
X12747Y16804
X12747Y17804
X12747Y18804
X12747Y19804
X12747Y20804
X12747Y21804
X12747Y22804
X12747Y23804
X12747Y24804
X12747Y25804
X12747Y26804
X12747Y27804
X18247Y17772
X18247Y15804
X8123Y16077
X8123Y15290
X35997Y15179
X35997Y14179
X35997Y13179
X35997Y12179
X35997Y11179
X35997Y10179
X35997Y9179
X35997Y8179
X35997Y7179
X35997Y6179
X35997Y5179
X41997Y5179
X41997Y6179
X41997Y7179
X41997Y8179
X41997Y9179
X41997Y10179
X41997Y11179
X41997Y12179
X41997Y13179
X41997Y14179
X41997Y15179
X41997Y16179
X42759Y16684
X41997Y17179
X42759Y17684
X41997Y18179
X41997Y19179
X41997Y20179
X41997Y21179
X41997Y22179
X41997Y23179
X41997Y24179
X35997Y24179
X35997Y23179
X35997Y22179
X35997Y21179
X35997Y20179
X35997Y19179
X35997Y18179
X35997Y17179
X35997Y16179
T03
X34622Y15179
X34622Y13179
X30747Y13179
X30747Y12179
X30747Y11179
X30747Y10179
X30747Y9179
X30747Y8179
X24747Y8179
X24747Y9179
X24747Y10179
X24747Y11179
X24747Y12179
X24747Y13179
X24747Y14179
X24747Y15179
X24747Y16179
X24747Y17179
X24747Y18179
X24747Y19179
X24747Y20179
X24747Y21179
X24747Y22179
X24747Y23179
X19747Y22804
X19747Y23804
X19747Y24804
X19747Y25804
X19747Y26804
X19747Y27804
X13747Y27804
X13747Y26804
X13747Y25804
X13747Y24804
X13747Y23804
X13747Y22804
X13747Y21804
X13747Y20804
X13747Y19804
X13747Y18804
X13747Y17804
X13747Y16804
X13747Y15804
X13747Y14804
X13747Y13804
X13747Y12804
X13747Y11804
X13747Y10804
X13747Y9804
X13747Y8804
X13247Y6804
X14247Y6804
X15247Y6804
X16247Y6804
X17247Y6804
X18247Y6804
X19247Y6804
X20497Y6304
X20497Y4304
X19247Y3804
X18247Y3804
X17247Y3804
X16247Y3804
X15247Y3804
X14247Y3804
X13247Y3804
X11497Y3554
X10372Y5054
X9372Y5054
X8997Y6554
X9372Y8054
X10372Y8054
X10122Y9554
X10372Y10804
X9372Y10804
X10247Y12054
X10372Y13554
X9372Y13554
X10747Y14804
X10747Y16804
X10747Y17804
X10747Y19804
X8748Y19310
X7748Y19310
X8622Y22804
X8622Y23804
X8622Y24804
X8622Y25804
X8622Y26804
X8622Y27804
X8622Y28804
X10622Y28804
X10622Y27804
X10622Y26804
X10622Y25804
X10622Y24804
X10622Y23804
X10622Y22804
X18247Y16804
X19747Y16804
X19747Y15804
X19747Y14804
X19747Y13804
X19747Y12804
X19747Y11804
X19747Y10804
X19747Y9804
X19747Y8804
X18247Y14804
X19747Y17804
X19747Y18804
X19747Y19804
X19747Y20804
X19747Y21804
X30747Y22179
X30747Y21179
X30747Y20179
X30747Y19179
X30747Y18179
X30747Y17179
X30747Y16179
X30747Y15179
X30747Y14179
X32756Y21060
X33756Y21060
X33872Y23179
X31872Y23179
X30747Y23179
X38747Y25804
X38747Y26804
X40747Y26804
X40747Y25804
X42497Y30804
X42497Y31741
X42497Y32679
X42497Y33616
X42497Y34554
X42497Y36054
X43497Y36054
X44497Y34554
X44497Y33616
X44497Y32679
X44497Y31741
X44497Y30804
X37997Y36554
X37997Y38554
X43247Y15179
X43247Y13179
X43509Y9432
X44509Y9432
X11497Y5554
X10997Y6554
X8122Y9554
X8247Y12054
T04
X26747Y27929
X26747Y28929
X25747Y28929
X25747Y29929
X25747Y30929
X26747Y30929
X27747Y30929
X28747Y30929
X29747Y30929
X30747Y30929
X31747Y30929
X32747Y30929
X33747Y30929
X34747Y30929
X35747Y30929
X35747Y29929
X34747Y29929
X33747Y29929
X32747Y29929
X31747Y29929
X30747Y29929
X29747Y29929
X28747Y29929
X27747Y29929
X26747Y29929
X27747Y28929
X28716Y28929
X29716Y28929
X30716Y28929
X31716Y28929
X32716Y28929
X33716Y28929
X34716Y28929
X35716Y28929
X35716Y27929
X34716Y27929
X33716Y27929
X32716Y27929
X31716Y27929
X30716Y27929
X29716Y27929
X28716Y27929
X27747Y27929
X28716Y26929
X29716Y26929
X30716Y26929
X31716Y26929
X32716Y26929
X33716Y26929
X34716Y26929
X35716Y26929
X35716Y25929
X34716Y25929
X33716Y25929
X32716Y25929
X31716Y25929
X30716Y25929
X29716Y25929
X28716Y25929
X24747Y29929
X24747Y30929
X23716Y30929
X22716Y30929
X21716Y30929
X20716Y30929
X19716Y30929
X18716Y30929
X17716Y30929
X16716Y30929
X15716Y30929
X14716Y30929
X13716Y30929
X12716Y30929
X11716Y30929
X10716Y30929
X9747Y30929
X8747Y30929
X8747Y31929
X8747Y32929
X9747Y32929
X10716Y32929
X11716Y32929
X12716Y32929
X13716Y32929
X14716Y32929
X15716Y32929
X16716Y32929
X17716Y32929
X18716Y32929
X19716Y32929
X20716Y32929
X21716Y32929
X22716Y32929
X23716Y32929
X23716Y31929
X22716Y31929
X21716Y31929
X20716Y31929
X19716Y31929
X18716Y31929
X17716Y31929
X16716Y31929
X15716Y31929
X14716Y31929
X13716Y31929
X12716Y31929
X11716Y31929
X10716Y31929
X9747Y31929
X9747Y33929
X9747Y34929
X9747Y35929
X10716Y35929
X11716Y35929
X12716Y35929
X13716Y35929
X14716Y35929
X15716Y35929
X16716Y35929
X17716Y35929
X18716Y35929
X19716Y35929
X20716Y35929
X21716Y35929
X22716Y35929
X23716Y35929
X23747Y34929
X22747Y34929
X21747Y34929
X20747Y34929
X19747Y34929
X18747Y34929
X17747Y34929
X16747Y34929
X15747Y34929
X14747Y34929
X13747Y34929
X12747Y34929
X11747Y34929
X10747Y34929
X10747Y33929
X11747Y33929
X12747Y33929
X13747Y33929
X14747Y33929
X15747Y33929
X16747Y33929
X17747Y33929
X18747Y33929
X19747Y33929
X20747Y33929
X21747Y33929
X22747Y33929
X23747Y33929
X24747Y33929
X24747Y34929
X25747Y34929
X26747Y34929
X27747Y34929
X28716Y34929
X29716Y34929
X30716Y34929
X31716Y34929
X32716Y34929
X33716Y34929
X34716Y34929
X35716Y34929
X35716Y33929
X34716Y33929
X33716Y33929
X32716Y33929
X31716Y33929
X30716Y33929
X29716Y33929
X28716Y33929
X27747Y33929
X26747Y33929
X25747Y33929
X25747Y32929
X26747Y32929
X27747Y32929
X28716Y32929
X29716Y32929
X30716Y32929
X31716Y32929
X32716Y32929
X33716Y32929
X34716Y32929
X35716Y32929
X35716Y31929
X34716Y31929
X33716Y31929
X32716Y31929
X31716Y31929
X30716Y31929
X29716Y31929
X28716Y31929
X27747Y31929
X26747Y31929
X25747Y31929
X24747Y31929
X24747Y32929
X23716Y36929
X23716Y37929
X22716Y37929
X21716Y37929
X20716Y37929
X19716Y37929
X18716Y37929
X17716Y37929
X16716Y37929
X15716Y37929
X14716Y37929
X13716Y37929
X12716Y37929
X11716Y37929
X10716Y37929
X10716Y36929
X11716Y36929
X12716Y36929
X13716Y36929
X14716Y36929
X15716Y36929
X16716Y36929
X17716Y36929
X18716Y36929
X19716Y36929
X20716Y36929
X21716Y36929
X22716Y36929
X25747Y37866
X26747Y37866
X27747Y37866
X28747Y37866
X36747Y32944
X36747Y31944
X37747Y31944
X37747Y32944
X37747Y30944
X37747Y29944
X36747Y29944
X36747Y30944
X36747Y28944
X37747Y28944
X41883Y28429
X42611Y29708
X44383Y29708
X44383Y27149
X42611Y27149
X40247Y36190
X38968Y36918
X38968Y38690
X41527Y38690
X41527Y36918
X8747Y34929
X8747Y33929
T05
X31497Y37804
X32497Y37804
X33497Y37804
X34497Y37804
X35497Y37804
X36497Y37804
T06
X7872Y2054
X44247Y2054
X44247Y38179
X7872Y38179
M30
