G75*
%MOIN*%
%OFA0B0*%
%FSLAX25Y25*%
%IPPOS*%
%LPD*%
%AMOC8*
5,1,8,0,0,1.08239X$1,22.5*
%
%ADD10C,0.13398*%
%ADD11C,0.06000*%
%ADD12C,0.05950*%
%ADD13C,0.06737*%
%ADD14C,0.06800*%
%ADD15R,0.07099X0.07887*%
%ADD16R,0.07887X0.07099*%
%ADD17C,0.07100*%
%ADD18C,0.06400*%
%ADD19C,0.05550*%
%ADD20OC8,0.07800*%
%ADD21C,0.06706*%
D10*
X0078722Y0020537D03*
X0442472Y0020537D03*
X0442472Y0381787D03*
X0078722Y0381787D03*
D11*
X0086222Y0288037D03*
X0086222Y0278037D03*
X0086222Y0268037D03*
X0086222Y0258037D03*
X0086222Y0248037D03*
X0086222Y0238037D03*
X0086222Y0228037D03*
X0106222Y0228037D03*
X0106222Y0238037D03*
X0106222Y0248037D03*
X0106222Y0258037D03*
X0106222Y0268037D03*
X0106222Y0278037D03*
X0106222Y0288037D03*
X0137472Y0278037D03*
X0137472Y0268037D03*
X0137472Y0258037D03*
X0137472Y0248037D03*
X0137472Y0238037D03*
X0137472Y0228037D03*
X0137472Y0218037D03*
X0137472Y0208037D03*
X0137472Y0198037D03*
X0137472Y0188037D03*
X0137472Y0178037D03*
X0137472Y0168037D03*
X0137472Y0158037D03*
X0137472Y0148037D03*
X0137472Y0138037D03*
X0137472Y0128037D03*
X0137472Y0118037D03*
X0137472Y0108037D03*
X0137472Y0098037D03*
X0137472Y0088037D03*
X0132472Y0068037D03*
X0142472Y0068037D03*
X0152472Y0068037D03*
X0162472Y0068037D03*
X0172472Y0068037D03*
X0182472Y0068037D03*
X0192472Y0068037D03*
X0204972Y0063037D03*
X0204972Y0043037D03*
X0192472Y0038037D03*
X0182472Y0038037D03*
X0172472Y0038037D03*
X0162472Y0038037D03*
X0152472Y0038037D03*
X0142472Y0038037D03*
X0132472Y0038037D03*
X0114972Y0035537D03*
X0103724Y0050537D03*
X0093724Y0050537D03*
X0089972Y0065537D03*
X0093724Y0080537D03*
X0103724Y0080537D03*
X0101222Y0095537D03*
X0103724Y0108037D03*
X0093724Y0108037D03*
X0102472Y0120537D03*
X0103724Y0135537D03*
X0093724Y0135537D03*
X0107472Y0148037D03*
X0107472Y0168037D03*
X0107472Y0178037D03*
X0107472Y0198037D03*
X0182472Y0168037D03*
X0197472Y0168037D03*
X0197472Y0158037D03*
X0197472Y0148037D03*
X0197472Y0138037D03*
X0197472Y0128037D03*
X0197472Y0118037D03*
X0197472Y0108037D03*
X0197472Y0098037D03*
X0197472Y0088037D03*
X0247472Y0091787D03*
X0247472Y0101787D03*
X0247472Y0111787D03*
X0247472Y0121787D03*
X0247472Y0131787D03*
X0247472Y0141787D03*
X0247472Y0151787D03*
X0247472Y0161787D03*
X0247472Y0171787D03*
X0247472Y0181787D03*
X0247472Y0191787D03*
X0247472Y0201787D03*
X0247472Y0211787D03*
X0247472Y0221787D03*
X0247472Y0231787D03*
X0197472Y0228037D03*
X0197472Y0238037D03*
X0197472Y0248037D03*
X0197472Y0258037D03*
X0197472Y0268037D03*
X0197472Y0278037D03*
X0197472Y0218037D03*
X0197472Y0208037D03*
X0197472Y0198037D03*
X0197472Y0188037D03*
X0197472Y0178037D03*
X0182472Y0148037D03*
X0247472Y0081787D03*
X0307472Y0081787D03*
X0307472Y0091787D03*
X0307472Y0101787D03*
X0307472Y0111787D03*
X0307472Y0121787D03*
X0307472Y0131787D03*
X0307472Y0141787D03*
X0307472Y0151787D03*
X0307472Y0161787D03*
X0307472Y0171787D03*
X0307472Y0181787D03*
X0307472Y0191787D03*
X0307472Y0201787D03*
X0307472Y0211787D03*
X0307472Y0221787D03*
X0307472Y0231787D03*
X0318722Y0231787D03*
X0338722Y0231787D03*
X0387472Y0258037D03*
X0387472Y0268037D03*
X0407472Y0268037D03*
X0407472Y0258037D03*
X0424972Y0308037D03*
X0424972Y0317412D03*
X0424972Y0326787D03*
X0424972Y0336162D03*
X0424972Y0345537D03*
X0424972Y0360537D03*
X0434972Y0360537D03*
X0444972Y0345537D03*
X0444972Y0336162D03*
X0444972Y0326787D03*
X0444972Y0317412D03*
X0444972Y0308037D03*
X0379972Y0365537D03*
X0379972Y0385537D03*
X0346222Y0151787D03*
X0346222Y0131787D03*
X0432473Y0131787D03*
X0432473Y0151787D03*
X0114972Y0055537D03*
X0109972Y0065537D03*
X0081222Y0095537D03*
X0082472Y0120537D03*
D12*
X0127472Y0118037D03*
X0127472Y0108037D03*
X0127472Y0098037D03*
X0127472Y0088037D03*
X0127472Y0128037D03*
X0127472Y0138037D03*
X0127472Y0148037D03*
X0127472Y0158037D03*
X0127472Y0168037D03*
X0127472Y0178037D03*
X0127472Y0188037D03*
X0127472Y0198037D03*
X0127472Y0208037D03*
X0127472Y0218037D03*
X0127472Y0228037D03*
X0127472Y0238037D03*
X0127472Y0248037D03*
X0127472Y0258037D03*
X0127472Y0268037D03*
X0127472Y0278037D03*
X0207472Y0278037D03*
X0207472Y0268037D03*
X0207472Y0258037D03*
X0207472Y0248037D03*
X0207472Y0238037D03*
X0207472Y0228037D03*
X0207472Y0218037D03*
X0207472Y0208037D03*
X0207472Y0198037D03*
X0207472Y0188037D03*
X0207472Y0178037D03*
X0207472Y0168037D03*
X0207472Y0158037D03*
X0207472Y0148037D03*
X0207472Y0138037D03*
X0207472Y0128037D03*
X0207472Y0118037D03*
X0207472Y0108037D03*
X0207472Y0098037D03*
X0207472Y0088037D03*
X0359972Y0091787D03*
X0359972Y0101787D03*
X0359972Y0111787D03*
X0359972Y0121787D03*
X0359972Y0131787D03*
X0359972Y0141787D03*
X0359972Y0151787D03*
X0359972Y0161787D03*
X0359972Y0171787D03*
X0359972Y0181787D03*
X0359972Y0191787D03*
X0359972Y0201787D03*
X0359972Y0211787D03*
X0359972Y0221787D03*
X0359972Y0231787D03*
X0359972Y0241787D03*
X0419972Y0241787D03*
X0419972Y0231787D03*
X0419972Y0221787D03*
X0419972Y0211787D03*
X0419972Y0201787D03*
X0419972Y0191787D03*
X0419972Y0181787D03*
X0427589Y0176842D03*
X0419972Y0171787D03*
X0427589Y0166839D03*
X0419972Y0161787D03*
X0419972Y0151787D03*
X0419972Y0141787D03*
X0419972Y0131787D03*
X0419972Y0121787D03*
X0419972Y0111787D03*
X0419972Y0101787D03*
X0419972Y0091787D03*
X0419972Y0081787D03*
X0419972Y0071787D03*
X0419972Y0061787D03*
X0419972Y0051787D03*
X0359972Y0051787D03*
X0359972Y0061787D03*
X0359972Y0071787D03*
X0359972Y0081787D03*
X0296922Y0360651D03*
X0306926Y0365653D03*
D13*
X0287472Y0378663D03*
X0277472Y0378663D03*
X0267472Y0378663D03*
X0257472Y0378663D03*
X0389677Y0386896D03*
X0389677Y0369179D03*
X0402472Y0361896D03*
X0415268Y0369179D03*
X0415268Y0386896D03*
X0426114Y0297083D03*
X0418831Y0284287D03*
X0426114Y0271492D03*
X0443831Y0271492D03*
X0443831Y0297083D03*
D14*
X0364972Y0378037D03*
X0354972Y0378037D03*
X0344972Y0378037D03*
X0334972Y0378037D03*
X0324972Y0378037D03*
X0314972Y0378037D03*
D15*
X0320398Y0223037D03*
X0331422Y0223037D03*
D16*
X0405082Y0141091D03*
X0405082Y0130067D03*
X0244347Y0066674D03*
X0244347Y0055651D03*
X0166535Y0159401D03*
X0166535Y0170424D03*
X0116222Y0179713D03*
X0116222Y0190737D03*
D17*
X0087479Y0193097D03*
X0077479Y0193097D03*
X0327559Y0210603D03*
X0337559Y0210603D03*
X0435093Y0094316D03*
X0445093Y0094316D03*
D18*
X0236464Y0026794D03*
X0228590Y0026794D03*
X0081228Y0152899D03*
X0081228Y0160773D03*
D19*
X0182472Y0158037D03*
X0182472Y0177725D03*
D20*
X0267472Y0279287D03*
X0267472Y0289287D03*
X0257472Y0289287D03*
X0257472Y0299287D03*
X0257472Y0309287D03*
X0267472Y0309287D03*
X0267472Y0299287D03*
X0277472Y0299287D03*
X0277472Y0309287D03*
X0287472Y0309287D03*
X0287472Y0299287D03*
X0297472Y0299287D03*
X0297472Y0309287D03*
X0307472Y0309287D03*
X0307472Y0299287D03*
X0317472Y0299287D03*
X0317472Y0309287D03*
X0327472Y0309287D03*
X0327472Y0299287D03*
X0337472Y0299287D03*
X0337472Y0309287D03*
X0347472Y0309287D03*
X0347472Y0299287D03*
X0357472Y0299287D03*
X0357472Y0309287D03*
X0367472Y0309444D03*
X0367472Y0299444D03*
X0377472Y0299444D03*
X0377472Y0309444D03*
X0377472Y0319444D03*
X0367472Y0319444D03*
X0367472Y0329444D03*
X0377472Y0329444D03*
X0377472Y0289444D03*
X0367472Y0289444D03*
X0277472Y0289287D03*
X0277472Y0279287D03*
X0247472Y0299287D03*
X0247472Y0309287D03*
X0247472Y0319287D03*
X0247472Y0329287D03*
X0247472Y0339287D03*
X0237472Y0339287D03*
X0227472Y0339287D03*
X0217472Y0339287D03*
X0207472Y0339287D03*
X0197472Y0339287D03*
X0187472Y0339287D03*
X0177472Y0339287D03*
X0167472Y0339287D03*
X0157472Y0339287D03*
X0147472Y0339287D03*
X0137472Y0339287D03*
X0127472Y0339287D03*
X0117472Y0339287D03*
X0107472Y0339287D03*
X0097472Y0339287D03*
X0087472Y0339287D03*
X0087472Y0349287D03*
X0097472Y0349287D03*
X0097472Y0359287D03*
X0107472Y0349287D03*
X0117472Y0349287D03*
X0127472Y0349287D03*
X0137472Y0349287D03*
X0147472Y0349287D03*
X0157472Y0349287D03*
X0167472Y0349287D03*
X0177472Y0349287D03*
X0187472Y0349287D03*
X0197472Y0349287D03*
X0207472Y0349287D03*
X0217472Y0349287D03*
X0227472Y0349287D03*
X0237472Y0349287D03*
X0247472Y0349287D03*
X0257472Y0349287D03*
X0257472Y0339287D03*
X0267472Y0339287D03*
X0267472Y0349287D03*
X0277472Y0349287D03*
X0277472Y0339287D03*
X0277472Y0329287D03*
X0267472Y0329287D03*
X0257472Y0329287D03*
X0257472Y0319287D03*
X0267472Y0319287D03*
X0277472Y0319287D03*
X0097472Y0319287D03*
X0087472Y0319287D03*
X0087472Y0329287D03*
X0097472Y0329287D03*
X0097472Y0309287D03*
X0087472Y0309287D03*
D21*
X0107160Y0309287D03*
X0117160Y0309287D03*
X0127160Y0309287D03*
X0137160Y0309287D03*
X0147160Y0309287D03*
X0157160Y0309287D03*
X0167160Y0309287D03*
X0177160Y0309287D03*
X0187160Y0309287D03*
X0197160Y0309287D03*
X0207160Y0309287D03*
X0217160Y0309287D03*
X0227160Y0309287D03*
X0237160Y0309287D03*
X0237160Y0319287D03*
X0227160Y0319287D03*
X0217160Y0319287D03*
X0207160Y0319287D03*
X0197160Y0319287D03*
X0187160Y0319287D03*
X0177160Y0319287D03*
X0167160Y0319287D03*
X0157160Y0319287D03*
X0147160Y0319287D03*
X0137160Y0319287D03*
X0127160Y0319287D03*
X0117160Y0319287D03*
X0107160Y0319287D03*
X0107160Y0329287D03*
X0117160Y0329287D03*
X0127160Y0329287D03*
X0137160Y0329287D03*
X0147160Y0329287D03*
X0157160Y0329287D03*
X0167160Y0329287D03*
X0177160Y0329287D03*
X0187160Y0329287D03*
X0197160Y0329287D03*
X0207160Y0329287D03*
X0217160Y0329287D03*
X0227160Y0329287D03*
X0237160Y0329287D03*
X0237160Y0359287D03*
X0227160Y0359287D03*
X0217160Y0359287D03*
X0207160Y0359287D03*
X0197160Y0359287D03*
X0187160Y0359287D03*
X0177160Y0359287D03*
X0167160Y0359287D03*
X0157160Y0359287D03*
X0147160Y0359287D03*
X0137160Y0359287D03*
X0127160Y0359287D03*
X0117160Y0359287D03*
X0107160Y0359287D03*
X0107160Y0369287D03*
X0117160Y0369287D03*
X0127160Y0369287D03*
X0137160Y0369287D03*
X0147160Y0369287D03*
X0157160Y0369287D03*
X0167160Y0369287D03*
X0177160Y0369287D03*
X0187160Y0369287D03*
X0197160Y0369287D03*
X0207160Y0369287D03*
X0217160Y0369287D03*
X0227160Y0369287D03*
X0237160Y0369287D03*
X0237160Y0379287D03*
X0227160Y0379287D03*
X0217160Y0379287D03*
X0207160Y0379287D03*
X0197160Y0379287D03*
X0187160Y0379287D03*
X0177160Y0379287D03*
X0167160Y0379287D03*
X0157160Y0379287D03*
X0147160Y0379287D03*
X0137160Y0379287D03*
X0127160Y0379287D03*
X0117160Y0379287D03*
X0107160Y0379287D03*
X0287160Y0349287D03*
X0287160Y0339287D03*
X0297160Y0339287D03*
X0307160Y0339287D03*
X0317160Y0339287D03*
X0327160Y0339287D03*
X0337160Y0339287D03*
X0347160Y0339287D03*
X0357160Y0339287D03*
X0357160Y0349287D03*
X0347160Y0349287D03*
X0337160Y0349287D03*
X0327160Y0349287D03*
X0317160Y0349287D03*
X0307160Y0349287D03*
X0297160Y0349287D03*
X0297160Y0329287D03*
X0297160Y0319287D03*
X0307160Y0319287D03*
X0317160Y0319287D03*
X0327160Y0319287D03*
X0337160Y0319287D03*
X0347160Y0319287D03*
X0357160Y0319287D03*
X0357160Y0329287D03*
X0347160Y0329287D03*
X0337160Y0329287D03*
X0327160Y0329287D03*
X0317160Y0329287D03*
X0307160Y0329287D03*
X0287160Y0329287D03*
X0287160Y0319287D03*
X0287160Y0289287D03*
X0287160Y0279287D03*
X0287160Y0269287D03*
X0297160Y0269287D03*
X0307160Y0269287D03*
X0317160Y0269287D03*
X0327160Y0269287D03*
X0337160Y0269287D03*
X0347160Y0269287D03*
X0357160Y0269287D03*
X0357160Y0279287D03*
X0347160Y0279287D03*
X0337160Y0279287D03*
X0327160Y0279287D03*
X0317160Y0279287D03*
X0307160Y0279287D03*
X0297160Y0279287D03*
X0297160Y0289287D03*
X0307160Y0289287D03*
X0317160Y0289287D03*
X0327160Y0289287D03*
X0337160Y0289287D03*
X0347160Y0289287D03*
X0357160Y0289287D03*
X0357160Y0259287D03*
X0347160Y0259287D03*
X0337160Y0259287D03*
X0327160Y0259287D03*
X0317160Y0259287D03*
X0307160Y0259287D03*
X0297160Y0259287D03*
X0287160Y0259287D03*
M02*
